<svg version="1.1" id="Layer_1" xmlns="http://www.w3.org/2000/svg" xmlns:xlink="http://www.w3.org/1999/xlink" x="0px" y="0px"
	 width="100%" viewBox="0 0 500 500" enable-background="new 0 0 500 500" xml:space="preserve">
<path fill="#679AD3" opacity="1.000000" stroke="none" 
	d="
M246.000000,1.000000 
	C249.030594,1.000000 252.061188,1.000000 255.814972,1.274359 
	C261.671692,3.323361 267.242615,4.334812 271.872498,6.988242 
	C332.026093,41.462803 392.036072,76.187912 452.113647,110.795319 
	C458.943451,114.729599 464.091339,120.146843 467.438721,127.040924 
	C465.707245,127.583687 464.240570,127.944519 462.980225,128.665878 
	C446.417603,138.145752 429.903442,147.710449 413.336456,157.182709 
	C402.121094,163.595123 390.841675,169.895477 379.324646,175.980301 
	C378.234283,174.463608 377.396637,173.221252 376.587982,171.960281 
	C343.505371,120.372742 284.892151,94.581055 224.493469,105.036903 
	C143.053253,119.135315 88.166229,200.912567 105.763130,281.671509 
	C109.091476,296.946564 115.069397,311.111847 121.785645,325.255432 
	C101.571617,337.124695 81.589447,348.774506 61.531719,360.292725 
	C52.763897,365.327667 43.841503,370.093414 34.660149,374.863373 
	C30.463713,368.639740 29.067820,361.925293 29.071774,354.760681 
	C29.109940,285.608154 29.044016,216.455566 29.132401,147.303146 
	C29.153023,131.167725 36.268478,118.813950 50.295055,110.697739 
	C98.439896,82.839645 146.458603,54.757168 194.873230,27.375217 
	C211.540695,17.948566 226.794296,5.571291 246.000000,1.000000 
z"/>
<path fill="#FFFFFF" opacity="1.000000" stroke="none" 
	d="
M245.531342,1.000000 
	C226.794296,5.571291 211.540695,17.948566 194.873230,27.375217 
	C146.458603,54.757168 98.439896,82.839645 50.295055,110.697739 
	C36.268478,118.813950 29.153023,131.167725 29.132401,147.303146 
	C29.044016,216.455566 29.109940,285.608154 29.071774,354.760681 
	C29.067820,361.925293 30.463713,368.639740 34.663528,375.225464 
	C37.824795,382.220001 42.641537,386.964996 48.683632,390.407715 
	C113.437645,427.303589 178.223145,464.144226 243.000000,501.000000 
	C162.369095,501.000000 81.738190,501.000000 1.053644,501.000000 
	C1.053644,334.442993 1.053644,167.885986 1.053644,1.000000 
	C82.353935,1.000000 163.708313,1.000000 245.531342,1.000000 
z"/>
<path fill="#FEFFFF" opacity="1.000000" stroke="none" 
	d="
M467.799438,127.026588 
	C464.091339,120.146843 458.943451,114.729599 452.113647,110.795319 
	C392.036072,76.187912 332.026093,41.462803 271.872498,6.988242 
	C267.242615,4.334812 261.671692,3.323361 256.269104,1.274359 
	C337.630493,1.000000 419.260956,1.000000 500.945740,1.000000 
	C500.945740,167.556625 500.945740,334.113281 500.945740,501.000000 
	C420.312744,501.000000 339.625031,501.000000 258.608948,500.642395 
	C262.748962,498.626190 267.558075,497.560883 271.634552,495.219788 
	C331.955231,460.578705 392.180206,425.770905 452.423065,390.994293 
	C458.743103,387.345886 463.888580,382.543182 467.307007,375.634583 
	C471.168488,368.898590 472.953888,361.979523 472.944336,354.430145 
	C472.857147,285.482788 472.859619,216.535294 472.934174,147.587921 
	C472.942139,140.228699 471.359161,133.419159 467.799438,127.026588 
z"/>
<path fill="#014581" opacity="1.000000" stroke="none" 
	d="
M467.034332,375.825806 
	C463.888580,382.543182 458.743103,387.345886 452.423065,390.994293 
	C392.180206,425.770905 331.955231,460.578705 271.634552,495.219788 
	C267.558075,497.560883 262.748962,498.626190 258.140259,500.642395 
	C253.310745,501.000000 248.621490,501.000000 243.466125,501.000000 
	C178.223145,464.144226 113.437645,427.303589 48.683632,390.407715 
	C42.641537,386.964996 37.824795,382.220001 34.992687,375.343506 
	C43.841503,370.093414 52.763897,365.327667 61.531719,360.292725 
	C81.589447,348.774506 101.571617,337.124695 122.098282,325.397583 
	C123.405273,326.534149 124.191040,327.806213 124.992722,329.068115 
	C170.995941,401.480347 263.782867,421.061920 334.677612,373.242340 
	C353.294495,360.684998 368.372345,344.769623 379.472473,325.141846 
	C384.107483,327.723663 388.491974,330.062714 392.789917,332.551208 
	C407.421112,341.022797 422.026154,349.539581 436.632568,358.053833 
	C446.773773,363.965271 456.900909,369.900940 467.034332,375.825806 
z"/>
<path fill="#FEFEFF" opacity="1.000000" stroke="none" 
	d="
M379.182312,324.967590 
	C368.372345,344.769623 353.294495,360.684998 334.677612,373.242340 
	C263.782867,421.061920 170.995941,401.480347 124.992722,329.068115 
	C124.191040,327.806213 123.405273,326.534149 122.299438,325.124695 
	C115.069397,311.111847 109.091476,296.946564 105.763130,281.671509 
	C88.166229,200.912567 143.053253,119.135315 224.493469,105.036903 
	C284.892151,94.581055 343.505371,120.372742 376.587982,171.960281 
	C377.396637,173.221252 378.234283,174.463608 379.144775,176.288818 
	C378.732452,177.274475 378.280212,177.766068 377.728394,178.085861 
	C357.735352,189.672302 337.739990,201.254852 317.713104,212.782578 
	C316.621185,213.411102 315.255005,213.563263 314.013306,213.583282 
	C300.280304,186.445145 264.283600,171.462173 232.952866,179.490768 
	C200.760345,187.740189 177.981155,215.905777 177.241180,249.130920 
	C176.941879,262.569550 179.456635,275.574066 187.288956,287.354919 
	C187.828888,288.722382 188.290024,289.792542 188.906464,290.764160 
	C204.535889,315.398682 234.058792,328.910828 262.719116,323.784851 
	C285.037079,319.793213 302.804932,308.552979 314.581909,288.329559 
	C315.406464,288.311401 315.970428,288.218323 316.351898,288.439667 
	C337.305054,300.598999 358.242889,312.784637 379.182312,324.967590 
z"/>
<path fill="#02599D" opacity="1.000000" stroke="none" 
	d="
M379.472473,325.141846 
	C358.242889,312.784637 337.305054,300.598999 316.351898,288.439667 
	C315.970428,288.218323 315.406464,288.311401 314.397522,288.007385 
	C313.123322,287.117950 312.458771,286.340302 311.623230,285.860565 
	C299.723663,279.028442 287.751465,272.321350 275.901001,265.405548 
	C267.826599,260.693420 259.914642,255.703003 252.156067,250.590195 
	C265.167145,242.926849 277.985809,235.567444 290.724854,228.072662 
	C298.551697,223.467865 306.256744,218.656021 314.016479,213.937164 
	C315.255005,213.563263 316.621185,213.411102 317.713104,212.782578 
	C337.739990,201.254852 357.735352,189.672302 377.728394,178.085861 
	C378.280212,177.766068 378.732452,177.274475 379.411011,176.554474 
	C390.841675,169.895477 402.121094,163.595123 413.336456,157.182709 
	C429.903442,147.710449 446.417603,138.145752 462.980225,128.665878 
	C464.240570,127.944519 465.707245,127.583687 467.438721,127.040924 
	C471.359161,133.419159 472.942139,140.228699 472.934174,147.587921 
	C472.859619,216.535294 472.857147,285.482788 472.944336,354.430145 
	C472.953888,361.979523 471.168488,368.898590 467.307007,375.634583 
	C456.900909,369.900940 446.773773,363.965271 436.632568,358.053833 
	C422.026154,349.539581 407.421112,341.022797 392.789917,332.551208 
	C388.491974,330.062714 384.107483,327.723663 379.472473,325.141846 
M366.249023,276.511536 
	C370.956299,276.648529 375.663361,276.795013 380.371460,276.890320 
	C380.574799,276.894470 380.787689,276.427612 381.720581,275.944885 
	C382.358246,275.017365 383.521271,274.098022 383.535919,273.160736 
	C383.581573,270.242920 383.014130,267.318207 383.015625,264.396332 
	C383.017548,260.599030 385.227020,259.340424 388.872650,259.598022 
	C392.268005,259.837982 395.693665,259.649292 399.104462,259.649292 
	C399.104462,253.436325 399.104462,248.199432 399.104462,242.375946 
	C394.848572,242.375946 390.897583,242.244644 386.959961,242.418030 
	C383.878815,242.553726 382.822968,241.251602 382.933563,238.297623 
	C383.080566,234.371399 382.969849,230.435532 382.969849,225.578934 
	C376.817108,226.098145 371.348114,226.559677 365.368988,227.580200 
	C364.918396,230.300659 364.011719,233.039825 364.122437,235.737244 
	C364.295013,239.941116 362.649963,241.236404 358.611877,241.111984 
	C355.791779,241.025070 352.942169,241.896255 349.994873,242.796280 
	C349.729889,243.183365 349.464935,243.570435 348.638489,244.584991 
	C348.906281,249.353790 349.174072,254.122589 349.863953,259.066803 
	C350.232483,259.336151 350.601044,259.605499 351.608521,260.409515 
	C354.575287,260.606750 357.587280,260.564453 360.488007,261.111755 
	C361.758850,261.351562 363.582458,262.639862 363.798279,263.722534 
	C364.370483,266.592346 364.045593,269.629059 364.407806,272.558563 
	C364.551666,273.722229 365.566406,274.778259 366.107056,275.884338 
	C366.107056,275.884338 366.123260,275.808502 366.249023,276.511536 
M427.133575,273.073425 
	C427.314941,273.731812 427.496338,274.390198 428.297516,275.686737 
	C433.540955,275.686737 438.784424,275.686737 444.709167,275.686737 
	C444.709167,270.220093 444.709167,265.030334 444.709167,259.421143 
	C450.480011,259.421143 455.564026,259.421143 460.912933,259.421143 
	C460.912933,253.530319 460.912933,248.078812 460.544006,241.984146 
	C459.026184,242.020203 457.508392,242.056244 455.264465,242.328445 
	C454.514160,242.248871 453.763855,242.169296 452.427673,241.587418 
	C447.217163,241.363815 445.251801,238.760880 445.892151,233.540268 
	C446.153198,231.411850 445.157074,229.129211 444.084930,226.440720 
	C439.378296,226.308884 434.670807,226.086365 429.965912,226.132446 
	C429.159698,226.140335 428.364716,227.293991 426.926605,228.318207 
	C426.634094,230.202530 425.959320,232.121536 426.126465,233.964172 
	C426.506378,238.153152 425.605713,241.253082 420.196808,242.341492 
	C419.143677,242.281281 418.090515,242.221085 416.563904,241.693924 
	C415.021362,241.899414 413.478821,242.104904 411.449158,242.935837 
	C411.277832,247.391647 411.749176,252.004288 410.713379,256.249176 
	C410.000885,259.169006 411.545654,259.083191 413.462219,260.346893 
	C416.218567,260.553192 418.979248,260.968506 421.730072,260.910919 
	C424.909790,260.844421 426.102386,262.091125 426.127441,265.273407 
	C426.142731,267.215881 427.065430,269.151245 427.730896,271.689575 
	C427.685577,272.096619 427.640228,272.503632 427.133575,273.073425 
z"/>
<path fill="#669AD2" opacity="1.000000" stroke="none" 
	d="
M314.013306,213.583282 
	C306.256744,218.656021 298.551697,223.467865 290.724854,228.072662 
	C277.985809,235.567444 265.167145,242.926849 251.812469,250.677551 
	C238.749603,258.178894 226.292679,265.410431 213.750656,272.491211 
	C204.988235,277.438141 196.109375,282.178864 187.282516,287.011688 
	C179.456635,275.574066 176.941879,262.569550 177.241180,249.130920 
	C177.981155,215.905777 200.760345,187.740189 232.952866,179.490768 
	C264.283600,171.462173 300.280304,186.445145 314.013306,213.583282 
z"/>
<path fill="#024581" opacity="1.000000" stroke="none" 
	d="
M187.288956,287.354919 
	C196.109375,282.178864 204.988235,277.438141 213.750656,272.491211 
	C226.292679,265.410431 238.749603,258.178894 251.586456,250.924377 
	C259.914642,255.703003 267.826599,260.693420 275.901001,265.405548 
	C287.751465,272.321350 299.723663,279.028442 311.623230,285.860565 
	C312.458771,286.340302 313.123322,287.117950 314.051788,288.079224 
	C302.804932,308.552979 285.037079,319.793213 262.719116,323.784851 
	C234.058792,328.910828 204.535889,315.398682 188.906464,290.764160 
	C188.290024,289.792542 187.828888,288.722382 187.288956,287.354919 
z"/>
<path fill="#F6F9FC" opacity="1.000000" stroke="none" 
	d="
M349.199951,243.957520 
	C349.464935,243.570435 349.729889,243.183365 350.510834,242.585953 
	C355.902557,242.375626 360.778320,242.375626 365.879120,242.375626 
	C365.879120,236.850754 365.879120,231.935989 365.879120,227.021210 
	C371.348114,226.559677 376.817108,226.098145 382.969849,225.578934 
	C382.969849,230.435532 383.080566,234.371399 382.933563,238.297623 
	C382.822968,241.251602 383.878815,242.553726 386.959961,242.418030 
	C390.897583,242.244644 394.848572,242.375946 399.104462,242.375946 
	C399.104462,248.199432 399.104462,253.436325 399.104462,259.649292 
	C395.693665,259.649292 392.268005,259.837982 388.872650,259.598022 
	C385.227020,259.340424 383.017548,260.599030 383.015625,264.396332 
	C383.014130,267.318207 383.581573,270.242920 383.535919,273.160736 
	C383.521271,274.098022 382.358246,275.017365 380.901855,275.962891 
	C375.429871,275.923401 370.776550,275.865967 366.123260,275.808533 
	C366.123260,275.808502 366.107056,275.884338 366.097626,275.425537 
	C366.088196,269.904938 366.088196,264.843170 366.088196,259.874817 
	C360.538574,259.874817 355.754089,259.874817 350.969604,259.874817 
	C350.601044,259.605499 350.232483,259.336151 349.682159,258.519348 
	C349.400208,253.300430 349.300079,248.628983 349.199951,243.957520 
z"/>
<path fill="#F6F9FB" opacity="1.000000" stroke="none" 
	d="
M417.037384,242.160889 
	C418.090515,242.221085 419.143677,242.281281 420.932068,242.374451 
	C423.603394,242.407410 425.539459,242.407410 427.564545,242.407410 
	C427.564545,237.155350 427.564545,232.536865 427.564545,227.918381 
	C428.364716,227.293991 429.159698,226.140335 429.965912,226.132446 
	C434.670807,226.086365 439.378296,226.308884 444.362518,227.152252 
	C444.640106,232.568954 444.640106,237.274109 444.640106,242.089722 
	C447.839844,242.089722 450.426697,242.089722 453.013550,242.089722 
	C453.763855,242.169296 454.514160,242.248871 456.023926,242.324860 
	C458.159912,242.423294 459.536438,242.525299 460.912933,242.627304 
	C460.912933,248.078812 460.912933,253.530319 460.912933,259.421143 
	C455.564026,259.421143 450.480011,259.421143 444.709167,259.421143 
	C444.709167,265.030334 444.709167,270.220093 444.709167,275.686737 
	C438.784424,275.686737 433.540955,275.686737 428.042786,275.009644 
	C427.723663,273.858582 427.659302,273.384613 427.594910,272.910675 
	C427.640228,272.503632 427.685577,272.096619 427.756470,270.934174 
	C427.782074,266.774933 427.782074,263.371094 427.782074,259.835144 
	C422.464172,259.835144 417.713287,259.835144 412.962402,259.835144 
	C411.545654,259.083191 410.000885,259.169006 410.713379,256.249176 
	C411.749176,252.004288 411.277832,247.391647 412.059418,242.687714 
	C414.125580,242.346695 415.581482,242.253784 417.037384,242.160889 
z"/>
<path fill="#236395" opacity="1.000000" stroke="none" 
	d="
M413.212311,260.091003 
	C417.713287,259.835144 422.464172,259.835144 427.782074,259.835144 
	C427.782074,263.371094 427.782074,266.774933 427.681305,270.634277 
	C427.065430,269.151245 426.142731,267.215881 426.127441,265.273407 
	C426.102386,262.091125 424.909790,260.844421 421.730072,260.910919 
	C418.979248,260.968506 416.218567,260.553192 413.212311,260.091003 
z"/>
<path fill="#0F5286" opacity="1.000000" stroke="none" 
	d="
M365.624054,227.300705 
	C365.879120,231.935989 365.879120,236.850754 365.879120,242.375626 
	C360.778320,242.375626 355.902557,242.375626 350.566284,242.357574 
	C352.942169,241.896255 355.791779,241.025070 358.611877,241.111984 
	C362.649963,241.236404 364.295013,239.941116 364.122437,235.737244 
	C364.011719,233.039825 364.918396,230.300659 365.624054,227.300705 
z"/>
<path fill="#175A8F" opacity="1.000000" stroke="none" 
	d="
M351.289062,260.142151 
	C355.754089,259.874817 360.538574,259.874817 366.088196,259.874817 
	C366.088196,264.843170 366.088196,269.904938 366.136414,275.424988 
	C365.566406,274.778259 364.551666,273.722229 364.407806,272.558563 
	C364.045593,269.629059 364.370483,266.592346 363.798279,263.722534 
	C363.582458,262.639862 361.758850,261.351562 360.488007,261.111755 
	C357.587280,260.564453 354.575287,260.606750 351.289062,260.142151 
z"/>
<path fill="#236496" opacity="1.000000" stroke="none" 
	d="
M427.245575,228.118286 
	C427.564545,232.536865 427.564545,237.155350 427.564545,242.407410 
	C425.539459,242.407410 423.603394,242.407410 421.318787,242.281097 
	C425.605713,241.253082 426.506378,238.153152 426.126465,233.964172 
	C425.959320,232.121536 426.634094,230.202530 427.245575,228.118286 
z"/>
<path fill="#08528B" opacity="1.000000" stroke="none" 
	d="
M452.720612,241.838562 
	C450.426697,242.089722 447.839844,242.089722 444.640106,242.089722 
	C444.640106,237.274109 444.640106,232.568954 444.686523,227.390259 
	C445.157074,229.129211 446.153198,231.411850 445.892151,233.540268 
	C445.251801,238.760880 447.217163,241.363815 452.720612,241.838562 
z"/>
<path fill="#175A8F" opacity="1.000000" stroke="none" 
	d="
M366.186157,276.160034 
	C370.776550,275.865967 375.429871,275.923401 380.539673,276.080536 
	C380.787689,276.427612 380.574799,276.894470 380.371460,276.890320 
	C375.663361,276.795013 370.956299,276.648529 366.186157,276.160034 
z"/>
<path fill="#175A8F" opacity="1.000000" stroke="none" 
	d="
M348.919220,244.271255 
	C349.300079,248.628983 349.400208,253.300430 349.471130,258.431641 
	C349.174072,254.122589 348.906281,249.353790 348.919220,244.271255 
z"/>
<path fill="#236496" opacity="1.000000" stroke="none" 
	d="
M416.800659,241.927399 
	C415.581482,242.253784 414.125580,242.346695 412.302979,242.375000 
	C413.478821,242.104904 415.021362,241.899414 416.800659,241.927399 
z"/>
<path fill="#08528B" opacity="1.000000" stroke="none" 
	d="
M460.728455,242.305725 
	C459.536438,242.525299 458.159912,242.423294 456.386993,242.206787 
	C457.508392,242.056244 459.026184,242.020203 460.728455,242.305725 
z"/>
<path fill="#236395" opacity="1.000000" stroke="none" 
	d="
M427.364258,272.992065 
	C427.659302,273.384613 427.723663,273.858582 427.732849,274.690552 
	C427.496338,274.390198 427.314941,273.731812 427.364258,272.992065 
z"/>
</svg>