<svg version="1.1" id="Layer_1" xmlns="http://www.w3.org/2000/svg" xmlns:xlink="http://www.w3.org/1999/xlink" x="0px" y="0px"
	 width="100%" viewBox="0 0 500 500" enable-background="new 0 0 500 500" xml:space="preserve">
<path fill="#2296F2" opacity="1.000000" stroke="none" 
	d="
M252.000000,501.000000 
	C251.555557,501.000000 251.111099,501.000000 250.085922,500.722168 
	C226.640030,493.981903 203.786362,487.478455 180.907059,481.066498 
	C146.309540,471.370514 111.712067,461.672974 77.060272,452.174164 
	C73.358635,451.159485 72.083580,449.558258 71.851509,445.803802 
	C71.224640,435.662048 70.125198,425.549713 69.227394,415.424438 
	C65.548897,373.938873 61.859383,332.454285 58.206730,290.966431 
	C56.089619,266.919739 54.056919,242.865646 51.945316,218.818451 
	C50.212757,199.087830 48.442543,179.360413 46.647278,159.635391 
	C44.807140,139.417297 42.882103,119.206902 41.057060,98.987480 
	C39.156757,77.934265 37.265102,56.879856 35.499825,35.815063 
	C34.528271,24.221630 33.824497,12.605757 33.000000,1.000000 
	C178.024078,1.000000 323.048157,1.000000 468.667542,1.446057 
	C467.546722,21.622015 465.860504,41.354568 464.108093,61.081245 
	C460.810699,98.199646 457.473175,135.314468 454.156067,172.431122 
	C450.497253,213.371292 446.807709,254.308762 443.195099,295.253021 
	C438.774261,345.356842 434.356445,395.461182 430.154266,445.583496 
	C429.813904,449.643311 428.409088,451.193909 424.644073,452.234070 
	C380.566376,464.411407 336.521912,476.709991 292.498444,489.082428 
	C278.952454,492.889404 265.496948,497.018433 252.000000,501.000000 
M239.500000,145.019608 
	C269.431244,145.019608 299.362488,145.019608 329.561340,145.019608 
	C328.182617,163.659744 326.847351,181.712402 325.470032,200.333389 
	C257.243866,201.159882 189.513550,201.980377 121.333450,202.806320 
	C123.246696,220.848282 125.078911,238.126160 126.907791,255.372589 
	C191.902451,255.372589 256.170044,255.372589 320.699219,255.372589 
	C318.054443,279.626129 315.383514,303.757111 312.842590,327.901794 
	C312.541260,330.764984 311.145660,331.733795 308.570221,332.413635 
	C290.574768,337.164124 272.639221,342.142792 254.628052,346.831573 
	C252.198334,347.464081 249.314133,347.415741 246.875854,346.779816 
	C229.186005,342.166290 211.576385,337.245392 193.890274,332.617065 
	C190.618683,331.760925 189.348785,330.189117 189.098465,326.869873 
	C188.171524,314.578796 186.814682,302.318329 186.014145,290.020660 
	C185.754883,286.037720 184.341339,285.008911 180.550125,285.067017 
	C167.222504,285.271301 153.889954,285.154480 140.559280,285.158936 
	C137.114838,285.160095 133.670380,285.159088 130.142639,285.159088 
	C130.142639,288.316528 129.956573,290.808380 130.171295,293.265198 
	C132.403107,318.800720 134.769485,344.324829 136.894440,369.869049 
	C137.179169,373.291901 138.443512,374.681061 141.690720,375.570679 
	C176.811752,385.192169 211.882294,394.997986 246.997726,404.640198 
	C249.146225,405.230133 251.713501,405.436371 253.822449,404.858887 
	C289.744843,395.022400 325.634705,385.066040 361.481171,374.956818 
	C362.874390,374.563904 364.617462,372.466187 364.758270,371.022522 
	C366.680939,351.306000 368.347229,331.564484 370.081543,311.829559 
	C371.814880,292.106201 373.509399,272.379303 375.301392,252.661270 
	C377.485016,228.634552 379.782898,204.618240 381.974762,180.592255 
	C383.880096,159.706635 385.716705,138.814713 387.562988,117.923744 
	C388.287445,109.726341 388.955475,101.523949 389.662018,93.172394 
	C296.929565,93.172394 204.859711,93.172394 112.256241,93.172394 
	C113.462463,110.661758 114.644966,127.807213 115.832207,145.021347 
	C157.249100,145.021347 197.874542,145.021347 239.500000,145.019608 
z"/>
<path fill="#FEFFFF" opacity="1.000000" stroke="none" 
	d="
M252.468658,501.000000 
	C265.496948,497.018433 278.952454,492.889404 292.498444,489.082428 
	C336.521912,476.709991 380.566376,464.411407 424.644073,452.234070 
	C428.409088,451.193909 429.813904,449.643311 430.154266,445.583496 
	C434.356445,395.461182 438.774261,345.356842 443.195099,295.253021 
	C446.807709,254.308762 450.497253,213.371292 454.156067,172.431122 
	C457.473175,135.314468 460.810699,98.199646 464.108093,61.081245 
	C465.860504,41.354568 467.546722,21.622015 469.131409,1.446057 
	C479.660675,1.000000 490.321381,1.000000 500.986542,1.000000 
	C500.991028,167.567276 500.991028,334.134552 500.991028,501.000000 
	C418.312683,501.000000 335.625000,501.000000 252.468658,501.000000 
z"/>
<path fill="#FEFFFF" opacity="1.000000" stroke="none" 
	d="
M32.531342,1.000000 
	C33.824497,12.605757 34.528271,24.221630 35.499825,35.815063 
	C37.265102,56.879856 39.156757,77.934265 41.057060,98.987480 
	C42.882103,119.206902 44.807140,139.417297 46.647278,159.635391 
	C48.442543,179.360413 50.212757,199.087830 51.945316,218.818451 
	C54.056919,242.865646 56.089619,266.919739 58.206730,290.966431 
	C61.859383,332.454285 65.548897,373.938873 69.227394,415.424438 
	C70.125198,425.549713 71.224640,435.662048 71.851509,445.803802 
	C72.083580,449.558258 73.358635,451.159485 77.060272,452.174164 
	C111.712067,461.672974 146.309540,471.370514 180.907059,481.066498 
	C203.786362,487.478455 226.640030,493.981903 249.752594,500.722168 
	C167.046509,501.000000 84.093025,501.000000 1.069770,501.000000 
	C1.069770,334.333344 1.069770,167.666672 1.074874,1.000005 
	C11.407546,1.000000 21.735115,1.000000 32.531342,1.000000 
z"/>
<path fill="#FEFFFF" opacity="1.000000" stroke="none" 
	d="
M239.000000,145.020477 
	C197.874542,145.021347 157.249100,145.021347 115.832207,145.021347 
	C114.644966,127.807213 113.462463,110.661758 112.256241,93.172394 
	C204.859711,93.172394 296.929565,93.172394 389.662018,93.172394 
	C388.955475,101.523949 388.287445,109.726341 387.562988,117.923744 
	C385.716705,138.814713 383.880096,159.706635 381.974762,180.592255 
	C379.782898,204.618240 377.485016,228.634552 375.301392,252.661270 
	C373.509399,272.379303 371.814880,292.106201 370.081543,311.829559 
	C368.347229,331.564484 366.680939,351.306000 364.758270,371.022522 
	C364.617462,372.466187 362.874390,374.563904 361.481171,374.956818 
	C325.634705,385.066040 289.744843,395.022400 253.822449,404.858887 
	C251.713501,405.436371 249.146225,405.230133 246.997726,404.640198 
	C211.882294,394.997986 176.811752,385.192169 141.690720,375.570679 
	C138.443512,374.681061 137.179169,373.291901 136.894440,369.869049 
	C134.769485,344.324829 132.403107,318.800720 130.171295,293.265198 
	C129.956573,290.808380 130.142639,288.316528 130.142639,285.159088 
	C133.670380,285.159088 137.114838,285.160095 140.559280,285.158936 
	C153.889954,285.154480 167.222504,285.271301 180.550125,285.067017 
	C184.341339,285.008911 185.754883,286.037720 186.014145,290.020660 
	C186.814682,302.318329 188.171524,314.578796 189.098465,326.869873 
	C189.348785,330.189117 190.618683,331.760925 193.890274,332.617065 
	C211.576385,337.245392 229.186005,342.166290 246.875854,346.779816 
	C249.314133,347.415741 252.198334,347.464081 254.628052,346.831573 
	C272.639221,342.142792 290.574768,337.164124 308.570221,332.413635 
	C311.145660,331.733795 312.541260,330.764984 312.842590,327.901794 
	C315.383514,303.757111 318.054443,279.626129 320.699219,255.372589 
	C256.170044,255.372589 191.902451,255.372589 126.907791,255.372589 
	C125.078911,238.126160 123.246696,220.848282 121.333450,202.806320 
	C189.513550,201.980377 257.243866,201.159882 325.470032,200.333389 
	C326.847351,181.712402 328.182617,163.659744 329.561340,145.019608 
	C299.362488,145.019608 269.431244,145.019608 239.000000,145.020477 
z"/>
</svg>