<svg version="1.1" id="Layer_1" xmlns="http://www.w3.org/2000/svg" xmlns:xlink="http://www.w3.org/1999/xlink" x="0px" y="0px"
	 width="100%" viewBox="0 0 500 500" enable-background="new 0 0 500 500" xml:space="preserve">
<path fill="#FE4C01" opacity="1.000000" stroke="none" 
	d="
M251.000000,1.000000 
	C324.354218,1.000000 397.708466,1.000000 471.476318,1.432198 
	C470.465210,22.461292 469.051880,43.058979 467.612427,63.654850 
	C466.254852,83.079796 464.875732,102.503258 463.495270,121.926598 
	C461.985962,143.162216 460.457153,164.396454 458.950134,185.632248 
	C457.843384,201.227173 456.799957,216.826691 455.652649,232.418594 
	C454.127777,253.142044 452.460175,273.855164 450.981842,294.581848 
	C449.479340,315.647064 448.208099,336.728821 446.697601,357.793427 
	C444.889221,383.012817 442.765472,408.211273 441.209137,433.445374 
	C440.948822,437.665710 439.465485,438.977081 435.861298,440.150726 
	C396.752991,452.885773 357.704865,465.805603 318.628326,478.638458 
	C296.752136,485.822662 274.853485,492.938507 252.644531,499.865540 
	C251.887604,497.621521 251.080719,495.598877 251.071274,493.572449 
	C250.964737,470.709808 250.980591,447.846588 251.303146,424.837769 
	C257.307770,422.763702 262.963837,420.808533 268.639374,418.911407 
	C301.300690,407.994019 333.948883,397.036591 366.656647,386.259918 
	C370.177155,385.099915 371.848419,383.479309 371.921326,379.686218 
	C372.026672,374.202118 372.614380,368.727356 372.994263,363.248444 
	C374.432953,342.498566 375.817902,321.744781 377.322693,300.999725 
	C379.116455,276.270294 381.037903,251.550110 382.847229,226.821762 
	C383.315491,220.421860 383.571533,214.006439 383.957733,207.006119 
	C381.309570,207.006119 379.349701,207.005905 377.389832,207.006165 
	C345.412048,207.010391 313.434204,207.034439 281.456451,207.007462 
	C271.303955,206.998886 261.151581,206.854385 251.012192,206.318588 
	C251.022217,184.242157 250.994019,162.619125 251.053146,140.996368 
	C251.059433,138.700211 251.577393,136.405457 252.328644,134.023163 
	C259.125488,133.923264 265.451691,133.899628 271.777863,133.899033 
	C309.237061,133.895508 346.696289,133.888931 384.155487,133.913528 
	C387.097809,133.915466 389.587097,134.224823 389.814911,129.823944 
	C390.502808,116.534592 391.729370,103.274063 392.556244,89.990479 
	C392.851379,85.249382 392.603546,80.474495 392.603546,75.101181 
	C390.196320,75.101181 387.740662,75.101158 385.285004,75.101189 
	C342.498260,75.101723 299.711517,75.105965 256.924774,75.091095 
	C254.935394,75.090401 252.946091,74.918755 250.974365,74.369232 
	C250.994659,49.607830 250.997330,25.303915 251.000000,1.000000 
z"/>
<path fill="#FD7816" opacity="1.000000" stroke="none" 
	d="
M250.531342,1.000000 
	C250.997330,25.303915 250.994659,49.607830 250.520203,74.462326 
	C205.079483,75.030121 160.110519,75.036041 115.141655,75.104065 
	C113.260918,75.106911 111.381050,75.688911 109.371124,76.403358 
	C109.379951,78.189911 109.518440,79.574203 109.556778,81.371483 
	C110.039925,88.156288 110.623222,94.528114 111.134895,101.343994 
	C111.261154,103.862740 111.459038,105.937431 111.534470,108.358780 
	C111.632217,110.115883 111.852425,111.526321 111.998856,113.359970 
	C112.080063,114.909447 112.235054,116.035698 112.276749,117.563354 
	C112.458832,120.614639 112.754196,123.264519 112.969116,126.271538 
	C112.970291,127.105797 113.051918,127.582924 113.065796,128.283432 
	C112.998062,128.506821 113.199890,128.927795 113.129814,129.368134 
	C113.221519,131.871750 113.383301,133.934998 113.442520,136.351379 
	C113.587715,138.111740 113.835457,139.518997 113.995033,141.360626 
	C114.075989,143.253983 114.245110,144.712967 114.309258,146.580078 
	C114.524742,149.954559 114.845207,152.920898 115.081123,156.317291 
	C115.114754,158.197495 115.232941,159.647629 115.262238,161.392609 
	C115.245811,162.085846 115.318268,162.484253 115.331886,163.238190 
	C115.379524,164.057098 115.486015,164.520462 115.493668,165.395615 
	C116.052628,173.821747 116.710419,181.836090 117.307945,190.247192 
	C117.384361,191.426239 117.521034,192.208542 117.539490,193.400818 
	C117.903748,198.592865 118.386238,203.374939 118.820862,208.395828 
	C118.773003,208.634644 118.977379,209.076797 118.879532,209.512390 
	C118.982780,212.922867 119.183861,215.897766 119.318283,219.261902 
	C119.385353,220.420700 119.519089,221.190292 119.529922,222.308777 
	C119.652626,224.083420 119.898239,225.509140 120.058533,227.291626 
	C120.062706,228.124603 120.152184,228.600800 120.140900,229.510284 
	C120.737450,239.910675 121.729317,249.869598 122.006630,259.848358 
	C122.143364,264.768433 123.953575,265.858063 128.560806,265.838257 
	C167.377426,265.671539 206.195068,265.737732 245.012405,265.754944 
	C247.002014,265.755829 248.991547,265.948944 251.000595,266.517578 
	C250.986069,298.617615 250.952057,330.252625 250.561890,361.972839 
	C249.475555,362.026855 248.745361,361.995636 247.735687,361.737091 
	C231.195404,356.106995 215.101807,350.098999 198.607315,345.542023 
	C189.578796,343.047668 184.692795,339.139313 185.763824,329.423187 
	C186.149628,325.923279 184.235123,325.001282 180.919617,325.028900 
	C164.441666,325.166077 147.961990,325.087494 131.482971,325.116272 
	C130.200714,325.118500 128.918884,325.362000 127.240585,325.533997 
	C127.240585,327.579620 127.129387,329.373138 127.257980,331.149261 
	C128.399567,346.917023 129.847992,362.669159 130.598694,378.454773 
	C130.832825,383.377838 132.763977,385.151428 137.094238,386.565674 
	C174.029114,398.628784 210.891083,410.915222 247.997345,423.352905 
	C249.134399,424.041840 250.048996,424.512695 250.963593,424.983521 
	C250.980591,447.846588 250.964737,470.709808 251.071274,493.572449 
	C251.080719,495.598877 251.887604,497.621521 252.635254,500.094604 
	C252.946396,500.543274 253.000000,501.000000 253.000000,501.000000 
	C252.250000,501.000000 251.500000,501.000000 250.227310,500.659851 
	C242.305191,497.848175 234.914490,495.350128 227.504913,492.909393 
	C173.688400,475.182098 119.874992,457.445343 66.031227,439.801239 
	C62.924297,438.783112 61.515522,437.334595 61.301804,433.907990 
	C60.005840,413.129608 58.484783,392.365173 57.022705,371.597198 
	C55.268665,346.682129 53.526863,321.766144 51.726398,296.854401 
	C50.214676,275.937775 48.573734,255.030411 47.086838,234.112076 
	C45.600166,213.196899 44.277637,192.270111 42.802254,171.354095 
	C41.291595,149.938049 39.677639,128.529312 38.118458,107.116661 
	C36.595154,86.196671 35.013783,65.280556 33.591553,44.353661 
	C32.609962,29.910440 31.855797,15.451767 31.000000,1.000000 
	C104.020897,1.000000 177.041794,1.000000 250.531342,1.000000 
z"/>
<path fill="#FFFFFE" opacity="1.000000" stroke="none" 
	d="
M30.531342,1.000000 
	C31.855797,15.451767 32.609962,29.910440 33.591553,44.353661 
	C35.013783,65.280556 36.595154,86.196671 38.118458,107.116661 
	C39.677639,128.529312 41.291595,149.938049 42.802254,171.354095 
	C44.277637,192.270111 45.600166,213.196899 47.086838,234.112076 
	C48.573734,255.030411 50.214676,275.937775 51.726398,296.854401 
	C53.526863,321.766144 55.268665,346.682129 57.022705,371.597198 
	C58.484783,392.365173 60.005840,413.129608 61.301804,433.907990 
	C61.515522,437.334595 62.924297,438.783112 66.031227,439.801239 
	C119.874992,457.445343 173.688400,475.182098 227.504913,492.909393 
	C234.914490,495.350128 242.305191,497.848175 249.852310,500.659851 
	C167.046631,501.000000 84.093262,501.000000 1.069948,501.000000 
	C1.069948,334.333344 1.069948,167.666672 1.074427,1.000005 
	C10.740166,1.000000 20.401424,1.000000 30.531342,1.000000 
z"/>
<path fill="#FFFFFE" opacity="1.000000" stroke="none" 
	d="
M253.468658,501.000000 
	C253.000000,501.000000 252.946396,500.543274 252.955688,500.314209 
	C274.853485,492.938507 296.752136,485.822662 318.628326,478.638458 
	C357.704865,465.805603 396.752991,452.885773 435.861298,440.150726 
	C439.465485,438.977081 440.948822,437.665710 441.209137,433.445374 
	C442.765472,408.211273 444.889221,383.012817 446.697601,357.793427 
	C448.208099,336.728821 449.479340,315.647064 450.981842,294.581848 
	C452.460175,273.855164 454.127777,253.142044 455.652649,232.418594 
	C456.799957,216.826691 457.843384,201.227173 458.950134,185.632248 
	C460.457153,164.396454 461.985962,143.162216 463.495270,121.926598 
	C464.875732,102.503258 466.254852,83.079796 467.612427,63.654850 
	C469.051880,43.058979 470.465210,22.461292 471.944977,1.432198 
	C481.661224,1.000000 491.322449,1.000000 500.987732,1.000000 
	C500.991821,167.567307 500.991821,334.134613 500.991821,501.000000 
	C418.646027,501.000000 336.291656,501.000000 253.468658,501.000000 
z"/>
<path fill="#E5E1E4" opacity="1.000000" stroke="none" 
	d="
M251.303146,424.837769 
	C250.048996,424.512695 249.134399,424.041840 248.387726,423.250336 
	C249.371887,420.994080 250.876282,419.065826 250.897003,417.121735 
	C251.085724,399.419647 251.015900,381.714813 251.412384,363.994781 
	C258.263092,361.983826 264.743958,360.053711 271.177582,357.977264 
	C278.896301,355.486053 286.439178,352.215851 294.327240,350.581482 
	C298.330872,349.751923 301.753845,349.546051 303.543213,345.448669 
	C303.551575,345.460785 303.579987,345.468628 304.013245,345.574097 
	C311.678131,345.845703 317.259094,343.630951 317.564758,339.578918 
	C317.977844,334.102509 317.277710,328.542084 316.945679,322.621155 
	C316.993011,321.149994 317.149872,320.075378 317.594727,318.804810 
	C318.558136,316.595062 319.705414,314.610687 319.832642,312.562897 
	C320.677521,298.964203 321.442474,285.357025 321.946533,271.742004 
	C322.224213,264.242279 321.754578,264.005859 314.014832,264.001862 
	C293.023773,263.991028 272.032715,263.994720 251.035309,263.524475 
	C251.020386,246.761673 250.867554,230.465012 251.091614,214.173553 
	C251.158340,209.321533 249.424820,207.877731 244.715408,207.923782 
	C224.764633,208.118927 204.810745,208.035904 184.858307,207.967377 
	C182.580734,207.959564 180.305038,207.404129 178.492645,207.048950 
	C202.970917,206.920883 226.985031,206.846481 250.999146,206.772079 
	C261.151581,206.854385 271.303955,206.998886 281.456451,207.007462 
	C313.434204,207.034439 345.412048,207.010391 377.389832,207.006165 
	C379.349701,207.005905 381.309570,207.006119 383.957733,207.006119 
	C383.571533,214.006439 383.315491,220.421860 382.847229,226.821762 
	C381.037903,251.550110 379.116455,276.270294 377.322693,300.999725 
	C375.817902,321.744781 374.432953,342.498566 372.994263,363.248444 
	C372.614380,368.727356 372.026672,374.202118 371.921326,379.686218 
	C371.848419,383.479309 370.177155,385.099915 366.656647,386.259918 
	C333.948883,397.036591 301.300690,407.994019 268.639374,418.911407 
	C262.963837,420.808533 257.307770,422.763702 251.303146,424.837769 
z"/>
<path fill="#E5E0E2" opacity="1.000000" stroke="none" 
	d="
M109.500778,76.001099 
	C111.381050,75.688911 113.260918,75.106911 115.141655,75.104065 
	C160.110519,75.036041 205.079483,75.030121 250.502594,74.919815 
	C252.946091,74.918755 254.935394,75.090401 256.924774,75.091095 
	C299.711517,75.105965 342.498260,75.101723 385.285004,75.101189 
	C387.740662,75.101158 390.196320,75.101181 392.603546,75.101181 
	C392.603546,80.474495 392.851379,85.249382 392.556244,89.990479 
	C391.729370,103.274063 390.502808,116.534592 389.814911,129.823944 
	C389.587097,134.224823 387.097809,133.915466 384.155487,133.913528 
	C346.696289,133.888931 309.237061,133.895508 271.777863,133.899033 
	C265.451691,133.899628 259.125488,133.923264 251.884216,133.935089 
	C224.995956,133.865143 199.022781,133.796387 173.418762,133.558105 
	C175.937286,133.242355 178.086441,132.972275 180.236008,132.969040 
	C201.382431,132.937302 222.528900,132.955185 243.675369,132.947021 
	C250.979675,132.944214 250.996567,132.928955 251.002823,125.825539 
	C251.015137,111.838913 251.010544,97.852264 251.005341,83.865631 
	C251.002441,76.057922 250.995560,76.042549 243.372437,76.039619 
	C198.748550,76.022469 154.124664,76.013092 109.500778,76.001099 
z"/>
<path fill="#FD7817" opacity="1.000000" stroke="none" 
	d="
M173.049591,133.727615 
	C199.022781,133.796387 224.995956,133.865143 251.413574,134.021988 
	C251.577393,136.405457 251.059433,138.700211 251.053146,140.996368 
	C250.994019,162.619125 251.022217,184.242157 251.012192,206.318588 
	C226.985031,206.846481 202.970917,206.920883 178.209320,206.729645 
	C175.730576,182.980774 173.990707,159.498199 172.307785,136.011536 
	C172.254776,135.271759 172.789078,134.489868 173.049591,133.727615 
z"/>
<path fill="#EDECF0" opacity="1.000000" stroke="none" 
	d="
M173.418762,133.558105 
	C172.789078,134.489868 172.254776,135.271759 172.307785,136.011536 
	C173.990707,159.498199 175.730576,182.980774 177.745148,206.783295 
	C180.305038,207.404129 182.580734,207.959564 184.858307,207.967377 
	C204.810745,208.035904 224.764633,208.118927 244.715408,207.923782 
	C249.424820,207.877731 251.158340,209.321533 251.091614,214.173553 
	C250.867554,230.465012 251.020386,246.761673 250.665955,263.715576 
	C249.659729,264.529816 249.016647,264.819855 248.373276,264.820526 
	C208.483521,264.861633 168.593750,264.868683 128.704025,264.919098 
	C125.633293,264.923004 124.084023,263.544464 123.839439,260.533051 
	C123.235870,253.101898 122.706299,245.662796 121.951645,238.246750 
	C121.637955,235.164093 120.826668,232.132065 120.241661,229.077011 
	C120.152184,228.600800 120.062706,228.124603 120.223984,227.025208 
	C120.200768,224.921295 119.926796,223.440582 119.652824,221.959869 
	C119.519089,221.190292 119.385353,220.420700 119.462471,218.910126 
	C119.441338,215.138351 119.209358,212.107574 118.977379,209.076797 
	C118.977379,209.076797 118.773003,208.634644 118.877380,207.926498 
	C118.540421,202.475845 118.099068,197.733353 117.657715,192.990845 
	C117.521034,192.208542 117.384361,191.426239 117.456284,189.885681 
	C116.974091,181.079559 116.283295,173.031693 115.592499,164.983826 
	C115.486015,164.520462 115.379524,164.057098 115.435219,163.072739 
	C115.515305,162.067078 115.433212,161.582428 115.351120,161.097763 
	C115.232941,159.647629 115.114754,158.197495 115.254120,156.009705 
	C115.145859,152.238693 114.780045,149.205307 114.414238,146.171936 
	C114.245110,144.712967 114.075989,143.253983 114.171608,141.097931 
	C114.139259,138.933319 113.842171,137.465790 113.545074,135.998260 
	C113.383301,133.934998 113.221519,131.871750 113.200867,129.266098 
	C113.413254,128.459656 113.343765,128.238434 113.133537,128.060043 
	C113.051918,127.582924 112.970291,127.105797 113.152344,125.981689 
	C113.074028,122.610451 112.732033,119.886200 112.390038,117.161957 
	C112.235054,116.035698 112.080063,114.909447 112.174179,113.098824 
	C112.167824,110.947014 111.912369,109.479568 111.656921,108.012123 
	C111.459038,105.937431 111.261154,103.862740 111.304909,101.009262 
	C110.916672,93.806480 110.286797,87.382492 109.656921,80.958496 
	C109.518440,79.574203 109.379951,78.189911 109.371124,76.403351 
	C154.124664,76.013092 198.748550,76.022469 243.372437,76.039619 
	C250.995560,76.042549 251.002441,76.057922 251.005341,83.865631 
	C251.010544,97.852264 251.015137,111.838913 251.002823,125.825539 
	C250.996567,132.928955 250.979675,132.944214 243.675369,132.947021 
	C222.528900,132.955185 201.382431,132.937302 180.236008,132.969040 
	C178.086441,132.972275 175.937286,133.242355 173.418762,133.558105 
z"/>
<path fill="#EEEBEE" opacity="1.000000" stroke="none" 
	d="
M251.021637,364.010773 
	C251.015900,381.714813 251.085724,399.419647 250.897003,417.121735 
	C250.876282,419.065826 249.371887,420.994080 248.165268,423.032227 
	C210.891083,410.915222 174.029114,398.628784 137.094238,386.565674 
	C132.763977,385.151428 130.832825,383.377838 130.598694,378.454773 
	C129.847992,362.669159 128.399567,346.917023 127.257980,331.149261 
	C127.129387,329.373138 127.240585,327.579620 127.240585,325.533997 
	C128.918884,325.362000 130.200714,325.118500 131.482971,325.116272 
	C147.961990,325.087494 164.441666,325.166077 180.919617,325.028900 
	C184.235123,325.001282 186.149628,325.923279 185.763824,329.423187 
	C184.692795,339.139313 189.578796,343.047668 198.607315,345.542023 
	C215.101807,350.098999 231.195404,356.106995 247.956207,361.944763 
	C249.311356,362.923462 250.166504,363.467102 251.021637,364.010773 
z"/>
<path fill="#FD4C02" opacity="1.000000" stroke="none" 
	d="
M317.306702,319.000793 
	C317.149872,320.075378 316.993011,321.149994 316.792114,323.006317 
	C316.662354,324.770172 316.437988,325.762939 316.512360,326.732788 
	C317.260345,336.485901 314.866760,344.036407 303.579987,345.468628 
	C303.579987,345.468628 303.551575,345.460785 303.168091,345.487457 
	C294.149384,348.349152 285.538483,351.261261 276.872009,353.997375 
	C268.249725,356.719513 259.571655,359.264801 250.918030,361.887634 
	C250.952057,330.252625 250.986069,298.617615 251.456238,266.386963 
	C271.041840,265.760223 290.191284,265.721283 309.340729,265.700958 
	C321.223419,265.688324 320.983490,265.737610 319.950867,277.679108 
	C318.762115,291.426422 318.162292,305.224670 317.306702,319.000793 
z"/>
<path fill="#E5E0E2" opacity="1.000000" stroke="none" 
	d="
M317.594727,318.804810 
	C318.162292,305.224670 318.762115,291.426422 319.950867,277.679108 
	C320.983490,265.737610 321.223419,265.688324 309.340729,265.700958 
	C290.191284,265.721283 271.041840,265.760223 251.436737,265.921936 
	C248.991547,265.948944 247.002014,265.755829 245.012405,265.754944 
	C206.195068,265.737732 167.377426,265.671539 128.560806,265.838257 
	C123.953575,265.858063 122.143364,264.768433 122.006630,259.848358 
	C121.729317,249.869598 120.737450,239.910675 120.140900,229.510284 
	C120.826668,232.132065 121.637955,235.164093 121.951645,238.246750 
	C122.706299,245.662796 123.235870,253.101898 123.839439,260.533051 
	C124.084023,263.544464 125.633293,264.923004 128.704025,264.919098 
	C168.593750,264.868683 208.483521,264.861633 248.373276,264.820526 
	C249.016647,264.819855 249.659729,264.529816 250.672302,264.183716 
	C272.032715,263.994720 293.023773,263.991028 314.014832,264.001862 
	C321.754578,264.005859 322.224213,264.242279 321.946533,271.742004 
	C321.442474,285.357025 320.677521,298.964203 319.832642,312.562897 
	C319.705414,314.610687 318.558136,316.595062 317.594727,318.804810 
z"/>
<path fill="#E5E0E2" opacity="1.000000" stroke="none" 
	d="
M250.561890,361.972839 
	C259.571655,359.264801 268.249725,356.719513 276.872009,353.997375 
	C285.538483,351.261261 294.149384,348.349152 303.159729,345.475342 
	C301.753845,349.546051 298.330872,349.751923 294.327240,350.581482 
	C286.439178,352.215851 278.896301,355.486053 271.177582,357.977264 
	C264.743958,360.053711 258.263092,361.983826 251.412384,363.994781 
	C250.166504,363.467102 249.311356,362.923462 248.235703,362.172119 
	C248.745361,361.995636 249.475555,362.026855 250.561890,361.972839 
z"/>
<path fill="#E5E0E2" opacity="1.000000" stroke="none" 
	d="
M115.493668,165.395615 
	C116.283295,173.031693 116.974091,181.079559 117.516548,189.488922 
	C116.710419,181.836090 116.052628,173.821747 115.493668,165.395615 
z"/>
<path fill="#E5E0E2" opacity="1.000000" stroke="none" 
	d="
M109.556778,81.371483 
	C110.286797,87.382492 110.916672,93.806480 111.376534,100.565201 
	C110.623222,94.528114 110.039925,88.156288 109.556778,81.371483 
z"/>
<path fill="#E5E0E2" opacity="1.000000" stroke="none" 
	d="
M117.539490,193.400818 
	C118.099068,197.733353 118.540421,202.475845 118.925247,207.687683 
	C118.386238,203.374939 117.903748,198.592865 117.539490,193.400818 
z"/>
<path fill="#E5E0E2" opacity="1.000000" stroke="none" 
	d="
M114.309258,146.580078 
	C114.780045,149.205307 115.145859,152.238693 115.338669,155.579651 
	C114.845207,152.920898 114.524742,149.954559 114.309258,146.580078 
z"/>
<path fill="#E5E0E2" opacity="1.000000" stroke="none" 
	d="
M112.276749,117.563354 
	C112.732033,119.886200 113.074028,122.610451 113.232796,125.624542 
	C112.754196,123.264519 112.458832,120.614639 112.276749,117.563354 
z"/>
<path fill="#E5E0E2" opacity="1.000000" stroke="none" 
	d="
M113.442520,136.351379 
	C113.842171,137.465790 114.139259,138.933319 114.259773,140.663544 
	C113.835457,139.518997 113.587715,138.111740 113.442520,136.351379 
z"/>
<path fill="#E5E0E2" opacity="1.000000" stroke="none" 
	d="
M118.879532,209.512390 
	C119.209358,212.107574 119.441338,215.138351 119.529129,218.520905 
	C119.183861,215.897766 118.982780,212.922867 118.879532,209.512390 
z"/>
<path fill="#E5E0E2" opacity="1.000000" stroke="none" 
	d="
M111.534462,108.358780 
	C111.912369,109.479568 112.167824,110.947014 112.247948,112.675613 
	C111.852425,111.526321 111.632217,110.115883 111.534462,108.358780 
z"/>
<path fill="#E5E0E2" opacity="1.000000" stroke="none" 
	d="
M119.529922,222.308777 
	C119.926796,223.440582 120.200768,224.921295 120.309296,226.668427 
	C119.898239,225.509140 119.652626,224.083420 119.529922,222.308777 
z"/>
<path fill="#E5E0E2" opacity="1.000000" stroke="none" 
	d="
M115.262238,161.392609 
	C115.433212,161.582428 115.515305,162.067078 115.494064,162.717194 
	C115.318268,162.484253 115.245811,162.085846 115.262238,161.392609 
z"/>
<path fill="#E5E0E2" opacity="1.000000" stroke="none" 
	d="
M113.065796,128.283432 
	C113.343765,128.238434 113.413254,128.459656 113.270935,128.825745 
	C113.199890,128.927795 112.998062,128.506821 113.065796,128.283432 
z"/>
<path fill="#E5E0E2" opacity="1.000000" stroke="none" 
	d="
M304.013245,345.574097 
	C314.866760,344.036407 317.260345,336.485901 316.512360,326.732788 
	C316.437988,325.762939 316.662354,324.770172 316.901642,323.402893 
	C317.277710,328.542084 317.977844,334.102509 317.564758,339.578918 
	C317.259094,343.630951 311.678131,345.845703 304.013245,345.574097 
z"/>
</svg>