<svg version="1.1" id="Layer_1" xmlns="http://www.w3.org/2000/svg" xmlns:xlink="http://www.w3.org/1999/xlink" x="0px" y="0px"
	 width="100%" viewBox="0 0 500 500" enable-background="new 0 0 500 500" xml:space="preserve">
<path fill="#FFFFFF" opacity="1.000000" stroke="none" 
	d="
M239.000000,501.000000 
	C159.700104,501.000000 80.400215,501.000000 1.050161,501.000000 
	C1.050161,334.437042 1.050161,167.874069 1.050161,1.000000 
	C99.354546,1.000000 197.709427,1.000000 296.471375,1.387853 
	C296.264954,3.701070 295.175232,5.613394 295.122101,7.554104 
	C294.913574,15.170294 295.882233,22.912249 294.854584,30.393322 
	C292.603638,46.779392 287.813843,62.518696 274.560303,73.616684 
	C262.965668,83.325554 250.673843,92.223801 238.460037,101.166039 
	C221.037872,113.921539 204.572144,127.509621 192.602005,145.906982 
	C182.187378,161.913605 177.217728,178.987122 183.151749,197.541626 
	C186.408447,207.724716 191.071899,217.699142 196.602097,226.861679 
	C206.848053,243.837418 220.952621,257.639130 236.189743,270.203278 
	C237.799423,271.530579 240.532516,271.495483 242.744415,272.092438 
	C242.804611,269.663635 242.954178,267.231781 242.872223,264.807770 
	C242.846573,264.049347 242.189240,263.315613 241.833649,262.564575 
	C231.463684,240.661972 223.500320,218.020782 219.222656,194.049454 
	C216.434952,178.427643 219.746414,165.430206 232.084778,155.039368 
	C238.707825,149.461700 245.229095,143.758896 251.686432,137.989594 
	C265.588318,125.568947 279.940735,113.592720 293.136108,100.457497 
	C307.025360,86.631554 315.176056,69.649887 315.280334,49.550522 
	C315.372620,31.762802 310.645782,15.435860 300.000000,1.000000 
	C366.967865,1.000000 433.935760,1.000000 500.951813,1.000000 
	C500.951813,167.554611 500.951813,334.109222 500.951813,501.000000 
	C431.978943,501.000000 362.957306,501.000000 293.727905,500.669983 
	C316.950165,497.871460 340.419922,495.723389 363.796509,492.823975 
	C379.891693,490.827698 395.410828,486.327667 409.540710,478.039856 
	C419.067322,472.452057 427.083313,465.248352 430.780701,454.447845 
	C431.443207,452.512634 430.353638,449.977692 430.073029,447.719635 
	C427.847748,448.260651 425.364502,448.342712 423.442413,449.423096 
	C415.641296,453.807892 408.354218,459.249115 400.256989,462.938843 
	C374.495209,474.677887 347.046570,479.785065 318.954346,480.779694 
	C289.197662,481.833282 259.404022,482.194977 229.626328,482.202911 
	C201.489288,482.210419 173.352493,481.328003 145.214050,480.954041 
	C142.330215,480.915680 137.942261,479.346619 137.391815,483.882080 
	C136.821518,488.580994 141.467133,488.382935 144.507523,488.973450 
	C170.599365,494.041016 196.859207,497.815186 223.443924,499.130585 
	C228.647369,499.388062 233.815552,500.358459 239.000000,501.000000 
M265.474792,474.942261 
	C283.341217,473.278046 301.245667,471.940674 319.064636,469.868469 
	C342.368500,467.158447 365.341522,462.605835 387.294159,454.076630 
	C393.586273,451.631927 399.807007,448.462769 405.256439,444.515717 
	C413.607788,438.466736 413.035645,427.011932 404.590881,421.255615 
	C403.314240,420.385376 401.105865,420.200470 399.593140,420.630188 
	C398.770905,420.863770 397.726593,423.385406 398.116272,424.317200 
	C400.652374,430.381500 396.679016,432.387665 392.279083,433.450989 
	C375.499725,437.505920 358.788574,442.130981 341.783630,444.887634 
	C322.798798,447.965179 303.556702,449.688843 284.362518,451.173401 
	C266.641205,452.544067 248.812286,453.773407 231.071640,453.350433 
	C204.671463,452.720978 178.258789,451.141968 151.947372,448.860565 
	C137.945709,447.646515 124.129410,444.190918 110.269569,441.537537 
	C107.678581,441.041473 105.278107,439.550232 102.789711,438.518280 
	C102.812416,438.024445 102.835114,437.530579 102.857819,437.036743 
	C105.646103,435.704315 108.316856,433.970947 111.244186,433.112854 
	C120.962151,430.264160 130.741928,427.608337 140.566681,425.153381 
	C143.364777,424.454193 146.140656,423.994568 145.800369,420.503113 
	C145.453003,416.939331 142.469833,416.828705 139.687225,417.041199 
	C131.407150,417.673584 123.095863,418.075073 114.861977,419.093781 
	C101.855133,420.702942 88.946671,422.648041 76.747078,428.089783 
	C60.843357,435.183777 64.230736,451.111664 75.046616,457.433533 
	C81.007607,460.917725 87.497711,463.918945 94.131966,465.755737 
	C122.400490,473.582245 151.577148,474.780548 180.617859,475.558899 
	C208.560455,476.307800 236.551620,475.243439 265.474792,474.942261 
M255.798889,299.160065 
	C219.864700,300.682434 183.974670,301.290741 148.274475,294.251190 
	C150.684296,291.990021 153.090454,290.153961 155.806747,289.256348 
	C166.348389,285.772797 177.032990,282.719208 187.552338,279.173187 
	C189.502930,278.515686 190.935425,276.321228 192.607056,274.836121 
	C190.505402,273.653564 188.354813,271.375549 186.310028,271.466858 
	C173.363831,272.044952 160.311554,272.323334 147.550079,274.328613 
	C136.663559,276.039246 125.595749,278.741333 115.554855,283.157410 
	C102.367653,288.957245 102.056190,303.396332 114.318596,311.015228 
	C119.622246,314.310516 125.526314,316.966278 131.499557,318.796875 
	C150.867355,324.732544 170.973160,326.209839 191.052017,326.790863 
	C206.666824,327.242706 222.322906,326.454193 237.956009,326.041504 
	C258.280670,325.504974 278.315643,322.676575 298.031677,317.734161 
	C315.683899,313.309204 332.964233,307.831390 348.136597,297.375458 
	C349.927887,296.141022 350.576263,293.248169 351.754456,291.124084 
	C349.402252,290.508942 346.832245,288.941528 344.730682,289.422211 
	C315.762115,296.048126 286.310242,298.057220 255.798889,299.160065 
M327.200226,126.683487 
	C333.028595,121.980927 338.980194,117.418190 344.592987,112.471062 
	C345.889954,111.327950 346.027863,108.869850 346.699127,107.016861 
	C344.669312,106.603065 342.281738,105.277718 340.663574,105.912788 
	C317.979279,114.815567 296.307739,125.692101 276.716156,140.337250 
	C266.258148,148.154831 256.510864,156.800415 250.426392,168.632339 
	C242.514587,184.017731 245.411957,199.804245 251.630829,214.447388 
	C256.162506,225.117905 263.491547,234.741241 270.435150,244.198776 
	C275.351257,250.894775 277.776489,257.543732 275.457336,265.558777 
	C273.659210,271.773193 271.415436,277.863647 269.772430,284.115021 
	C269.258087,286.071991 270.053680,288.373230 270.249634,290.516876 
	C272.212952,290.123016 274.610229,290.316986 276.069153,289.239929 
	C285.525940,282.258362 293.546387,273.828156 299.727386,263.796906 
	C306.780975,252.349518 310.088562,239.865189 304.827271,227.113327 
	C300.492737,216.607635 294.514679,206.721390 288.680145,196.908340 
	C281.697998,185.165085 281.674408,175.099823 289.563019,163.964661 
	C299.786316,149.533966 313.303101,138.413742 327.200226,126.683487 
M290.855743,424.398804 
	C302.450775,420.901398 314.081299,417.513733 325.602478,413.787903 
	C327.322754,413.231598 329.564575,411.168671 329.683563,409.654877 
	C329.803162,408.132751 327.903076,405.920105 326.316833,404.887390 
	C319.344849,400.348206 312.281830,395.915710 304.992889,391.916473 
	C302.764343,390.693695 299.619171,390.323151 297.048340,390.678955 
	C283.233948,392.590851 269.529572,395.468719 255.671326,396.851685 
	C235.557892,398.858795 215.493835,396.892426 195.567001,393.837769 
	C191.909348,393.277039 188.355179,392.041321 184.696930,391.102753 
	C187.517502,383.022339 185.951141,380.943054 178.096817,382.205109 
	C173.392059,382.961121 168.573593,384.142731 164.288666,386.158508 
	C152.978851,391.479095 150.995621,403.615875 160.480759,411.726166 
	C165.138901,415.709076 171.096405,418.667786 176.952240,420.661407 
	C194.404114,426.602905 212.724411,427.797394 230.962418,428.803436 
	C250.795563,429.897491 270.508942,428.303497 290.855743,424.398804 
M156.154144,333.499237 
	C152.805023,335.335876 149.218033,336.845551 146.154205,339.074371 
	C138.818161,344.411133 138.503860,352.117798 145.489914,357.936646 
	C148.506805,360.449493 152.094574,362.489166 155.729630,364.011749 
	C173.765427,371.566162 192.907516,374.677948 212.183594,374.668884 
	C231.572891,374.659790 251.077911,373.257324 270.318359,370.794495 
	C291.356567,368.101532 312.162689,363.562439 333.026245,359.597809 
	C334.807831,359.259247 337.020264,357.458649 337.597412,355.828979 
	C337.979004,354.751465 336.118500,352.336426 334.700043,351.261627 
	C329.396118,347.243073 324.007477,343.289856 318.337097,339.825287 
	C316.188141,338.512329 313.057617,337.771606 310.600342,338.168427 
	C296.522583,340.441742 282.601013,343.951935 268.457611,345.480255 
	C250.796997,347.388641 232.983780,348.176178 215.214783,348.673462 
	C205.614746,348.942169 195.934799,347.916443 186.356750,346.871216 
	C179.779144,346.153473 173.314774,344.397949 166.799805,343.106262 
	C166.701538,342.371185 166.603287,341.636078 166.505035,340.901001 
	C168.387589,339.528076 170.547195,338.401855 172.061630,336.701111 
	C173.193756,335.429688 173.493637,333.417175 174.164108,331.734680 
	C172.376892,331.024506 170.446411,329.486969 168.830627,329.766785 
	C164.765732,330.470734 160.842896,331.995026 156.154144,333.499237 
M371.645325,365.175629 
	C386.530548,360.221039 400.922241,354.275238 413.825867,345.106781 
	C436.107849,329.274597 441.861542,307.881165 429.896271,284.109802 
	C425.058807,274.499176 417.276642,268.287750 406.724182,266.004181 
	C391.373383,262.682190 377.075134,266.776459 363.252167,273.020142 
	C361.515656,273.804535 360.505676,276.197388 359.159088,277.845001 
	C360.975342,278.926788 362.695770,280.710846 364.623749,280.973907 
	C375.350616,282.437622 386.023621,283.787567 395.365814,290.013550 
	C403.490417,295.428070 406.879272,304.149933 402.770996,312.968506 
	C400.008881,318.897430 396.102112,324.489166 391.828857,329.479462 
	C381.053406,342.062988 367.983215,352.117798 354.618896,361.809387 
	C353.258301,362.796051 353.019073,365.329071 352.259491,367.144531 
	C353.989319,367.774902 355.850342,369.164215 357.424103,368.892090 
	C361.976776,368.104767 366.413818,366.649231 371.645325,365.175629 
z"/>
<path fill="#DA3A11" opacity="1.000000" stroke="none" 
	d="
M299.625000,1.000000 
	C310.645782,15.435860 315.372620,31.762802 315.280334,49.550522 
	C315.176056,69.649887 307.025360,86.631554 293.136108,100.457497 
	C279.940735,113.592720 265.588318,125.568947 251.686432,137.989594 
	C245.229095,143.758896 238.707825,149.461700 232.084778,155.039368 
	C219.746414,165.430206 216.434952,178.427643 219.222656,194.049454 
	C223.500320,218.020782 231.463684,240.661972 241.833649,262.564575 
	C242.189240,263.315613 242.846573,264.049347 242.872223,264.807770 
	C242.954178,267.231781 242.804611,269.663635 242.744415,272.092438 
	C240.532516,271.495483 237.799423,271.530579 236.189743,270.203278 
	C220.952621,257.639130 206.848053,243.837418 196.602097,226.861679 
	C191.071899,217.699142 186.408447,207.724716 183.151749,197.541626 
	C177.217728,178.987122 182.187378,161.913605 192.602005,145.906982 
	C204.572144,127.509621 221.037872,113.921539 238.460037,101.166039 
	C250.673843,92.223801 262.965668,83.325554 274.560303,73.616684 
	C287.813843,62.518696 292.603638,46.779392 294.854584,30.393322 
	C295.882233,22.912249 294.913574,15.170294 295.122101,7.554104 
	C295.175232,5.613394 296.264954,3.701070 296.939209,1.387853 
	C297.750000,1.000000 298.500000,1.000000 299.625000,1.000000 
z"/>
<path fill="#77A3F9" opacity="1.000000" stroke="none" 
	d="
M239.468658,501.000000 
	C233.815552,500.358459 228.647369,499.388062 223.443924,499.130585 
	C196.859207,497.815186 170.599365,494.041016 144.507523,488.973450 
	C141.467133,488.382935 136.821518,488.580994 137.391815,483.882080 
	C137.942261,479.346619 142.330215,480.915680 145.214050,480.954041 
	C173.352493,481.328003 201.489288,482.210419 229.626328,482.202911 
	C259.404022,482.194977 289.197662,481.833282 318.954346,480.779694 
	C347.046570,479.785065 374.495209,474.677887 400.256989,462.938843 
	C408.354218,459.249115 415.641296,453.807892 423.442413,449.423096 
	C425.364502,448.342712 427.847748,448.260651 430.073029,447.719635 
	C430.353638,449.977692 431.443207,452.512634 430.780701,454.447845 
	C427.083313,465.248352 419.067322,472.452057 409.540710,478.039856 
	C395.410828,486.327667 379.891693,490.827698 363.796509,492.823975 
	C340.419922,495.723389 316.950165,497.871460 293.260071,500.669983 
	C275.312439,501.000000 257.624878,501.000000 239.468658,501.000000 
z"/>
<path fill="#77A3FA" opacity="1.000000" stroke="none" 
	d="
M264.998108,474.959045 
	C236.551620,475.243439 208.560455,476.307800 180.617859,475.558899 
	C151.577148,474.780548 122.400490,473.582245 94.131966,465.755737 
	C87.497711,463.918945 81.007607,460.917725 75.046616,457.433533 
	C64.230736,451.111664 60.843357,435.183777 76.747078,428.089783 
	C88.946671,422.648041 101.855133,420.702942 114.861977,419.093781 
	C123.095863,418.075073 131.407150,417.673584 139.687225,417.041199 
	C142.469833,416.828705 145.453003,416.939331 145.800369,420.503113 
	C146.140656,423.994568 143.364777,424.454193 140.566681,425.153381 
	C130.741928,427.608337 120.962151,430.264160 111.244186,433.112854 
	C108.316856,433.970947 105.646103,435.704315 102.857819,437.036743 
	C102.835114,437.530579 102.812416,438.024445 102.789711,438.518280 
	C105.278107,439.550232 107.678581,441.041473 110.269569,441.537537 
	C124.129410,444.190918 137.945709,447.646515 151.947372,448.860565 
	C178.258789,451.141968 204.671463,452.720978 231.071640,453.350433 
	C248.812286,453.773407 266.641205,452.544067 284.362518,451.173401 
	C303.556702,449.688843 322.798798,447.965179 341.783630,444.887634 
	C358.788574,442.130981 375.499725,437.505920 392.279083,433.450989 
	C396.679016,432.387665 400.652374,430.381500 398.116272,424.317200 
	C397.726593,423.385406 398.770905,420.863770 399.593140,420.630188 
	C401.105865,420.200470 403.314240,420.385376 404.590881,421.255615 
	C413.035645,427.011932 413.607788,438.466736 405.256439,444.515717 
	C399.807007,448.462769 393.586273,451.631927 387.294159,454.076630 
	C365.341522,462.605835 342.368500,467.158447 319.064636,469.868469 
	C301.245667,471.940674 283.341217,473.278046 264.998108,474.959045 
z"/>
<path fill="#76A2FA" opacity="1.000000" stroke="none" 
	d="
M256.271301,299.136627 
	C286.310242,298.057220 315.762115,296.048126 344.730682,289.422211 
	C346.832245,288.941528 349.402252,290.508942 351.754456,291.124084 
	C350.576263,293.248169 349.927887,296.141022 348.136597,297.375458 
	C332.964233,307.831390 315.683899,313.309204 298.031677,317.734161 
	C278.315643,322.676575 258.280670,325.504974 237.956009,326.041504 
	C222.322906,326.454193 206.666824,327.242706 191.052017,326.790863 
	C170.973160,326.209839 150.867355,324.732544 131.499557,318.796875 
	C125.526314,316.966278 119.622246,314.310516 114.318596,311.015228 
	C102.056190,303.396332 102.367653,288.957245 115.554855,283.157410 
	C125.595749,278.741333 136.663559,276.039246 147.550079,274.328613 
	C160.311554,272.323334 173.363831,272.044952 186.310028,271.466858 
	C188.354813,271.375549 190.505402,273.653564 192.607056,274.836121 
	C190.935425,276.321228 189.502930,278.515686 187.552338,279.173187 
	C177.032990,282.719208 166.348389,285.772797 155.806747,289.256348 
	C153.090454,290.153961 150.684296,291.990021 148.274475,294.251190 
	C183.974670,301.290741 219.864700,300.682434 256.271301,299.136627 
z"/>
<path fill="#D93B11" opacity="1.000000" stroke="none" 
	d="
M326.915131,126.893372 
	C313.303101,138.413742 299.786316,149.533966 289.563019,163.964661 
	C281.674408,175.099823 281.697998,185.165085 288.680145,196.908340 
	C294.514679,206.721390 300.492737,216.607635 304.827271,227.113327 
	C310.088562,239.865189 306.780975,252.349518 299.727386,263.796906 
	C293.546387,273.828156 285.525940,282.258362 276.069153,289.239929 
	C274.610229,290.316986 272.212952,290.123016 270.249634,290.516876 
	C270.053680,288.373230 269.258087,286.071991 269.772430,284.115021 
	C271.415436,277.863647 273.659210,271.773193 275.457336,265.558777 
	C277.776489,257.543732 275.351257,250.894775 270.435150,244.198776 
	C263.491547,234.741241 256.162506,225.117905 251.630829,214.447388 
	C245.411957,199.804245 242.514587,184.017731 250.426392,168.632339 
	C256.510864,156.800415 266.258148,148.154831 276.716156,140.337250 
	C296.307739,125.692101 317.979279,114.815567 340.663574,105.912788 
	C342.281738,105.277718 344.669312,106.603065 346.699127,107.016861 
	C346.027863,108.869850 345.889954,111.327950 344.592987,112.471062 
	C338.980194,117.418190 333.028595,121.980927 326.915131,126.893372 
z"/>
<path fill="#76A2FA" opacity="1.000000" stroke="none" 
	d="
M290.450256,424.529785 
	C270.508942,428.303497 250.795563,429.897491 230.962418,428.803436 
	C212.724411,427.797394 194.404114,426.602905 176.952240,420.661407 
	C171.096405,418.667786 165.138901,415.709076 160.480759,411.726166 
	C150.995621,403.615875 152.978851,391.479095 164.288666,386.158508 
	C168.573593,384.142731 173.392059,382.961121 178.096817,382.205109 
	C185.951141,380.943054 187.517502,383.022339 184.696930,391.102753 
	C188.355179,392.041321 191.909348,393.277039 195.567001,393.837769 
	C215.493835,396.892426 235.557892,398.858795 255.671326,396.851685 
	C269.529572,395.468719 283.233948,392.590851 297.048340,390.678955 
	C299.619171,390.323151 302.764343,390.693695 304.992889,391.916473 
	C312.281830,395.915710 319.344849,400.348206 326.316833,404.887390 
	C327.903076,405.920105 329.803162,408.132751 329.683563,409.654877 
	C329.564575,411.168671 327.322754,413.231598 325.602478,413.787903 
	C314.081299,417.513733 302.450775,420.901398 290.450256,424.529785 
z"/>
<path fill="#76A2FA" opacity="1.000000" stroke="none" 
	d="
M156.508621,333.344849 
	C160.842896,331.995026 164.765732,330.470734 168.830627,329.766785 
	C170.446411,329.486969 172.376892,331.024506 174.164093,331.734680 
	C173.493637,333.417175 173.193756,335.429688 172.061630,336.701111 
	C170.547195,338.401855 168.387589,339.528076 166.505035,340.901001 
	C166.603287,341.636078 166.701538,342.371185 166.799805,343.106262 
	C173.314774,344.397949 179.779144,346.153473 186.356750,346.871216 
	C195.934799,347.916443 205.614746,348.942169 215.214783,348.673462 
	C232.983780,348.176178 250.796997,347.388641 268.457611,345.480255 
	C282.601013,343.951935 296.522583,340.441742 310.600342,338.168427 
	C313.057617,337.771606 316.188141,338.512329 318.337097,339.825287 
	C324.007477,343.289856 329.396118,347.243073 334.700043,351.261627 
	C336.118500,352.336426 337.979004,354.751465 337.597412,355.828979 
	C337.020264,357.458649 334.807831,359.259247 333.026245,359.597809 
	C312.162689,363.562439 291.356567,368.101532 270.318359,370.794495 
	C251.077911,373.257324 231.572891,374.659790 212.183594,374.668884 
	C192.907516,374.677948 173.765427,371.566162 155.729630,364.011749 
	C152.094574,362.489166 148.506805,360.449493 145.489914,357.936646 
	C138.503860,352.117798 138.818161,344.411133 146.154205,339.074371 
	C149.218033,336.845551 152.805023,335.335876 156.508621,333.344849 
z"/>
<path fill="#77A2FA" opacity="1.000000" stroke="none" 
	d="
M371.270813,365.315796 
	C366.413818,366.649231 361.976776,368.104767 357.424103,368.892090 
	C355.850342,369.164215 353.989319,367.774902 352.259491,367.144531 
	C353.019073,365.329071 353.258301,362.796051 354.618896,361.809387 
	C367.983215,352.117798 381.053406,342.062988 391.828857,329.479462 
	C396.102112,324.489166 400.008881,318.897430 402.770996,312.968506 
	C406.879272,304.149933 403.490417,295.428070 395.365814,290.013550 
	C386.023621,283.787567 375.350616,282.437622 364.623749,280.973907 
	C362.695770,280.710846 360.975342,278.926788 359.159088,277.845001 
	C360.505676,276.197388 361.515656,273.804535 363.252167,273.020142 
	C377.075134,266.776459 391.373383,262.682190 406.724182,266.004181 
	C417.276642,268.287750 425.058807,274.499176 429.896271,284.109802 
	C441.861542,307.881165 436.107849,329.274597 413.825867,345.106781 
	C400.922241,354.275238 386.530548,360.221039 371.270813,365.315796 
z"/>
</svg>