<svg version="1.1" id="Layer_1" xmlns="http://www.w3.org/2000/svg" xmlns:xlink="http://www.w3.org/1999/xlink" x="0px" y="0px"
	 width="100%" viewBox="0 0 512 512" enable-background="new 0 0 512 512" xml:space="preserve">
<path fill="#FFFFFF" opacity="1.000000" stroke="none" 
	d="
M1.000000,141.000000 
	C1.000000,94.359108 1.000000,47.718216 1.000000,1.038661 
	C171.546616,1.038661 342.093262,1.038661 513.000000,1.038661 
	C513.000000,47.353607 513.000000,93.708145 512.653320,140.422562 
	C509.978485,139.116776 509.092682,140.439484 507.778503,142.421799 
	C500.325378,153.664124 492.655945,164.763062 485.034882,175.448242 
	C483.669098,155.945297 483.088989,136.810013 480.729279,117.896774 
	C479.066498,104.569702 475.132172,91.508461 471.912323,78.402153 
	C470.674591,73.363968 466.784027,71.157799 462.290924,72.037209 
	C456.732941,73.125031 455.087341,78.263496 456.708496,85.481316 
	C460.093964,100.554024 462.899139,115.757057 465.619019,130.831436 
	C461.625763,127.432976 457.991486,124.069572 454.277954,120.796082 
	C449.215881,116.333839 444.168182,111.848007 438.930206,107.599281 
	C437.949677,106.803963 435.776184,106.485138 434.763702,107.046829 
	C433.992462,107.474701 433.654968,109.815163 434.037933,111.012642 
	C436.908081,119.987663 439.474579,129.115555 443.149475,137.765045 
	C449.466461,152.633133 457.043304,166.872498 467.947693,179.528976 
	C467.651642,186.381943 467.593323,192.807526 466.907349,199.165390 
	C466.265350,205.116013 464.958160,210.994873 463.617188,216.797989 
	C457.647491,207.719818 452.103424,198.683655 446.272400,189.836624 
	C445.186462,188.189026 442.947723,187.301239 441.241028,186.062805 
	C440.494019,188.060959 439.037994,190.088821 439.120270,192.052231 
	C439.520111,201.595734 440.213135,211.132111 441.025299,220.651993 
	C442.282593,235.389694 446.120270,249.478714 452.087372,263.351898 
	C447.027679,274.789154 442.046021,285.845978 436.891571,296.555115 
	C433.808044,285.598541 430.959167,274.971863 427.906647,264.403961 
	C427.533997,263.113922 426.068176,262.139618 425.108978,261.018982 
	C423.854156,262.098297 422.037506,262.939331 421.458191,264.305176 
	C420.137146,267.419800 419.443268,270.797913 418.458160,274.057953 
	C412.444122,293.959747 411.242401,314.370453 412.043976,334.986420 
	C412.071716,335.699585 412.621857,336.392456 412.829437,337.415955 
	C404.508728,347.126587 396.287140,356.516022 388.038025,365.457031 
	C388.340363,354.273132 388.762299,343.538910 388.913300,332.800903 
	C388.939880,330.913544 387.831177,329.010223 387.246735,327.114258 
	C385.556671,328.239471 383.184662,328.975403 382.284729,330.551727 
	C375.278442,342.823761 367.771576,354.905762 362.004211,367.757690 
	C357.735260,377.270538 355.843658,387.850281 352.580566,398.093201 
	C347.500732,401.546204 342.733215,404.860657 337.647400,407.969727 
	C334.795776,399.010132 334.795776,399.016144 325.863098,399.008026 
	C317.606659,399.000549 309.350189,398.978333 300.943237,398.642548 
	C285.300629,373.195404 276.526886,345.806458 272.872406,317.001740 
	C283.272858,311.836395 291.557495,304.865234 299.478058,296.892639 
	C308.272827,296.163116 316.876831,296.409668 324.889313,294.352509 
	C346.064148,288.915985 363.499725,277.269073 376.756348,259.717163 
	C388.954193,243.567047 395.504608,225.361298 395.963226,205.095642 
	C396.178009,195.603836 396.013702,186.103088 395.995789,176.606461 
	C395.980682,168.591629 391.465149,164.026398 383.524384,164.003922 
	C367.031464,163.957245 350.538452,163.932480 334.021820,163.448685 
	C334.028778,159.685455 334.059387,156.372253 334.523865,153.033875 
	C343.990570,152.977722 343.990997,152.977722 343.991699,143.924881 
	C343.992065,139.449066 343.900940,134.970917 344.017883,130.498169 
	C344.113678,126.832985 342.701599,124.941124 338.835846,124.984764 
	C328.230713,125.104492 317.624329,125.115128 306.553223,125.099968 
	C290.459290,125.020615 274.830627,125.004021 259.201935,125.001251 
	C231.602127,124.996361 204.001968,125.068954 176.402832,124.932785 
	C171.733078,124.909744 169.709549,126.457443 169.939545,131.270706 
	C170.201111,136.744934 170.078323,142.242722 169.973816,147.727448 
	C169.901001,151.548309 171.657471,153.200699 175.402054,153.015106 
	C176.893295,152.941208 178.393066,153.039917 179.933151,153.510345 
	C179.971695,157.274139 179.966049,160.587646 179.496414,163.941559 
	C162.703278,163.987976 146.374084,163.969803 130.045029,164.011047 
	C122.784645,164.029388 118.075531,168.781662 118.004547,176.039276 
	C117.976845,178.871613 117.931816,181.706390 118.011963,184.536728 
	C118.335686,195.968536 117.453575,207.609344 119.331215,218.784088 
	C122.720947,238.958023 132.087494,256.455658 147.164871,270.720795 
	C166.237701,288.766113 188.590164,298.005310 215.312866,297.009766 
	C222.041504,304.387238 229.161530,310.728638 238.081558,315.332153 
	C239.229736,316.095795 240.214417,316.554077 241.119995,317.435181 
	C239.477158,326.000366 238.059296,334.174011 236.320984,342.278931 
	C231.966202,362.583282 223.372986,381.161804 212.429626,398.968689 
	C204.850479,398.993774 197.732666,398.998505 190.614868,398.999603 
	C180.761642,399.001160 180.761642,399.000000 176.608124,407.925842 
	C171.201752,404.625977 166.153534,401.289520 161.061707,397.534149 
	C161.007477,396.283936 161.145889,395.418549 160.964600,394.626312 
	C155.550659,370.969330 145.105957,349.602448 131.210602,329.851471 
	C130.299103,328.555847 128.340118,327.997192 126.868362,327.095734 
	C126.245583,328.793701 125.068802,330.498535 125.089638,332.188568 
	C125.228195,343.429321 125.622955,354.666870 125.613777,365.828552 
	C117.219727,356.198853 109.146332,346.646118 101.428253,336.838776 
	C103.350082,313.285217 100.927513,290.425659 93.852432,268.152527 
	C93.020370,265.533112 90.705711,263.384613 89.078339,261.017822 
	C87.702805,263.323486 85.800117,265.469513 85.045113,267.963043 
	C82.142586,277.549255 79.607712,287.246735 76.607368,296.785858 
	C71.464203,285.438141 66.649384,274.207306 62.007858,262.644470 
	C62.488014,261.399963 62.724926,260.456573 63.111958,259.579437 
	C72.714630,237.816452 74.589592,214.701248 74.889618,191.346146 
	C74.912247,189.584183 73.369965,187.802109 72.555130,186.029388 
	C70.969070,187.195389 68.909691,188.042740 67.874847,189.579834 
	C61.802715,198.599060 55.969814,207.779343 50.013412,216.501740 
	C48.677238,203.755508 47.383900,191.412842 46.401909,178.924316 
	C55.966564,167.277649 63.597324,154.756302 69.287750,141.164825 
	C73.239845,131.725357 76.562698,122.013664 79.875954,112.324181 
	C80.423073,110.724152 79.473549,108.612343 79.215683,106.737053 
	C77.413780,107.387016 75.250137,107.603874 73.868935,108.757523 
	C65.168320,116.024719 56.641514,123.499992 48.033844,130.487823 
	C51.229134,114.961067 54.345829,99.830177 57.717129,84.756233 
	C59.053905,78.779129 57.049713,73.514328 52.318886,72.159409 
	C47.464539,70.769119 43.600483,73.391876 41.730621,79.702347 
	C35.588840,100.429863 31.864534,121.637306 30.095718,143.145615 
	C29.200974,154.025452 29.293661,164.986496 28.617657,175.805054 
	C20.878750,164.534775 13.339949,153.448135 6.136551,142.147705 
	C4.463136,139.522522 3.062562,139.808746 1.000000,141.000000 
z"/>
<path fill="#FFFFFF" opacity="1.000000" stroke="none" 
	d="
M513.000000,163.000000 
	C513.000000,279.625244 513.000000,396.250488 513.000000,512.937866 
	C342.435364,512.937866 171.870728,512.937866 1.000000,512.937866 
	C1.000000,396.643524 1.000000,280.286774 1.369148,163.652435 
	C4.937662,188.715286 13.894191,211.055557 34.969040,227.500275 
	C38.018040,239.597519 41.041664,251.288391 43.776852,263.285248 
	C42.605148,263.159180 41.603580,262.874084 40.856640,262.272705 
	C31.918785,255.076721 23.066593,247.772964 14.051303,240.676132 
	C12.855470,239.734756 10.855467,239.454956 9.281446,239.574417 
	C8.812147,239.610046 7.906753,242.236984 8.247371,243.359055 
	C13.569674,260.892151 21.679394,276.965118 34.130051,290.573242 
	C42.680981,299.919098 53.168606,306.505829 65.086380,311.410461 
	C66.978920,314.821320 68.625732,317.973419 70.492630,320.989258 
	C75.246353,328.668396 80.098465,336.286621 84.530281,343.945374 
	C72.225304,339.225739 60.332603,334.407166 48.336338,329.861908 
	C46.883129,329.311279 44.871300,330.235016 42.628422,330.542664 
	C50.460732,345.185059 60.803085,356.168701 72.939766,365.188416 
	C86.176163,375.025421 100.755333,382.290222 118.076309,382.394409 
	C127.297318,390.785706 136.053833,399.288727 145.571274,406.831635 
	C153.551178,413.155945 162.419083,418.359772 170.923141,424.436707 
	C169.662704,428.155548 168.145645,431.430359 167.135010,434.854645 
	C165.510513,440.358887 166.855865,441.994171 172.569885,441.996185 
	C197.898178,442.005066 223.226517,442.022949 248.554764,441.992859 
	C269.380035,441.968079 290.205261,441.880402 311.492157,441.889282 
	C321.889282,441.968536 331.824768,442.003082 341.760132,441.981140 
	C348.199463,441.966949 349.083527,440.616760 347.089874,434.230713 
	C346.037109,430.858459 345.073792,427.458282 344.384125,423.929260 
	C349.544891,420.508423 354.711182,417.611115 359.177368,413.876556 
	C371.626984,403.466248 383.786285,392.708801 396.506409,382.051270 
	C403.524445,380.908661 410.464081,380.795410 416.602142,378.519989 
	C438.950928,370.235077 455.824097,354.936554 468.858765,335.246185 
	C469.718475,333.947510 469.447815,331.900543 469.702942,330.201660 
	C467.945282,330.203186 466.001709,329.707916 464.459595,330.285217 
	C452.625000,334.715454 440.868378,339.354095 429.174316,343.598022 
	C435.860413,332.541870 442.459778,321.815704 449.390106,310.935669 
	C459.719055,306.928284 468.768158,301.477509 476.433075,293.999390 
	C490.774719,280.007385 499.816559,262.845551 505.509888,243.820435 
	C505.894745,242.534332 505.509460,240.158630 504.636017,239.590088 
	C503.711334,238.988205 501.391602,239.460175 500.342377,240.294540 
	C494.065613,245.286148 488.121765,250.701920 481.775055,255.597931 
	C478.110779,258.424652 473.899567,260.542389 469.973572,262.593994 
	C473.026764,250.504486 476.040894,238.800171 479.364532,226.954895 
	C480.030334,226.468903 480.356415,226.084549 480.747253,225.784500 
	C496.187469,213.930389 504.352142,197.586441 509.285065,179.304840 
	C510.736084,173.927292 511.773193,168.438049 513.000000,163.000000 
z"/>
<path fill="#FF901D" opacity="1.000000" stroke="none" 
	d="
M513.000000,162.531433 
	C511.773193,168.438049 510.736084,173.927292 509.285065,179.304840 
	C504.352142,197.586441 496.187469,213.930389 480.747253,225.784500 
	C480.356415,226.084549 480.030334,226.468903 479.344604,226.513351 
	C479.018860,225.220276 478.919373,224.214844 479.042084,223.237305 
	C480.369781,212.660156 481.734741,202.087692 483.084564,191.513321 
	C483.748352,186.313156 484.401886,181.111679 485.060089,175.910797 
	C492.655945,164.763062 500.325378,153.664124 507.778503,142.421799 
	C509.092682,140.439484 509.978485,139.116776 512.653320,140.891220 
	C513.000000,148.020950 513.000000,155.041901 513.000000,162.531433 
z"/>
<path fill="#FF901D" opacity="1.000000" stroke="none" 
	d="
M34.943672,227.093933 
	C13.894191,211.055557 4.937662,188.715286 1.369148,163.187408 
	C1.000000,155.979050 1.000000,148.958099 1.000000,141.468567 
	C3.062562,139.808746 4.463136,139.522522 6.136551,142.147705 
	C13.339949,153.448135 20.878750,164.534775 28.687849,176.223907 
	C29.386921,178.522675 29.814301,180.285645 29.979172,182.072845 
	C30.673357,189.597870 31.148729,197.145538 31.973186,204.655396 
	C32.796333,212.153244 33.940334,219.615860 34.943672,227.093933 
z"/>
<path fill="#FED130" opacity="1.000000" stroke="none" 
	d="
M237.918060,315.026733 
	C229.161530,310.728638 222.041504,304.387238 215.271027,296.675781 
	C210.241287,290.768036 205.563263,285.354706 200.803726,279.608124 
	C185.452942,255.793381 178.965302,229.972702 179.958725,202.093689 
	C180.219528,194.774170 179.973953,187.436600 179.976501,179.633743 
	C179.981522,174.073822 179.970963,168.987503 179.960403,163.901169 
	C179.966049,160.587646 179.971695,157.274139 180.408920,153.490768 
	C219.558701,153.016357 258.276917,153.011780 296.997101,153.475403 
	C296.666351,176.231674 296.956482,198.554047 295.732147,220.793045 
	C295.139893,231.550232 292.846649,242.547760 289.308929,252.737000 
	C282.630768,271.971191 271.493134,288.750946 256.067139,302.246857 
	C250.529282,307.091827 243.996689,310.799835 237.918060,315.026733 
z"/>
<path fill="#F7BC14" opacity="1.000000" stroke="none" 
	d="
M238.081573,315.332153 
	C243.996689,310.799835 250.529282,307.091827 256.067139,302.246857 
	C271.493134,288.750946 282.630768,271.971191 289.308929,252.737000 
	C292.846649,242.547760 295.139893,231.550232 295.732147,220.793045 
	C296.956482,198.554047 296.666351,176.231674 297.452393,153.472626 
	C300.944305,152.994232 303.982880,152.986816 307.487946,152.986084 
	C316.666260,153.014862 325.378143,153.036957 334.089996,153.059052 
	C334.059387,156.372253 334.028778,159.685455 334.006897,163.922531 
	C334.025970,169.931137 334.036316,175.015884 334.022430,180.562042 
	C333.665649,193.111267 333.043640,205.200150 333.088165,217.286560 
	C333.126801,227.765488 331.874573,238.022369 327.951782,247.647507 
	C323.481049,258.617218 318.086609,269.210510 312.781189,280.109436 
	C307.985046,285.773895 303.501343,291.296234 299.017639,296.818604 
	C291.557495,304.865234 283.272858,311.836395 272.872406,317.001740 
	C276.526886,345.806458 285.300629,373.195404 300.521179,398.660004 
	C298.845886,399.010406 297.442108,399.023254 295.567352,399.026062 
	C284.736328,399.011871 274.376251,399.007751 263.973236,398.652252 
	C249.150070,374.572998 241.723511,348.768219 241.966293,320.777344 
	C241.977173,319.524658 241.466705,318.267426 241.199097,317.012329 
	C240.214417,316.554077 239.229736,316.095795 238.081573,315.332153 
z"/>
<path fill="#F7BC14" opacity="1.000000" stroke="none" 
	d="
M34.969040,227.500275 
	C33.940334,219.615860 32.796333,212.153244 31.973186,204.655396 
	C31.148729,197.145538 30.673357,189.597870 29.979172,182.072845 
	C29.814301,180.285645 29.386921,178.522675 29.010094,176.329681 
	C29.293661,164.986496 29.200974,154.025452 30.095718,143.145615 
	C31.864534,121.637306 35.588840,100.429863 41.730621,79.702347 
	C43.600483,73.391876 47.464539,70.769119 52.318886,72.159409 
	C57.049713,73.514328 59.053905,78.779129 57.717129,84.756233 
	C54.345829,99.830177 51.229134,114.961067 47.974224,130.890457 
	C47.647354,132.655258 47.147167,133.587845 47.097458,134.543854 
	C46.371418,148.506851 45.684517,162.472061 45.076321,176.440567 
	C45.038868,177.300751 45.735481,178.192917 46.090561,179.070190 
	C47.383900,191.412842 48.677238,203.755508 49.995010,216.949341 
	C50.676754,222.517776 50.813217,227.382248 52.096478,231.922607 
	C55.045807,242.357758 58.553493,252.635086 61.834557,262.976471 
	C66.649384,274.207306 71.464203,285.438141 76.632401,297.169373 
	C79.895576,303.573242 82.360207,309.754120 85.824089,315.312256 
	C90.505005,322.823181 95.953682,329.855621 101.072937,337.093384 
	C109.146332,346.646118 117.219727,356.198853 125.662750,366.178314 
	C130.631058,371.507660 134.886505,376.800903 139.912567,381.217072 
	C146.665253,387.150360 154.013016,392.406342 161.105316,397.953064 
	C166.153534,401.289520 171.201752,404.625977 176.612762,408.323547 
	C174.948318,413.809662 172.921051,418.934692 170.893799,424.059753 
	C162.419083,418.359772 153.551178,413.155945 145.571274,406.831635 
	C136.053833,399.288727 127.297318,390.785706 117.961357,382.080963 
	C111.215813,374.220276 104.660538,367.029541 98.244492,359.716644 
	C93.702522,354.539734 89.348900,349.197601 84.911186,343.929230 
	C80.098465,336.286621 75.246353,328.668396 70.492630,320.989258 
	C68.625732,317.973419 66.978920,314.821320 65.073860,311.043762 
	C58.258377,295.206085 51.600906,280.055939 44.960411,264.594452 
	C44.643658,263.840302 44.309925,263.397522 44.001247,262.951019 
	C44.026302,262.947296 44.065292,262.979279 44.065292,262.979279 
	C41.041664,251.288391 38.018040,239.597519 34.969040,227.500275 
z"/>
<path fill="#F7BC14" opacity="1.000000" stroke="none" 
	d="
M485.034882,175.448242 
	C484.401886,181.111679 483.748352,186.313156 483.084564,191.513321 
	C481.734741,202.087692 480.369781,212.660156 479.042084,223.237305 
	C478.919373,224.214844 479.018860,225.220276 479.035095,226.654297 
	C476.040894,238.800171 473.026764,250.504486 469.992981,262.578552 
	C469.973267,262.948303 470.023987,262.954651 469.728577,263.052002 
	C469.307526,263.734711 469.181824,264.320038 468.911804,265.237305 
	C465.202637,274.121918 461.716919,282.708710 458.047882,291.216492 
	C455.169220,297.891541 452.063812,304.468811 449.059143,311.089539 
	C442.459778,321.815704 435.860413,332.541870 428.865570,343.750000 
	C424.428253,349.207123 420.501770,354.281677 416.318207,359.134705 
	C409.655579,366.863525 402.821686,374.444794 396.060242,382.088440 
	C383.786285,392.708801 371.626984,403.466248 359.177368,413.876556 
	C354.711182,417.611115 349.544891,420.508423 344.063263,423.758820 
	C341.607513,418.544922 339.786621,413.360016 337.965729,408.175140 
	C342.733215,404.860657 347.500732,401.546204 352.908020,397.986755 
	C360.705017,391.985718 368.125336,386.520966 374.930023,380.374664 
	C379.740356,376.029694 383.716797,370.761475 388.065521,365.905457 
	C396.287140,356.516022 404.508728,347.126587 413.135986,337.257843 
	C418.652771,329.284821 424.084747,321.984833 428.765869,314.231506 
	C432.060638,308.774445 434.334595,302.701019 437.064362,296.902832 
	C442.046021,285.845978 447.027679,274.789154 452.346191,263.120361 
	C458.367981,247.784302 462.149872,232.590256 463.943726,216.905319 
	C464.958160,210.994873 466.265350,205.116013 466.907349,199.165390 
	C467.593323,192.807526 467.651642,186.381943 468.255188,179.236298 
	C468.191315,166.351608 467.953766,154.212585 467.462830,142.083832 
	C467.311432,138.343689 466.468811,134.631531 465.942688,130.906555 
	C462.899139,115.757057 460.093964,100.554024 456.708496,85.481316 
	C455.087341,78.263496 456.732941,73.125031 462.290924,72.037209 
	C466.784027,71.157799 470.674591,73.363968 471.912323,78.402153 
	C475.132172,91.508461 479.066498,104.569702 480.729279,117.896774 
	C483.088989,136.810013 483.669098,155.945297 485.034882,175.448242 
z"/>
<path fill="#FFB125" opacity="1.000000" stroke="none" 
	d="
M170.923126,424.436707 
	C172.921051,418.934692 174.948318,413.809662 176.970932,408.286926 
	C180.761642,399.000000 180.761642,399.001160 190.614868,398.999603 
	C197.732666,398.998505 204.850479,398.993774 212.905548,398.989624 
	C230.567276,398.993591 247.291718,398.998627 264.016174,399.003632 
	C274.376251,399.007751 284.736328,399.011871 295.599121,399.394135 
	C296.786835,401.635315 297.491791,403.491272 298.153595,405.362488 
	C302.451141,417.513367 306.739258,429.667542 311.030487,441.820618 
	C290.205261,441.880402 269.380035,441.968079 248.554764,441.992859 
	C223.226517,442.022949 197.898178,442.005066 172.569885,441.996185 
	C166.855865,441.994171 165.510513,440.358887 167.135010,434.854645 
	C168.145645,431.430359 169.662704,428.155548 170.923126,424.436707 
z"/>
<path fill="#FFB125" opacity="1.000000" stroke="none" 
	d="
M307.021484,152.979401 
	C303.982880,152.986816 300.944305,152.994232 297.450409,153.004425 
	C258.276917,153.011780 219.558701,153.016357 180.364731,153.040497 
	C178.393066,153.039917 176.893295,152.941208 175.402054,153.015106 
	C171.657471,153.200699 169.901001,151.548309 169.973816,147.727448 
	C170.078323,142.242722 170.201111,136.744934 169.939545,131.270706 
	C169.709549,126.457443 171.733078,124.909744 176.402832,124.932785 
	C204.001968,125.068954 231.602127,124.996361 259.201935,125.001251 
	C274.830627,125.004021 290.459290,125.020615 306.547913,125.557129 
	C307.012390,135.048645 307.016937,144.014023 307.021484,152.979401 
z"/>
<path fill="#FFB125" opacity="1.000000" stroke="none" 
	d="
M200.885223,279.941406 
	C205.563263,285.354706 210.241287,290.768036 214.961166,296.515320 
	C188.590164,298.005310 166.237701,288.766113 147.164871,270.720795 
	C132.087494,256.455658 122.720947,238.958023 119.331215,218.784088 
	C117.453575,207.609344 118.335686,195.968536 118.011963,184.536728 
	C117.931816,181.706390 117.976845,178.871613 118.004547,176.039276 
	C118.075531,168.781662 122.784645,164.029388 130.045029,164.011047 
	C146.374084,163.969803 162.703278,163.987976 179.496414,163.941559 
	C179.970963,168.987503 179.981522,174.073822 179.512573,179.589844 
	C164.113174,180.019516 149.193268,180.019516 133.491821,180.019516 
	C134.089935,191.959961 133.705460,203.330673 135.424789,214.373840 
	C138.383377,233.376907 147.407959,249.365234 162.343796,261.948730 
	C173.639862,271.465698 186.299774,277.666199 200.885223,279.941406 
z"/>
<path fill="#FFB125" opacity="1.000000" stroke="none" 
	d="
M334.046661,180.100616 
	C334.036316,175.015884 334.025970,169.931137 334.030579,164.372559 
	C350.538452,163.932480 367.031464,163.957245 383.524384,164.003922 
	C391.465149,164.026398 395.980682,168.591629 395.995789,176.606461 
	C396.013702,186.103088 396.178009,195.603836 395.963226,205.095642 
	C395.504608,225.361298 388.954193,243.567047 376.756348,259.717163 
	C363.499725,277.269073 346.064148,288.915985 324.889313,294.352509 
	C316.876831,296.409668 308.272827,296.163116 299.478058,296.892639 
	C303.501343,291.296234 307.985046,285.773895 313.181305,280.120819 
	C324.409363,277.974579 334.222321,274.247192 343.232910,268.369507 
	C356.614319,259.640747 366.542694,248.002899 372.982117,233.423798 
	C376.708160,224.987961 378.991394,216.212296 379.153870,206.875931 
	C379.307800,198.034714 379.945709,189.201920 380.383514,180.100616 
	C364.251495,180.100616 349.149078,180.100616 334.046661,180.100616 
z"/>
<path fill="#FF911D" opacity="1.000000" stroke="none" 
	d="
M311.492157,441.889282 
	C306.739258,429.667542 302.451141,417.513367 298.153595,405.362488 
	C297.491791,403.491272 296.786835,401.635315 296.070068,399.404175 
	C297.442108,399.023254 298.845886,399.010406 300.671722,398.980072 
	C309.350189,398.978333 317.606659,399.000549 325.863098,399.008026 
	C334.795776,399.016144 334.795776,399.010132 337.647400,407.969727 
	C339.786621,413.360016 341.607513,418.544922 343.749237,423.900269 
	C345.073792,427.458282 346.037109,430.858459 347.089874,434.230713 
	C349.083527,440.616760 348.199463,441.966949 341.760132,441.981140 
	C331.824768,442.003082 321.889282,441.968536 311.492157,441.889282 
z"/>
<path fill="#FED130" opacity="1.000000" stroke="none" 
	d="
M263.973236,398.652252 
	C247.291718,398.998627 230.567276,398.993591 213.366898,398.967651 
	C223.372986,381.161804 231.966202,362.583282 236.320984,342.278931 
	C238.059296,334.174011 239.477158,326.000366 241.119980,317.435181 
	C241.466705,318.267426 241.977173,319.524658 241.966293,320.777344 
	C241.723511,348.768219 249.150070,374.572998 263.973236,398.652252 
z"/>
<path fill="#FF901D" opacity="1.000000" stroke="none" 
	d="
M46.401909,178.924316 
	C45.735481,178.192917 45.038868,177.300751 45.076321,176.440567 
	C45.684517,162.472061 46.371418,148.506851 47.097458,134.543854 
	C47.147167,133.587845 47.647354,132.655258 47.997662,131.309143 
	C56.641514,123.499992 65.168320,116.024719 73.868935,108.757523 
	C75.250137,107.603874 77.413780,107.387016 79.215683,106.737053 
	C79.473549,108.612343 80.423073,110.724152 79.875954,112.324181 
	C76.562698,122.013664 73.239845,131.725357 69.287750,141.164825 
	C63.597324,154.756302 55.966564,167.277649 46.401909,178.924316 
z"/>
<path fill="#FF901D" opacity="1.000000" stroke="none" 
	d="
M465.619019,130.831436 
	C466.468811,134.631531 467.311432,138.343689 467.462830,142.083832 
	C467.953766,154.212585 468.191315,166.351608 468.218933,178.779358 
	C457.043304,166.872498 449.466461,152.633133 443.149475,137.765045 
	C439.474579,129.115555 436.908081,119.987663 434.037933,111.012642 
	C433.654968,109.815163 433.992462,107.474701 434.763702,107.046829 
	C435.776184,106.485138 437.949677,106.803963 438.930206,107.599281 
	C444.168182,111.848007 449.215881,116.333839 454.277954,120.796082 
	C457.991486,124.069572 461.625763,127.432976 465.619019,130.831436 
z"/>
<path fill="#FF901D" opacity="1.000000" stroke="none" 
	d="
M161.061691,397.534149 
	C154.013016,392.406342 146.665253,387.150360 139.912567,381.217072 
	C134.886505,376.800903 130.631058,371.507660 125.983414,366.255249 
	C125.622955,354.666870 125.228195,343.429321 125.089638,332.188568 
	C125.068802,330.498535 126.245583,328.793701 126.868362,327.095734 
	C128.340118,327.997192 130.299103,328.555847 131.210602,329.851471 
	C145.105957,349.602448 155.550659,370.969330 160.964600,394.626312 
	C161.145889,395.418549 161.007477,396.283936 161.061691,397.534149 
z"/>
<path fill="#FF901D" opacity="1.000000" stroke="none" 
	d="
M388.038025,365.457031 
	C383.716797,370.761475 379.740356,376.029694 374.930023,380.374664 
	C368.125336,386.520966 360.705017,391.985718 353.220398,397.848267 
	C355.843658,387.850281 357.735260,377.270538 362.004211,367.757690 
	C367.771576,354.905762 375.278442,342.823761 382.284729,330.551727 
	C383.184662,328.975403 385.556671,328.239471 387.246735,327.114258 
	C387.831177,329.010223 388.939880,330.913544 388.913300,332.800903 
	C388.762299,343.538910 388.340363,354.273132 388.038025,365.457031 
z"/>
<path fill="#FF901D" opacity="1.000000" stroke="none" 
	d="
M62.007858,262.644470 
	C58.553493,252.635086 55.045807,242.357758 52.096478,231.922607 
	C50.813217,227.382248 50.676754,222.517776 50.037849,217.352905 
	C55.969814,207.779343 61.802715,198.599060 67.874847,189.579834 
	C68.909691,188.042740 70.969070,187.195389 72.555130,186.029388 
	C73.369965,187.802109 74.912247,189.584183 74.889618,191.346146 
	C74.589592,214.701248 72.714630,237.816452 63.111958,259.579437 
	C62.724926,260.456573 62.488014,261.399963 62.007858,262.644470 
z"/>
<path fill="#FF901D" opacity="1.000000" stroke="none" 
	d="
M463.617218,216.797989 
	C462.149872,232.590256 458.367981,247.784302 452.424194,262.739960 
	C446.120270,249.478714 442.282593,235.389694 441.025299,220.651993 
	C440.213135,211.132111 439.520111,201.595734 439.120270,192.052231 
	C439.037994,190.088821 440.494019,188.060959 441.241028,186.062805 
	C442.947723,187.301239 445.186462,188.189026 446.272400,189.836624 
	C452.103424,198.683655 457.647491,207.719818 463.617218,216.797989 
z"/>
<path fill="#FF901D" opacity="1.000000" stroke="none" 
	d="
M101.428253,336.838776 
	C95.953682,329.855621 90.505005,322.823181 85.824089,315.312256 
	C82.360207,309.754120 79.895576,303.573242 76.960747,297.286255 
	C79.607712,287.246735 82.142586,277.549255 85.045113,267.963043 
	C85.800117,265.469513 87.702805,263.323486 89.078339,261.017822 
	C90.705711,263.384613 93.020370,265.533112 93.852432,268.152527 
	C100.927513,290.425659 103.350082,313.285217 101.428253,336.838776 
z"/>
<path fill="#FF901D" opacity="1.000000" stroke="none" 
	d="
M436.891571,296.555115 
	C434.334595,302.701019 432.060638,308.774445 428.765869,314.231506 
	C424.084747,321.984833 418.652771,329.284821 413.235077,336.936646 
	C412.621857,336.392456 412.071716,335.699585 412.043976,334.986420 
	C411.242401,314.370453 412.444122,293.959747 418.458160,274.057953 
	C419.443268,270.797913 420.137146,267.419800 421.458191,264.305176 
	C422.037506,262.939331 423.854156,262.098297 425.108978,261.018982 
	C426.068176,262.139618 427.533997,263.113922 427.906647,264.403961 
	C430.959167,274.971863 433.808044,285.598541 436.891571,296.555115 
z"/>
<path fill="#FF911D" opacity="1.000000" stroke="none" 
	d="
M307.487946,152.986084 
	C307.016937,144.014023 307.012390,135.048645 307.013123,125.626114 
	C317.624329,125.115128 328.230713,125.104492 338.835846,124.984764 
	C342.701599,124.941124 344.113678,126.832985 344.017883,130.498169 
	C343.900940,134.970917 343.992065,139.449066 343.991699,143.924881 
	C343.990997,152.977722 343.990570,152.977722 334.523865,153.033875 
	C325.378143,153.036957 316.666260,153.014862 307.487946,152.986084 
z"/>
<path fill="#FF901D" opacity="1.000000" stroke="none" 
	d="
M44.943439,264.905823 
	C51.600906,280.055939 58.258377,295.206085 64.928368,310.722900 
	C53.168606,306.505829 42.680981,299.919098 34.130051,290.573242 
	C21.679394,276.965118 13.569674,260.892151 8.247371,243.359055 
	C7.906753,242.236984 8.812147,239.610046 9.281446,239.574417 
	C10.855467,239.454956 12.855470,239.734756 14.051303,240.676132 
	C23.066593,247.772964 31.918785,255.076721 40.856640,262.272705 
	C41.603580,262.874084 42.605148,263.159180 43.776855,263.285248 
	C44.065292,262.979279 44.026302,262.947296 43.729992,263.207367 
	C43.936935,263.946899 44.440189,264.426361 44.943439,264.905823 
z"/>
<path fill="#FF901D" opacity="1.000000" stroke="none" 
	d="
M449.390137,310.935669 
	C452.063812,304.468811 455.169220,297.891541 458.047882,291.216492 
	C461.716919,282.708710 465.202637,274.121918 469.260315,265.130463 
	C469.843475,264.112701 469.933746,263.533691 470.023987,262.954651 
	C470.023987,262.954651 469.973267,262.948303 469.953888,262.963745 
	C473.899567,260.542389 478.110779,258.424652 481.775055,255.597931 
	C488.121765,250.701920 494.065613,245.286148 500.342377,240.294540 
	C501.391602,239.460175 503.711334,238.988205 504.636017,239.590088 
	C505.509460,240.158630 505.894745,242.534332 505.509888,243.820435 
	C499.816559,262.845551 490.774719,280.007385 476.433075,293.999390 
	C468.768158,301.477509 459.719055,306.928284 449.390137,310.935669 
z"/>
<path fill="#FF901D" opacity="1.000000" stroke="none" 
	d="
M84.530281,343.945374 
	C89.348900,349.197601 93.702522,354.539734 98.244492,359.716644 
	C104.660538,367.029541 111.215813,374.220276 117.826523,381.776672 
	C100.755333,382.290222 86.176163,375.025421 72.939766,365.188416 
	C60.803085,356.168701 50.460732,345.185059 42.628422,330.542664 
	C44.871300,330.235016 46.883129,329.311279 48.336338,329.861908 
	C60.332603,334.407166 72.225304,339.225739 84.530281,343.945374 
z"/>
<path fill="#FF901D" opacity="1.000000" stroke="none" 
	d="
M396.506439,382.051270 
	C402.821686,374.444794 409.655579,366.863525 416.318207,359.134705 
	C420.501770,354.281677 424.428253,349.207123 428.778809,344.079987 
	C440.868378,339.354095 452.625000,334.715454 464.459595,330.285217 
	C466.001709,329.707916 467.945282,330.203186 469.702942,330.201660 
	C469.447815,331.900543 469.718475,333.947510 468.858765,335.246185 
	C455.824097,354.936554 438.950928,370.235077 416.602142,378.519989 
	C410.464081,380.795410 403.524445,380.908661 396.506439,382.051270 
z"/>
<path fill="#FFFFFF" opacity="1.000000" stroke="none" 
	d="
M200.803726,279.608124 
	C186.299774,277.666199 173.639862,271.465698 162.343796,261.948730 
	C147.407959,249.365234 138.383377,233.376907 135.424789,214.373840 
	C133.705460,203.330673 134.089935,191.959961 133.491821,180.019516 
	C149.193268,180.019516 164.113174,180.019516 179.496994,180.063416 
	C179.973953,187.436600 180.219528,194.774170 179.958725,202.093689 
	C178.965302,229.972702 185.452942,255.793381 200.803726,279.608124 
z"/>
<path fill="#FFFFFF" opacity="1.000000" stroke="none" 
	d="
M334.022430,180.562042 
	C349.149078,180.100616 364.251495,180.100616 380.383514,180.100616 
	C379.945709,189.201920 379.307800,198.034714 379.153870,206.875931 
	C378.991394,216.212296 376.708160,224.987961 372.982117,233.423798 
	C366.542694,248.002899 356.614319,259.640747 343.232910,268.369507 
	C334.222321,274.247192 324.409363,277.974579 313.493774,279.978760 
	C318.086609,269.210510 323.481049,258.617218 327.951782,247.647507 
	C331.874573,238.022369 333.126801,227.765488 333.088165,217.286560 
	C333.043640,205.200150 333.665649,193.111267 334.022430,180.562042 
z"/>
<path fill="#FFFFFF" opacity="1.000000" stroke="none" 
	d="
M44.960411,264.594452 
	C44.440189,264.426361 43.936935,263.946899 43.704937,263.211090 
	C44.309925,263.397522 44.643658,263.840302 44.960411,264.594452 
z"/>
<path fill="#FFFFFF" opacity="1.000000" stroke="none" 
	d="
M469.728577,263.052002 
	C469.933746,263.533691 469.843475,264.112701 469.404694,264.798584 
	C469.181824,264.320038 469.307526,263.734711 469.728577,263.052002 
z"/>
</svg>