<svg id="Layer_1" data-name="Layer 1" xmlns="http://www.w3.org/2000/svg" viewBox="0 0 512 512"><defs><style>.cls-1{fill:#141f38;}</style></defs><title>newspaper-2-glyph</title><path class="cls-1" d="M393.85,3.85l68.36,68.36H393.85ZM39.38,39.38V472.62A39.43,39.43,0,0,0,78.77,512h17.9a52.35,52.35,0,0,1-17.9-39.38V39.38A52.35,52.35,0,0,1,96.67,0H78.77A39.43,39.43,0,0,0,39.38,39.38ZM249.44,380.72H183.79V420.1h65.64ZM380.72,0V78.77a6.56,6.56,0,0,0,6.56,6.56h85.33V472.62A39.43,39.43,0,0,1,433.23,512H131.28A39.43,39.43,0,0,1,91.9,472.62V39.38A39.43,39.43,0,0,1,131.28,0ZM170.67,85.33a6.56,6.56,0,0,0,6.56,6.56H295.38a6.56,6.56,0,0,0,0-13.13H177.23A6.56,6.56,0,0,0,170.67,85.33Zm0,183.79a6.56,6.56,0,0,0,6.56,6.56H256a6.56,6.56,0,1,0,0-13.13H177.23A6.56,6.56,0,0,0,170.67,269.13Zm6.56-45.95H256a6.56,6.56,0,1,0,0-13.13H177.23a6.56,6.56,0,0,0,0,13.13Zm85.33,144.41h-91.9v65.64h91.9Zm131.28,59.08a6.56,6.56,0,0,0-6.56-6.56H308.51a6.56,6.56,0,1,0,0,13.13h78.77A6.56,6.56,0,0,0,393.85,426.67Zm0-52.51a6.56,6.56,0,0,0-6.56-6.56H308.51a6.56,6.56,0,1,0,0,13.13h78.77A6.56,6.56,0,0,0,393.85,374.15Zm0-52.51a6.56,6.56,0,0,0-6.56-6.56H177.23a6.56,6.56,0,0,0,0,13.13H387.28A6.56,6.56,0,0,0,393.85,321.64Zm0-52.51a6.56,6.56,0,0,0-6.56-6.56H308.51a6.56,6.56,0,1,0,0,13.13h78.77A6.56,6.56,0,0,0,393.85,269.13Zm0-52.51a6.56,6.56,0,0,0-6.56-6.56H308.51a6.56,6.56,0,1,0,0,13.13h78.77A6.56,6.56,0,0,0,393.85,216.62ZM177.23,157.54a6.56,6.56,0,0,0,0,13.13H387.28a6.56,6.56,0,0,0,0-13.13Z"/></svg>