<svg version="1.1" id="Layer_1" xmlns="http://www.w3.org/2000/svg" xmlns:xlink="http://www.w3.org/1999/xlink" x="0px" y="0px"
	 width="100%" viewBox="0 0 256 256" enable-background="new 0 0 256 256" xml:space="preserve">
<path fill="#FFFFFF" opacity="1.000000" stroke="none" 
	d="
M257.000000,73.000000 
	C257.000000,134.274643 257.000000,195.549301 257.000000,256.911987 
	C171.666718,256.911987 86.333374,256.911987 1.000015,256.916718 
	C1.000000,250.927216 1.000000,244.932983 1.337755,238.571411 
	C7.217994,243.436722 9.059502,243.423599 14.920353,238.920471 
	C19.034811,240.005844 22.455833,241.905243 25.576595,241.498840 
	C30.307222,240.882828 32.268604,235.496872 30.496210,230.002777 
	C26.154997,216.545883 21.696447,203.126846 17.337383,189.675644 
	C16.739250,187.829926 16.058395,185.887955 16.057131,183.990128 
	C16.034252,149.660660 16.109901,115.331146 16.543581,81.002487 
	C26.587370,84.672714 36.252098,88.342079 45.953594,92.478104 
	C45.993519,109.253975 46.222885,125.567360 45.923019,141.871002 
	C45.711109,153.392349 51.574837,160.945206 60.835255,166.304916 
	C81.922462,178.509720 105.149048,181.684311 129.479218,181.910278 
	C137.602936,181.322083 145.266693,180.577789 152.943695,180.014252 
	C168.559631,178.867966 183.150360,174.235901 196.695160,166.587540 
	C206.292404,161.168228 212.340439,153.390640 212.077087,141.437683 
	C211.714264,124.971085 212.040680,108.489296 212.407425,91.873672 
	C220.244446,88.822693 227.818771,86.084473 235.226730,82.952736 
	C242.574081,79.846611 250.860703,78.751495 257.000000,73.000000 
z"/>
<path fill="#FFFFFF" opacity="1.000000" stroke="none" 
	d="
M1.000000,65.000000 
	C1.000000,43.690990 1.000000,22.381981 1.000000,1.036486 
	C86.211700,1.036486 171.423416,1.036486 257.000000,1.036486 
	C257.000000,22.019487 257.000000,43.041084 256.663025,64.444153 
	C253.277664,63.096054 250.393356,60.935070 247.155518,59.703693 
	C215.017471,47.481350 182.840439,35.360592 150.625885,23.341194 
	C143.524841,20.691767 136.232193,18.555820 128.635498,16.108797 
	C126.523758,16.505081 124.756325,16.846987 123.092094,17.466251 
	C98.079407,26.773560 73.059959,36.063354 48.086185,45.474266 
	C34.571514,50.567024 21.140240,55.881100 7.397202,61.282700 
	C5.082041,62.646709 3.041020,63.823357 1.000000,65.000000 
z"/>
<path fill="#5A5A5A" opacity="1.000000" stroke="none" 
	d="
M129.027786,16.183426 
	C136.232193,18.555820 143.524841,20.691767 150.625885,23.341194 
	C182.840439,35.360592 215.017471,47.481350 247.155518,59.703693 
	C250.393356,60.935070 253.277664,63.096054 256.663025,64.912811 
	C257.000000,67.370560 257.000000,69.741112 257.000000,72.555832 
	C250.860703,78.751495 242.574081,79.846611 235.226730,82.952736 
	C227.818771,86.084473 220.244446,88.822693 212.014267,91.869675 
	C205.495499,94.015274 199.672562,95.934982 193.921341,98.049728 
	C172.268890,106.011444 150.639786,114.036667 128.998703,121.787247 
	C128.996521,121.369141 128.997559,121.201897 128.999039,120.562546 
	C128.972702,105.656532 128.945938,91.222649 129.207428,76.587524 
	C135.440857,74.238922 137.839340,70.348564 135.202423,65.937386 
	C133.957184,63.854263 131.064667,62.755829 128.944122,60.726780 
	C128.989059,45.556026 129.008423,30.869726 129.027786,16.183426 
z"/>
<path fill="#FDBF00" opacity="1.000000" stroke="none" 
	d="
M128.918533,61.211235 
	C131.064667,62.755829 133.957184,63.854263 135.202423,65.937386 
	C137.839340,70.348564 135.440857,74.238922 128.746506,76.543304 
	C92.307961,76.694923 56.618542,76.710213 20.929260,76.648193 
	C17.786118,76.642731 15.059312,76.590073 16.164520,81.001640 
	C16.109901,115.331146 16.034252,149.660660 16.057131,183.990128 
	C16.058395,185.887955 16.739250,187.829926 17.337383,189.675644 
	C21.696447,203.126846 26.154997,216.545883 30.496210,230.002777 
	C32.268604,235.496872 30.307222,240.882828 25.576595,241.498840 
	C22.455833,241.905243 19.034811,240.005844 14.920353,238.920471 
	C9.059502,243.423599 7.217994,243.436722 1.337755,238.102051 
	C1.000000,180.645767 1.000000,123.291542 1.000000,65.468658 
	C3.041020,63.823357 5.082041,62.646709 7.734583,61.458817 
	C13.653834,61.403755 18.961521,61.328117 24.269297,61.321274 
	C59.152363,61.276318 94.035454,61.246197 128.918533,61.211235 
z"/>
<path fill="#444444" opacity="1.000000" stroke="none" 
	d="
M128.998611,121.034660 
	C128.997559,121.201897 128.996521,121.369141 128.997894,122.251923 
	C129.008621,142.590302 129.016937,162.213135 129.025253,181.835983 
	C105.149048,181.684311 81.922462,178.509720 60.835255,166.304916 
	C51.574837,160.945206 45.711109,153.392349 45.923019,141.871002 
	C46.222885,125.567360 45.993519,109.253975 46.357712,92.475342 
	C47.706829,92.136093 48.755974,92.085663 49.660400,92.423103 
	C67.339943,99.019272 84.963966,105.766304 102.685295,112.247498 
	C111.366470,115.422447 120.221992,118.120674 128.998611,121.034660 
z"/>
<path fill="#292929" opacity="1.000000" stroke="none" 
	d="
M129.479218,181.910278 
	C129.016937,162.213135 129.008621,142.590302 129.001129,122.502777 
	C150.639786,114.036667 172.268890,106.011444 193.921341,98.049728 
	C199.672562,95.934982 205.495499,94.015274 211.678665,92.010010 
	C212.040680,108.489296 211.714264,124.971085 212.077087,141.437683 
	C212.340439,153.390640 206.292404,161.168228 196.695160,166.587540 
	C183.150360,174.235901 168.559631,178.867966 152.943695,180.014252 
	C145.266693,180.577789 137.602936,181.322083 129.479218,181.910278 
z"/>
<path fill="#6E6E6E" opacity="1.000000" stroke="none" 
	d="
M128.999039,120.562546 
	C120.221992,118.120674 111.366470,115.422447 102.685295,112.247498 
	C84.963966,105.766304 67.339943,99.019272 49.660400,92.423103 
	C48.755974,92.085663 47.706829,92.136093 46.320946,92.008690 
	C36.252098,88.342079 26.587370,84.672714 16.543581,81.002487 
	C15.059312,76.590073 17.786118,76.642731 20.929260,76.648193 
	C56.618542,76.710213 92.307961,76.694923 128.458252,76.744537 
	C128.945938,91.222649 128.972702,105.656532 128.999039,120.562546 
z"/>
<path fill="#6E6E6E" opacity="1.000000" stroke="none" 
	d="
M128.944122,60.726780 
	C94.035454,61.246197 59.152363,61.276318 24.269297,61.321274 
	C18.961521,61.328117 13.653834,61.403755 8.008724,61.271454 
	C21.140240,55.881100 34.571514,50.567024 48.086185,45.474266 
	C73.059959,36.063354 98.079407,26.773560 123.092094,17.466251 
	C124.756325,16.846987 126.523758,16.505081 128.635498,16.108799 
	C129.008423,30.869726 128.989059,45.556026 128.944122,60.726780 
z"/>
</svg>