<svg version="1.1" id="Layer_1" xmlns="http://www.w3.org/2000/svg" xmlns:xlink="http://www.w3.org/1999/xlink" x="0px" y="0px"
	 width="100%" viewBox="0 0 256 256" enable-background="new 0 0 256 256" xml:space="preserve">
<path fill="#FFFFFF" opacity="1.000000" stroke="none" 
	d="
M1.000002,222.000000 
	C1.000000,148.379532 1.000000,74.759048 1.000000,1.069288 
	C86.233582,1.069288 171.467239,1.069288 257.000000,1.069288 
	C257.000000,74.353958 257.000000,147.708313 256.653229,221.483398 
	C255.663712,221.191879 254.811005,220.581436 254.409042,219.752457 
	C245.068176,200.488525 235.789536,181.194427 226.463455,161.923279 
	C224.676529,158.230804 222.738373,154.611481 220.922882,150.495102 
	C220.984772,110.534378 220.793152,71.035194 221.140854,31.540747 
	C221.230103,21.404421 215.840286,16.907814 206.528656,16.932240 
	C154.865601,17.067747 103.201996,16.997189 51.538586,16.997276 
	C50.538651,16.997278 49.535038,16.942572 48.539371,17.008078 
	C41.792130,17.451990 37.038879,21.761766 37.034676,27.972361 
	C37.006905,68.967636 37.085804,109.962975 36.835571,151.147995 
	C33.132526,158.343521 29.680908,165.328827 26.324579,172.359634 
	C20.250282,185.084015 14.346041,197.891174 8.125568,210.543198 
	C6.151097,214.559143 3.397220,218.191895 1.000002,222.000000 
z"/>
<path fill="#F0F1F1" opacity="1.000000" stroke="none" 
	d="
M1.000002,222.416656 
	C3.397220,218.191895 6.151097,214.559143 8.125568,210.543198 
	C14.346041,197.891174 20.250282,185.084015 26.324579,172.359634 
	C29.680908,165.328827 33.132526,158.343521 37.295456,151.159393 
	C98.989807,150.973526 159.929886,150.965958 220.869980,150.958405 
	C222.738373,154.611481 224.676529,158.230804 226.463455,161.923279 
	C235.789536,181.194427 245.068176,200.488525 254.409042,219.752457 
	C254.811005,220.581436 255.663712,221.191879 256.653229,221.952057 
	C257.000000,223.388885 257.000000,224.777786 256.531433,226.572784 
	C171.041916,226.985931 86.020958,226.992966 1.000000,227.000000 
	C1.000000,225.611115 1.000000,224.222214 1.000002,222.416656 
M127.500000,217.996841 
	C137.521011,217.996841 147.542007,217.996841 158.473236,217.996841 
	C154.463348,209.950974 151.128220,202.926743 147.407883,196.112823 
	C146.768738,194.942230 144.500580,194.101791 142.965698,194.071136 
	C133.661316,193.885223 124.350830,193.930038 115.043861,194.032089 
	C113.687744,194.046936 111.580635,194.370392 111.107277,195.246216 
	C107.205368,202.465836 103.607239,209.849640 99.507904,217.996826 
	C109.275917,217.996826 117.887955,217.996826 127.500000,217.996841 
M140.380539,180.791916 
	C119.101227,180.791916 97.821922,180.791916 76.266777,180.791916 
	C75.726723,183.103973 75.256210,185.118317 74.703033,187.486572 
	C98.486275,187.486572 121.693306,187.486572 145.195984,187.486572 
	C144.714554,184.499374 147.126373,180.371658 140.380539,180.791916 
M168.979752,184.480331 
	C170.076340,185.581390 171.071701,187.476852 172.288834,187.631958 
	C175.701447,188.066849 179.205597,187.783508 183.406815,187.783508 
	C182.080658,182.262711 180.898621,177.341904 179.725220,172.457001 
	C175.316788,172.457001 171.275558,172.457001 166.906464,172.457001 
	C167.612381,176.451675 168.246231,180.038498 168.979752,184.480331 
M47.311611,169.685181 
	C54.765514,169.685272 62.229702,169.449387 69.669472,169.773743 
	C74.148087,169.968994 76.079659,168.456467 75.602165,163.596161 
	C66.628258,163.596161 57.710995,163.436356 48.812389,163.771606 
	C47.505337,163.820847 46.199654,166.156189 45.119907,167.602890 
	C44.954918,167.823975 46.023785,168.965927 47.311611,169.685181 
M168.410660,161.711609 
	C171.155457,161.711609 173.900238,161.711609 177.141266,161.711609 
	C176.566772,159.372009 176.187851,157.828796 175.752472,156.055756 
	C167.232834,156.055756 158.943787,156.047974 150.654800,156.068161 
	C149.853928,156.070099 149.053497,156.245377 147.872681,156.385223 
	C147.993591,158.134094 148.101227,159.690826 148.240921,161.711288 
	C154.878494,161.711288 161.156143,161.711288 168.410660,161.711609 
M131.187683,172.847183 
	C131.513718,179.431839 134.001953,180.432739 144.187592,178.006027 
	C144.187592,175.991867 144.187592,173.969086 144.187592,171.418213 
	C139.688675,171.652786 135.608627,171.865524 131.187683,172.847183 
M125.692261,171.740936 
	C121.769348,171.740936 117.846428,171.740936 113.787766,171.740936 
	C113.787766,174.209518 113.787766,176.248016 113.787766,178.743713 
	C116.273033,178.743713 118.387489,178.745071 120.501945,178.743454 
	C127.061378,178.738449 127.061378,178.738007 125.692261,171.740936 
M158.996643,171.594666 
	C155.744415,171.594666 152.492172,171.594666 149.271011,171.594666 
	C149.117935,179.356049 152.518524,180.834869 163.457581,177.559219 
	C162.174667,175.438736 161.014435,173.520996 158.996643,171.594666 
M95.485748,176.559204 
	C98.542305,181.363022 103.137955,177.848862 106.951477,178.350311 
	C107.571480,178.431854 108.716553,174.520126 109.887817,171.838547 
	C104.596077,171.838547 100.511620,171.838547 96.217476,171.838547 
	C95.999832,173.192871 95.793221,174.478546 95.485748,176.559204 
M202.791489,174.053864 
	C204.396698,179.206619 208.489502,180.325470 217.648880,177.658569 
	C216.281265,175.559402 215.153595,172.092072 213.711578,171.955978 
	C210.065781,171.611954 206.278671,172.765427 202.791489,174.053864 
M84.376572,178.746185 
	C90.873329,178.713242 90.873329,178.713242 90.591843,171.940094 
	C86.520462,171.940094 82.451523,171.940094 78.253487,171.940094 
	C77.737160,174.248764 77.291458,176.241623 76.731361,178.745956 
	C79.519722,178.745956 81.496506,178.745956 84.376572,178.746185 
M42.225216,173.773483 
	C41.754051,175.252243 41.282890,176.731003 40.769783,178.341415 
	C54.191772,179.732956 54.291588,179.687378 55.416145,170.983566 
	C50.961678,171.702484 46.778660,172.377579 42.225216,173.773483 
M198.695068,175.960556 
	C196.978165,170.987366 194.511749,170.306595 184.727493,172.317871 
	C185.183060,174.359283 185.637390,176.395248 186.159119,178.733185 
	C189.888962,178.733185 193.374191,178.842636 196.841766,178.643936 
	C197.563950,178.602554 198.220810,177.420990 198.695068,175.960556 
M62.322861,171.623871 
	C60.994545,173.590958 59.666229,175.558044 57.734211,178.419144 
	C63.337040,178.419144 67.406143,178.419144 71.933533,178.419144 
	C72.370018,176.348343 72.821693,174.205475 73.371613,171.596497 
	C69.467232,171.596497 66.318893,171.596497 62.322861,171.623871 
M52.752747,182.052261 
	C45.638889,178.084183 38.592209,180.670914 37.640347,187.796204 
	C40.306309,187.796204 42.997963,187.465195 45.573402,187.871246 
	C49.779682,188.534424 51.668369,186.565109 52.752747,182.052261 
M69.603691,187.324768 
	C70.135460,185.344391 70.667229,183.364014 71.360931,180.780594 
	C68.392036,180.780594 66.074570,181.064743 63.852863,180.724182 
	C58.457722,179.897202 56.317753,182.312408 56.509235,187.694077 
	C60.612900,187.694077 64.714417,187.694077 69.603691,187.324768 
M156.548965,187.796188 
	C158.956284,187.796188 161.363617,187.796188 164.322723,187.796188 
	C163.727936,184.934906 163.310638,182.927460 162.941833,181.153366 
	C158.286804,181.153366 154.216171,181.153366 149.887436,181.153366 
	C150.055237,183.468948 150.194641,185.392700 150.368805,187.796021 
	C152.370575,187.796021 153.999161,187.796021 156.548965,187.796188 
M200.866180,183.429062 
	C199.873657,182.549698 198.940613,181.007462 197.877731,180.912064 
	C194.321533,180.592865 190.718933,180.790970 186.623322,180.790970 
	C187.273315,183.474213 187.762268,185.492661 188.235916,187.447876 
	C192.949249,187.447876 197.277069,187.447876 201.907578,187.447876 
	C201.550323,186.107010 201.301712,185.173950 200.866180,183.429062 
M216.220734,187.796082 
	C217.654541,187.796082 219.088333,187.796082 220.624405,187.796082 
	C218.687378,180.004211 216.639145,179.193817 205.353317,181.366806 
	C206.980408,187.796509 206.980408,187.796509 216.220734,187.796082 
M209.131348,169.690704 
	C210.500778,169.579102 211.870209,169.467499 213.342331,169.347519 
	C211.204041,162.797745 209.872314,162.334946 199.416260,164.117905 
	C199.372955,170.756943 204.107056,169.780533 209.131348,169.690704 
M183.095612,168.506439 
	C187.268585,169.028976 191.441574,169.551514 195.901840,170.110031 
	C194.697601,162.773026 194.053482,162.531631 182.086823,164.008881 
	C182.361862,165.265808 182.629852,166.490479 183.095612,168.506439 
M134.779617,169.703751 
	C137.718216,169.703751 140.656815,169.703751 143.555084,169.703751 
	C143.900131,163.091705 140.592163,161.817230 129.734406,164.782562 
	C131.378174,166.728760 132.632965,168.214432 134.779617,169.703751 
M115.434639,163.760071 
	C114.875137,165.496689 114.315636,167.233307 113.636505,169.341217 
	C118.557007,169.341217 122.606079,169.341217 126.793571,169.341217 
	C126.793571,167.352921 126.793571,165.728058 126.793571,163.603470 
	C123.164467,163.603470 119.712334,163.603470 115.434639,163.760071 
M178.840286,168.584122 
	C177.390244,162.953445 174.808319,162.104385 165.731567,164.279724 
	C165.087738,168.537567 166.846420,170.292343 171.161804,169.730301 
	C173.583374,169.414902 176.050690,169.450821 178.840286,168.584122 
M89.832779,169.676498 
	C90.943092,168.026337 92.053406,166.376190 93.383896,164.398804 
	C81.771996,162.121246 79.832779,162.912674 79.523094,169.692963 
	C82.683846,169.692963 85.831497,169.692963 89.832779,169.676498 
M156.410904,169.698044 
	C157.950378,169.580917 159.489853,169.463791 160.993729,169.349365 
	C160.776520,162.941208 158.941574,162.251450 148.590118,164.108353 
	C148.221283,169.695068 148.221283,169.695068 156.410904,169.698044 
M109.618050,167.258240 
	C108.928932,159.316101 103.068130,164.416809 99.865295,163.862122 
	C95.897804,163.174988 97.030540,166.873184 97.227089,170.442719 
	C101.580070,169.595215 105.517632,168.828583 109.618050,167.258240 
M61.348152,157.181137 
	C54.481472,153.901703 48.583603,155.810684 48.440594,161.722488 
	C50.922932,161.722488 53.423515,161.504822 55.869541,161.777176 
	C58.977795,162.123260 60.521290,160.749390 61.348152,157.181137 
M201.051651,161.721359 
	C203.971970,161.721359 206.892288,161.721359 209.900391,161.721359 
	C208.810349,155.380890 207.177872,154.818741 195.499908,156.767181 
	C197.387817,158.744354 198.803757,160.227264 201.051651,161.721359 
M191.036407,161.701767 
	C191.621780,160.673706 192.777008,159.557724 192.635712,158.641800 
	C192.488037,157.684586 191.153244,156.273590 190.232285,156.187683 
	C187.004013,155.886520 183.730469,156.070892 180.065445,156.070892 
	C180.632660,158.330017 181.022278,159.881760 181.483002,161.716690 
	C184.527954,161.716690 187.340668,161.716690 191.036407,161.701767 
M85.839371,156.044785 
	C81.638435,155.552460 81.649117,158.467148 81.355789,161.293594 
	C93.585602,162.447937 95.042099,161.775040 93.449318,156.044189 
	C91.282501,156.044189 89.006027,156.044189 85.839371,156.044785 
M64.925789,160.472351 
	C68.794655,161.019592 72.663528,161.566818 76.715523,162.139954 
	C77.116714,159.517395 77.351730,157.981064 77.647545,156.047333 
	C74.530418,156.047333 71.866135,156.240402 69.242805,155.995224 
	C66.390640,155.728653 65.355431,157.173325 64.925789,160.472351 
M140.213486,161.714127 
	C145.063950,161.483856 142.828842,158.600632 142.582031,156.292328 
	C138.664749,156.292328 135.102829,156.292328 131.284546,156.292328 
	C131.284546,158.083527 131.284546,159.629715 131.284546,161.717331 
	C134.110626,161.717331 136.703537,161.717331 140.213486,161.714127 
M117.792114,161.714539 
	C120.712105,161.714539 123.632103,161.714539 126.681335,161.714539 
	C126.681335,159.576996 126.681335,158.029907 126.681335,156.368652 
	C122.686096,156.368652 118.995087,156.368652 113.839378,156.368652 
	C115.192543,158.727844 116.043297,160.211105 117.792114,161.714539 
M102.673386,156.051254 
	C98.506638,155.509079 97.357872,157.479568 98.247498,161.398560 
	C102.106445,161.398560 105.851959,161.398560 109.809776,161.398560 
	C109.809776,159.526291 109.809776,157.971481 109.809776,156.051208 
	C107.547287,156.051208 105.573006,156.051208 102.673386,156.051254 
z"/>
<path fill="#FFFFFF" opacity="1.000000" stroke="none" 
	d="
M257.000000,232.000000 
	C257.000000,240.321396 257.000000,248.642807 257.000000,256.957825 
	C171.666656,256.951477 86.333313,256.951477 1.000000,256.951477 
	C1.000000,248.914413 1.000000,240.925888 1.280527,232.652649 
	C5.184217,238.466919 10.372338,241.101334 17.624504,241.087555 
	C91.098686,240.947998 164.573578,240.900116 238.047226,241.144669 
	C246.306274,241.172150 252.580048,238.995468 257.000000,232.000000 
z"/>
<path fill="#CFD7E1" opacity="1.000000" stroke="none" 
	d="
M257.000000,231.583344 
	C252.580048,238.995468 246.306274,241.172150 238.047226,241.144669 
	C164.573578,240.900116 91.098686,240.947998 17.624504,241.087555 
	C10.372338,241.101334 5.184217,238.466919 1.280527,232.183990 
	C1.000000,230.611115 1.000000,229.222214 1.000000,227.416656 
	C86.020958,226.992966 171.041916,226.985931 256.531433,226.989456 
	C257.000000,228.388885 257.000000,229.777786 257.000000,231.583344 
z"/>
<path fill="#415B6D" opacity="1.000000" stroke="none" 
	d="
M220.922882,150.495102 
	C159.929886,150.965958 98.989807,150.973526 37.589836,150.969696 
	C37.085804,109.962975 37.006905,68.967636 37.034676,27.972361 
	C37.038879,21.761766 41.792130,17.451990 48.539371,17.008078 
	C49.535038,16.942572 50.538651,16.997278 51.538586,16.997276 
	C103.201996,16.997189 154.865601,17.067747 206.528656,16.932240 
	C215.840286,16.907814 221.230103,21.404421 221.140854,31.540747 
	C220.793152,71.035194 220.984772,110.534378 220.922882,150.495102 
M48.232807,103.499992 
	C48.232807,115.582062 48.232807,127.664124 48.232807,139.708694 
	C102.482010,139.708694 155.876785,139.708694 209.337769,139.708694 
	C209.337769,102.640724 209.337769,65.941063 209.337769,29.254402 
	C155.516266,29.254402 102.125183,29.254402 48.233250,29.254402 
	C48.233250,53.917866 48.233250,78.208923 48.232807,103.499992 
z"/>
<path fill="#CED6E0" opacity="1.000000" stroke="none" 
	d="
M127.000000,217.996826 
	C117.887955,217.996826 109.275917,217.996826 99.507904,217.996826 
	C103.607239,209.849640 107.205368,202.465836 111.107277,195.246216 
	C111.580635,194.370392 113.687744,194.046936 115.043861,194.032089 
	C124.350830,193.930038 133.661316,193.885223 142.965698,194.071136 
	C144.500580,194.101791 146.768738,194.942230 147.407883,196.112823 
	C151.128220,202.926743 154.463348,209.950974 158.473236,217.996841 
	C147.542007,217.996841 137.521011,217.996841 127.000000,217.996826 
z"/>
<path fill="#4A6272" opacity="1.000000" stroke="none" 
	d="
M140.864929,180.792114 
	C147.126373,180.371658 144.714554,184.499374 145.195984,187.486572 
	C121.693306,187.486572 98.486275,187.486572 74.703033,187.486572 
	C75.256210,185.118317 75.726723,183.103973 76.266777,180.791916 
	C97.821922,180.791916 119.101227,180.791916 140.864929,180.792114 
z"/>
<path fill="#4A6272" opacity="1.000000" stroke="none" 
	d="
M168.929932,184.052826 
	C168.246231,180.038498 167.612381,176.451675 166.906464,172.457001 
	C171.275558,172.457001 175.316788,172.457001 179.725220,172.457001 
	C180.898621,177.341904 182.080658,182.262711 183.406815,187.783508 
	C179.205597,187.783508 175.701447,188.066849 172.288834,187.631958 
	C171.071701,187.476852 170.076340,185.581390 168.929932,184.052826 
z"/>
<path fill="#506776" opacity="1.000000" stroke="none" 
	d="
M46.916794,169.683578 
	C46.023785,168.965927 44.954918,167.823975 45.119907,167.602890 
	C46.199654,166.156189 47.505337,163.820847 48.812389,163.771606 
	C57.710995,163.436356 66.628258,163.596161 75.602165,163.596161 
	C76.079659,168.456467 74.148087,169.968994 69.669472,169.773743 
	C62.229702,169.449387 54.765514,169.685272 46.916794,169.683578 
z"/>
<path fill="#556B7A" opacity="1.000000" stroke="none" 
	d="
M167.922241,161.711456 
	C161.156143,161.711288 154.878494,161.711288 148.240921,161.711288 
	C148.101227,159.690826 147.993591,158.134094 147.872681,156.385223 
	C149.053497,156.245377 149.853928,156.070099 150.654800,156.068161 
	C158.943787,156.047974 167.232834,156.055756 175.752472,156.055756 
	C176.187851,157.828796 176.566772,159.372009 177.141266,161.711609 
	C173.900238,161.711609 171.155457,161.711609 167.922241,161.711456 
z"/>
<path fill="#4E6575" opacity="1.000000" stroke="none" 
	d="
M131.358124,172.462708 
	C135.608627,171.865524 139.688675,171.652786 144.187592,171.418213 
	C144.187592,173.969086 144.187592,175.991867 144.187592,178.006027 
	C134.001953,180.432739 131.513718,179.431839 131.358124,172.462708 
z"/>
<path fill="#4E6575" opacity="1.000000" stroke="none" 
	d="
M126.083206,171.910553 
	C127.061378,178.738007 127.061378,178.738449 120.501945,178.743454 
	C118.387489,178.745071 116.273033,178.743713 113.787766,178.743713 
	C113.787766,176.248016 113.787766,174.209518 113.787766,171.740936 
	C117.846428,171.740936 121.769348,171.740936 126.083206,171.910553 
z"/>
<path fill="#4E6575" opacity="1.000000" stroke="none" 
	d="
M159.425415,171.598969 
	C161.014435,173.520996 162.174667,175.438736 163.457581,177.559219 
	C152.518524,180.834869 149.117935,179.356049 149.271011,171.594666 
	C152.492172,171.594666 155.744415,171.594666 159.425415,171.598969 
z"/>
<path fill="#4E6575" opacity="1.000000" stroke="none" 
	d="
M95.536179,176.161713 
	C95.793221,174.478546 95.999832,173.192871 96.217476,171.838547 
	C100.511620,171.838547 104.596077,171.838547 109.887817,171.838547 
	C108.716553,174.520126 107.571480,178.431854 106.951477,178.350311 
	C103.137955,177.848862 98.542305,181.363022 95.536179,176.161713 
z"/>
<path fill="#4E6575" opacity="1.000000" stroke="none" 
	d="
M202.669830,173.686432 
	C206.278671,172.765427 210.065781,171.611954 213.711578,171.955978 
	C215.153595,172.092072 216.281265,175.559402 217.648880,177.658569 
	C208.489502,180.325470 204.396698,179.206619 202.669830,173.686432 
z"/>
<path fill="#4F6675" opacity="1.000000" stroke="none" 
	d="
M83.924927,178.746063 
	C81.496506,178.745956 79.519722,178.745956 76.731361,178.745956 
	C77.291458,176.241623 77.737160,174.248764 78.253487,171.940094 
	C82.451523,171.940094 86.520462,171.940094 90.591843,171.940094 
	C90.873329,178.713242 90.873329,178.713242 83.924927,178.746063 
z"/>
<path fill="#4E6575" opacity="1.000000" stroke="none" 
	d="
M42.410431,173.413086 
	C46.778660,172.377579 50.961678,171.702484 55.416145,170.983566 
	C54.291588,179.687378 54.191772,179.732956 40.769783,178.341415 
	C41.282890,176.731003 41.754051,175.252243 42.410431,173.413086 
z"/>
<path fill="#4E6575" opacity="1.000000" stroke="none" 
	d="
M198.801422,176.362717 
	C198.220810,177.420990 197.563950,178.602554 196.841766,178.643936 
	C193.374191,178.842636 189.888962,178.733185 186.159119,178.733185 
	C185.637390,176.395248 185.183060,174.359283 184.727493,172.317871 
	C194.511749,170.306595 196.978165,170.987366 198.801422,176.362717 
z"/>
<path fill="#4E6575" opacity="1.000000" stroke="none" 
	d="
M62.746704,171.610184 
	C66.318893,171.596497 69.467232,171.596497 73.371613,171.596497 
	C72.821693,174.205475 72.370018,176.348343 71.933533,178.419144 
	C67.406143,178.419144 63.337040,178.419144 57.734211,178.419144 
	C59.666229,175.558044 60.994545,173.590958 62.746704,171.610184 
z"/>
<path fill="#4C6373" opacity="1.000000" stroke="none" 
	d="
M52.611042,182.445343 
	C51.668369,186.565109 49.779682,188.534424 45.573402,187.871246 
	C42.997963,187.465195 40.306309,187.796204 37.640347,187.796204 
	C38.592209,180.670914 45.638889,178.084183 52.611042,182.445343 
z"/>
<path fill="#4D6574" opacity="1.000000" stroke="none" 
	d="
M69.209808,187.509430 
	C64.714417,187.694077 60.612900,187.694077 56.509235,187.694077 
	C56.317753,182.312408 58.457722,179.897202 63.852863,180.724182 
	C66.074570,181.064743 68.392036,180.780594 71.360931,180.780594 
	C70.667229,183.364014 70.135460,185.344391 69.209808,187.509430 
z"/>
<path fill="#4C6373" opacity="1.000000" stroke="none" 
	d="
M156.088348,187.796112 
	C153.999161,187.796021 152.370575,187.796021 150.368805,187.796021 
	C150.194641,185.392700 150.055237,183.468948 149.887436,181.153366 
	C154.216171,181.153366 158.286804,181.153366 162.941833,181.153366 
	C163.310638,182.927460 163.727936,184.934906 164.322723,187.796188 
	C161.363617,187.796188 158.956284,187.796188 156.088348,187.796112 
z"/>
<path fill="#4D6574" opacity="1.000000" stroke="none" 
	d="
M200.959656,183.834976 
	C201.301712,185.173950 201.550323,186.107010 201.907578,187.447876 
	C197.277069,187.447876 192.949249,187.447876 188.235916,187.447876 
	C187.762268,185.492661 187.273315,183.474213 186.623322,180.790970 
	C190.718933,180.790970 194.321533,180.592865 197.877731,180.912064 
	C198.940613,181.007462 199.873657,182.549698 200.959656,183.834976 
z"/>
<path fill="#4C6373" opacity="1.000000" stroke="none" 
	d="
M215.774567,187.796051 
	C206.980408,187.796509 206.980408,187.796509 205.353317,181.366806 
	C216.639145,179.193817 218.687378,180.004211 220.624405,187.796082 
	C219.088333,187.796082 217.654541,187.796082 215.774567,187.796051 
z"/>
<path fill="#516777" opacity="1.000000" stroke="none" 
	d="
M208.705566,169.690552 
	C204.107056,169.780533 199.372955,170.756943 199.416260,164.117905 
	C209.872314,162.334946 211.204041,162.797745 213.342331,169.347519 
	C211.870209,169.467499 210.500778,169.579102 208.705566,169.690552 
z"/>
<path fill="#516777" opacity="1.000000" stroke="none" 
	d="
M182.996735,168.110794 
	C182.629852,166.490479 182.361862,165.265808 182.086823,164.008881 
	C194.053482,162.531631 194.697601,162.773026 195.901840,170.110031 
	C191.441574,169.551514 187.268585,169.028976 182.996735,168.110794 
z"/>
<path fill="#536A79" opacity="1.000000" stroke="none" 
	d="
M134.333679,169.701935 
	C132.632965,168.214432 131.378174,166.728760 129.734406,164.782562 
	C140.592163,161.817230 143.900131,163.091705 143.555084,169.703751 
	C140.656815,169.703751 137.718216,169.703751 134.333679,169.701935 
z"/>
<path fill="#536A79" opacity="1.000000" stroke="none" 
	d="
M115.847420,163.681763 
	C119.712334,163.603470 123.164467,163.603470 126.793571,163.603470 
	C126.793571,165.728058 126.793571,167.352921 126.793571,169.341217 
	C122.606079,169.341217 118.557007,169.341217 113.636505,169.341217 
	C114.315636,167.233307 114.875137,165.496689 115.847420,163.681763 
z"/>
<path fill="#526878" opacity="1.000000" stroke="none" 
	d="
M178.668854,168.956299 
	C176.050690,169.450821 173.583374,169.414902 171.161804,169.730301 
	C166.846420,170.292343 165.087738,168.537567 165.733948,164.277344 
	C174.808319,162.104385 177.390244,162.953445 178.668854,168.956299 
z"/>
<path fill="#526878" opacity="1.000000" stroke="none" 
	d="
M89.405968,169.684723 
	C85.831497,169.692963 82.683846,169.692963 79.523094,169.692963 
	C79.832779,162.912674 81.771996,162.121246 93.383896,164.398804 
	C92.053406,166.376190 90.943092,168.026337 89.405968,169.684723 
z"/>
<path fill="#526978" opacity="1.000000" stroke="none" 
	d="
M155.957977,169.697937 
	C148.221283,169.695068 148.221283,169.695068 148.590118,164.108353 
	C158.941574,162.251450 160.776520,162.941208 160.993729,169.349365 
	C159.489853,169.463791 157.950378,169.580917 155.957977,169.697937 
z"/>
<path fill="#526978" opacity="1.000000" stroke="none" 
	d="
M109.536621,167.660095 
	C105.517632,168.828583 101.580070,169.595215 97.227089,170.442719 
	C97.030540,166.873184 95.897804,163.174988 99.865295,163.862122 
	C103.068130,164.416809 108.928932,159.316101 109.536621,167.660095 
z"/>
<path fill="#576D7C" opacity="1.000000" stroke="none" 
	d="
M61.256332,157.552643 
	C60.521290,160.749390 58.977795,162.123260 55.869541,161.777176 
	C53.423515,161.504822 50.922932,161.722488 48.440594,161.722488 
	C48.583603,155.810684 54.481472,153.901703 61.256332,157.552643 
z"/>
<path fill="#576D7C" opacity="1.000000" stroke="none" 
	d="
M200.635681,161.715759 
	C198.803757,160.227264 197.387817,158.744354 195.499908,156.767181 
	C207.177872,154.818741 208.810349,155.380890 209.900391,161.721359 
	C206.892288,161.721359 203.971970,161.721359 200.635681,161.715759 
z"/>
<path fill="#566C7B" opacity="1.000000" stroke="none" 
	d="
M190.594879,161.709229 
	C187.340668,161.716690 184.527954,161.716690 181.483002,161.716690 
	C181.022278,159.881760 180.632660,158.330017 180.065445,156.070892 
	C183.730469,156.070892 187.004013,155.886520 190.232285,156.187683 
	C191.153244,156.273590 192.488037,157.684586 192.635712,158.641800 
	C192.777008,159.557724 191.621780,160.673706 190.594879,161.709229 
z"/>
<path fill="#576D7C" opacity="1.000000" stroke="none" 
	d="
M86.284462,156.044495 
	C89.006027,156.044189 91.282501,156.044189 93.449318,156.044189 
	C95.042099,161.775040 93.585602,162.447937 81.355789,161.293594 
	C81.649117,158.467148 81.638435,155.552460 86.284462,156.044495 
z"/>
<path fill="#566C7B" opacity="1.000000" stroke="none" 
	d="
M64.958221,160.043060 
	C65.355431,157.173325 66.390640,155.728653 69.242805,155.995224 
	C71.866135,156.240402 74.530418,156.047333 77.647545,156.047333 
	C77.351730,157.981064 77.116714,159.517395 76.715523,162.139954 
	C72.663528,161.566818 68.794655,161.019592 64.958221,160.043060 
z"/>
<path fill="#566C7B" opacity="1.000000" stroke="none" 
	d="
M139.754974,161.715729 
	C136.703537,161.717331 134.110626,161.717331 131.284546,161.717331 
	C131.284546,159.629715 131.284546,158.083527 131.284546,156.292328 
	C135.102829,156.292328 138.664749,156.292328 142.582031,156.292328 
	C142.828842,158.600632 145.063950,161.483856 139.754974,161.715729 
z"/>
<path fill="#566C7B" opacity="1.000000" stroke="none" 
	d="
M117.343086,161.704453 
	C116.043297,160.211105 115.192543,158.727844 113.839378,156.368652 
	C118.995087,156.368652 122.686096,156.368652 126.681335,156.368652 
	C126.681335,158.029907 126.681335,159.576996 126.681335,161.714539 
	C123.632103,161.714539 120.712105,161.714539 117.343086,161.704453 
z"/>
<path fill="#556B7A" opacity="1.000000" stroke="none" 
	d="
M103.136055,156.051239 
	C105.573006,156.051208 107.547287,156.051208 109.809776,156.051208 
	C109.809776,157.971481 109.809776,159.526291 109.809776,161.398560 
	C105.851959,161.398560 102.106445,161.398560 98.247498,161.398560 
	C97.357872,157.479568 98.506638,155.509079 103.136055,156.051239 
z"/>
<path fill="#55BFEA" opacity="1.000000" stroke="none" 
	d="
M48.233028,102.999985 
	C48.233250,78.208923 48.233250,53.917866 48.233250,29.254402 
	C102.125183,29.254402 155.516266,29.254402 209.337769,29.254402 
	C209.337769,65.941063 209.337769,102.640724 209.337769,139.708694 
	C155.876785,139.708694 102.482010,139.708694 48.232807,139.708694 
	C48.232807,127.664124 48.232807,115.582062 48.233028,102.999985 
z"/>
</svg>