<svg version="1.1" id="Layer_1" xmlns="http://www.w3.org/2000/svg" xmlns:xlink="http://www.w3.org/1999/xlink" x="0px" y="0px"
	 width="100%" viewBox="0 0 256 256" enable-background="new 0 0 256 256" xml:space="preserve">
<path fill="#060605" opacity="1.000000" stroke="none" 
	d="
M257.000000,116.000000 
	C257.000000,162.961746 257.000000,209.923508 257.000000,256.942627 
	C171.774384,256.942627 86.548714,256.942627 1.000000,256.942627 
	C1.000000,210.312943 1.000000,163.625122 1.372662,116.466232 
	C2.489905,115.974106 3.234484,115.953064 4.241052,116.267570 
	C14.640258,116.721855 24.777369,116.861168 34.914932,116.914543 
	C35.613979,116.918213 36.316399,116.280899 37.451797,115.966263 
	C39.916515,115.968887 41.946686,115.946915 44.226555,116.243614 
	C47.323223,116.355736 50.170181,116.149193 53.413242,115.966782 
	C54.867073,115.974785 55.924805,115.958649 57.215622,116.275406 
	C60.305439,116.383934 63.162170,116.159576 66.367325,115.869476 
	C70.705223,109.234840 74.694695,102.665939 78.746254,95.994789 
	C80.532745,95.994789 82.362747,95.967613 84.191734,95.999092 
	C99.122368,96.256050 114.052811,96.523972 129.446777,96.859062 
	C139.905823,96.936760 149.901779,96.895279 159.896896,96.968582 
	C166.368668,97.016037 173.973923,95.183464 178.984314,97.959717 
	C183.787415,100.621101 185.816650,108.195374 189.246628,113.492928 
	C190.114670,114.833611 191.674911,115.726151 193.384735,116.878883 
	C198.916122,116.903038 203.979813,116.872932 209.446671,116.898834 
	C211.420517,116.422386 213.969009,116.307587 214.403748,115.289871 
	C217.296509,108.517937 222.624191,105.594566 229.697769,104.841583 
	C229.904785,103.317169 230.095398,101.913528 230.292007,100.465706 
	C232.754776,100.279213 234.887772,100.117699 237.091049,100.350090 
	C236.995300,103.642845 237.539032,105.946228 241.576843,105.716537 
	C245.859589,109.111656 249.803162,112.392990 253.746719,115.674324 
	C253.453064,115.996742 253.159424,116.319160 252.865768,116.641586 
	C254.243851,116.427719 255.621918,116.213860 257.000000,116.000000 
M129.893173,233.083832 
	C144.915039,232.614822 157.326126,226.617584 166.575012,214.830872 
	C178.499130,199.634827 180.930161,182.633041 172.852615,165.160446 
	C164.395416,146.866577 149.566681,137.114761 128.402023,136.561417 
	C108.797272,137.569870 94.414833,146.722534 85.451485,164.220642 
	C69.669853,195.029282 94.369278,233.967117 129.893173,233.083832 
M249.407700,240.138275 
	C249.407700,237.869980 249.407700,235.601700 249.407700,233.356750 
	C248.475372,233.188065 247.994324,233.025131 247.513184,233.024857 
	C218.227081,233.008560 188.940964,232.991821 159.654968,233.043152 
	C158.226196,233.045670 156.761505,233.544006 155.376709,234.002335 
	C149.259018,236.027145 143.164459,238.121826 136.221222,240.081070 
	C131.130646,240.118073 126.040077,240.155060 120.174492,239.997665 
	C115.425224,238.554550 110.705795,237.001450 105.917358,235.702759 
	C102.012581,234.643723 98.031624,233.152191 94.073586,233.118179 
	C67.463356,232.889572 40.850224,232.999161 14.238031,232.999161 
	C12.448696,232.999161 10.659361,232.999161 8.870027,232.999161 
	C8.583768,233.566116 8.297509,234.133072 8.011250,234.700027 
	C9.276669,235.602203 10.465756,237.113464 11.822924,237.283539 
	C14.934413,237.673462 18.145554,237.616547 21.282942,237.349655 
	C24.194353,237.102020 25.145609,238.381424 24.911486,241.835144 
	C25.165150,244.046402 24.519119,245.178223 21.953970,245.063934 
	C17.659941,244.872589 13.351192,245.011642 9.078424,245.011642 
	C7.546079,250.215622 11.148299,249.112640 13.449703,249.113708 
	C90.585426,249.149704 167.721161,249.144897 244.856903,249.132980 
	C246.301056,249.132767 247.745193,248.975616 249.487274,248.874359 
	C249.360474,245.995895 249.251297,243.517548 249.407700,240.138275 
M43.961262,157.042252 
	C40.311115,157.024750 36.645092,156.789169 33.015472,157.053497 
	C29.653614,157.298325 28.516375,155.860886 28.826561,151.958786 
	C28.521561,148.601974 30.971859,149.331543 32.823338,149.328476 
	C46.918221,149.305115 61.029362,148.912735 75.101532,149.478607 
	C82.599510,149.780121 88.687904,148.464478 93.665390,141.807983 
	C111.133209,126.968079 140.331604,122.538620 165.331039,142.589325 
	C168.268417,144.829132 171.164520,148.946365 174.149719,149.012009 
	C198.235077,149.541626 222.337250,149.280121 246.434082,149.342682 
	C249.801987,149.351425 249.801102,147.722275 248.947678,144.909470 
	C239.667938,144.909470 230.423477,144.909470 221.183090,144.909470 
	C221.036743,143.341278 220.929047,142.187180 220.964905,140.193970 
	C220.529526,137.058319 222.611649,137.242065 224.715012,137.252426 
	C232.822647,137.292389 240.930603,137.268646 249.062363,137.268646 
	C249.062363,132.723434 249.062363,128.837646 249.062363,124.561798 
	C234.388565,124.561798 220.087769,124.589378 205.787170,124.548889 
	C199.639694,124.531487 192.380692,126.360237 187.658707,123.718323 
	C182.955444,121.086884 180.796967,113.905617 177.527145,108.716461 
	C177.261368,108.294662 177.136917,107.682320 176.764481,107.446678 
	C175.097305,106.391869 173.369370,104.590950 171.653870,104.580246 
	C143.162888,104.402275 114.670235,104.410233 86.179031,104.568542 
	C84.584991,104.577400 82.444893,105.866539 81.513329,107.217758 
	C78.496941,111.592934 75.714622,116.165123 73.260010,120.879005 
	C71.718102,123.840126 69.768295,124.666649 66.541222,124.637306 
	C49.047523,124.478195 31.551613,124.555153 14.056484,124.572281 
	C12.305923,124.573990 10.555506,124.720154 8.833365,124.798004 
	C8.833365,129.199524 8.833365,132.967468 8.833365,137.268326 
	C10.884376,137.268326 12.670818,137.268311 14.457261,137.268326 
	C32.452267,137.268356 50.447365,137.297440 68.442177,137.237503 
	C71.183701,137.228378 73.576508,137.237122 72.920128,141.859558 
	C73.446701,145.311569 71.096939,144.954666 68.909607,144.952301 
	C51.488609,144.933533 34.067585,144.941864 16.646572,144.941879 
	C14.036392,144.941879 11.426211,144.941895 8.816031,144.941895 
	C8.544294,145.541321 8.272558,146.140762 8.000821,146.740189 
	C9.289245,147.597809 10.477193,148.854416 11.891867,149.210648 
	C13.608335,149.642899 15.540650,149.504715 17.335737,149.273285 
	C20.292967,148.892044 21.131594,150.381363 20.976244,153.781921 
	C19.920242,154.849884 18.987068,156.633804 17.783283,156.840317 
	C15.078101,157.304398 12.238647,156.985794 9.575150,156.985794 
	C9.209831,158.011703 8.909128,158.463120 8.908225,158.915146 
	C8.866296,179.905426 8.878814,200.895874 8.797407,221.885956 
	C8.786689,224.649734 10.138641,225.210297 12.512394,225.185791 
	C23.337971,225.074036 34.164467,225.051331 45.929413,225.030762 
	C60.315197,225.030762 74.700981,225.030762 90.139008,225.030762 
	C80.785431,215.343826 75.558136,204.831467 73.565331,192.474304 
	C71.555885,180.013931 74.970299,168.701584 80.057701,157.131271 
	C67.782005,157.131271 56.329334,157.131271 43.961262,157.042252 
M183.033127,170.612503 
	C183.971039,176.602066 184.908951,182.591629 185.873901,188.753830 
	C189.158157,188.924637 193.683029,187.866562 195.424515,189.601822 
	C197.294540,191.465179 196.805023,195.946960 196.881866,199.296768 
	C196.980286,203.586578 198.249664,209.695480 196.021942,211.707932 
	C193.453659,214.028046 187.619019,212.694458 183.209152,213.030457 
	C181.100357,213.191101 178.236801,212.774094 177.053970,213.957230 
	C173.890427,217.121567 171.450851,221.009659 168.400055,225.037323 
	C194.547852,225.037323 220.022980,224.991959 245.497574,225.089920 
	C249.015961,225.103439 249.071182,223.165817 249.065994,220.610260 
	C249.026184,200.957016 248.947723,181.302765 249.127487,161.651093 
	C249.162750,157.796997 247.841034,156.911728 244.225845,156.937500 
	C223.407700,157.085892 202.587967,157.004196 181.768784,157.027374 
	C180.680374,157.028580 179.592224,157.276001 178.219040,157.443558 
	C179.849411,161.815598 181.342712,165.820099 183.033127,170.612503 
M226.809052,112.896675 
	C225.311035,113.933083 223.813004,114.969490 221.285065,116.718460 
	C229.737869,116.718460 236.680008,116.718460 244.522751,116.718460 
	C239.322906,110.663063 233.272217,112.516647 226.809052,112.896675 
M182.253586,200.749878 
	C181.906311,202.137451 181.559036,203.525009 181.126831,205.251953 
	C183.832657,205.251953 186.192001,205.251953 188.742859,205.251953 
	C188.742859,202.264709 188.742859,199.554504 188.742859,196.830521 
	C185.281387,195.589752 183.120224,196.311905 182.253586,200.749878 
z"/>
<path fill="#FCFCFC" opacity="1.000000" stroke="none" 
	d="
M128.983307,96.788559 
	C114.052811,96.523972 99.122368,96.256050 84.191734,95.999092 
	C82.362747,95.967613 80.532745,95.994789 78.746254,95.994789 
	C74.694695,102.665939 70.705223,109.234840 66.354660,115.488190 
	C65.925430,114.416595 65.857300,113.660545 65.850281,112.459396 
	C65.911385,109.751244 65.911385,107.488174 65.911385,105.252518 
	C62.710281,105.252518 59.959816,105.252518 57.190121,105.252518 
	C57.190121,107.975815 57.190121,110.444771 57.112595,113.286392 
	C57.017559,114.420212 57.000050,115.181358 56.982536,115.942513 
	C55.924805,115.958649 54.867073,115.974785 53.401398,115.586922 
	C52.934166,114.428085 52.874882,113.673248 52.885002,112.473373 
	C52.954414,109.762505 52.954414,107.496674 52.954414,105.250885 
	C49.717613,105.250885 46.967205,105.250885 44.201187,105.250885 
	C44.201187,107.971031 44.201187,110.439301 44.118980,113.278061 
	C44.016796,114.407349 43.996822,115.166145 43.976852,115.924942 
	C41.946686,115.946915 39.916515,115.968887 37.440376,115.585892 
	C36.933617,114.425377 36.872829,113.669830 36.879532,112.468918 
	C36.947025,109.761116 36.947025,107.498672 36.947025,105.246681 
	C25.716612,105.246681 14.968169,105.246681 4.215989,105.246681 
	C4.215989,107.960556 4.215989,110.429718 4.127398,113.270279 
	C4.018893,114.405136 3.998979,115.168587 3.979064,115.932030 
	C3.234484,115.953064 2.489905,115.974106 1.372662,115.997574 
	C1.000000,77.666641 1.000000,39.333275 1.000000,1.000000 
	C5.753434,1.000000 10.404054,1.000000 15.527319,1.468657 
	C15.999964,30.858294 15.999964,59.779274 15.999964,88.775269 
	C47.223389,88.775269 77.952835,88.775269 108.734985,88.775269 
	C108.734985,86.132896 108.734985,83.722321 108.734985,80.721329 
	C80.458366,80.721329 52.438866,80.721329 24.416325,80.721329 
	C24.416325,56.527107 24.416325,32.933498 24.416325,9.140350 
	C65.979897,9.140350 107.323441,9.140350 149.132660,9.140350 
	C149.132660,18.506559 149.132660,27.577314 149.132660,36.706387 
	C151.999405,36.706387 154.394180,36.706387 157.000000,36.706387 
	C157.000000,24.610367 157.000000,12.805183 157.000000,1.000000 
	C190.228836,1.000000 223.457687,1.000000 257.000000,1.000000 
	C257.000000,14.019217 257.000000,27.040951 256.531342,40.529781 
	C230.489395,40.996799 204.916092,41.000206 179.342804,40.995171 
	C166.567368,40.992657 153.791916,40.974716 141.010590,40.574974 
	C141.008728,39.149162 141.012741,38.112129 141.452026,36.981773 
	C142.684753,36.313637 144.163071,35.753807 144.176102,35.161728 
	C144.335373,27.923918 144.279663,20.681376 144.279663,13.501184 
	C105.409355,13.501184 67.235832,13.501184 29.163136,13.501184 
	C29.163136,34.572277 29.163136,55.298618 29.163136,76.234634 
	C54.916187,76.234634 80.360168,76.184113 105.803345,76.304764 
	C108.671776,76.318359 109.121933,75.004082 109.453049,72.756195 
	C110.788925,72.752403 111.759727,72.771866 112.809349,73.260773 
	C112.597580,80.100082 112.306992,86.469971 111.993996,93.330986 
	C115.103882,92.817253 117.617355,92.402046 120.433327,91.936874 
	C120.433327,77.449760 120.433327,63.361675 120.433327,49.184402 
	C163.471619,49.184402 206.129486,49.184402 249.181152,49.184402 
	C249.181152,67.901604 249.181152,86.304169 249.181152,105.000000 
	C252.048965,105.000000 254.524475,105.000000 257.000000,105.000000 
	C257.000000,108.361290 257.000000,111.722572 257.000000,115.541931 
	C255.621918,116.213860 254.243851,116.427719 252.865768,116.641586 
	C253.159424,116.319160 253.453064,115.996742 253.746719,115.674324 
	C249.803162,112.392990 245.859589,109.111656 241.563568,105.346863 
	C241.221420,103.391647 241.231735,101.919876 241.648224,100.388550 
	C245.506500,100.486420 244.504272,97.889877 244.512314,96.133995 
	C244.569473,83.646881 244.542786,71.159386 244.542801,58.672009 
	C244.542801,56.917210 244.542770,55.162411 244.542770,53.534641 
	C204.213333,53.534641 164.666809,53.534641 125.052628,53.534641 
	C125.052628,66.500694 125.052628,79.129539 125.052628,91.949371 
	C126.433311,92.148476 127.700661,92.331238 128.948608,92.870140 
	C128.947250,94.413704 128.965286,95.601135 128.983307,96.788559 
z"/>
<path fill="#030303" opacity="1.000000" stroke="none" 
	d="
M156.531342,1.000000 
	C157.000000,12.805183 157.000000,24.610367 157.000000,36.706387 
	C154.394180,36.706387 151.999405,36.706387 149.132660,36.706387 
	C149.132660,27.577314 149.132660,18.506559 149.132660,9.140350 
	C107.323441,9.140350 65.979897,9.140350 24.416325,9.140350 
	C24.416325,32.933498 24.416325,56.527107 24.416325,80.721329 
	C52.438866,80.721329 80.458366,80.721329 108.734985,80.721329 
	C108.734985,83.722321 108.734985,86.132896 108.734985,88.775269 
	C77.952835,88.775269 47.223389,88.775269 15.999964,88.775269 
	C15.999964,59.779274 15.999964,30.858294 15.999982,1.468657 
	C62.687561,1.000000 109.375122,1.000000 156.531342,1.000000 
z"/>
<path fill="#050504" opacity="1.000000" stroke="none" 
	d="
M141.016479,40.963753 
	C153.791916,40.974716 166.567368,40.992657 179.342804,40.995171 
	C204.916092,41.000206 230.489395,40.996799 256.531342,40.998440 
	C257.000000,62.020893 257.000000,83.041786 257.000000,104.531342 
	C254.524475,105.000000 252.048965,105.000000 249.181152,105.000000 
	C249.181152,86.304169 249.181152,67.901604 249.181152,49.184402 
	C206.129486,49.184402 163.471619,49.184402 120.433327,49.184402 
	C120.433327,63.361675 120.433327,77.449760 120.433327,91.936874 
	C117.617355,92.402046 115.103882,92.817253 111.993996,93.330986 
	C112.306992,86.469971 112.597580,80.100082 112.893707,72.822227 
	C112.899254,61.744907 112.899254,51.575562 112.899254,40.963749 
	C122.846268,40.963749 131.931366,40.963749 141.016479,40.963753 
z"/>
<path fill="#C4B097" opacity="1.000000" stroke="none" 
	d="
M164.980133,142.011978 
	C140.331604,122.538620 111.133209,126.968079 93.055153,141.603027 
	C85.990082,141.270142 79.535240,141.142227 73.080406,141.014313 
	C73.576508,137.237122 71.183701,137.228378 68.442177,137.237503 
	C50.447365,137.297440 32.452267,137.268356 14.457261,137.268326 
	C12.670818,137.268311 10.884376,137.268326 8.833365,137.268326 
	C8.833365,132.967468 8.833365,129.199524 8.833365,124.798004 
	C10.555506,124.720154 12.305923,124.573990 14.056484,124.572281 
	C31.551613,124.555153 49.047523,124.478195 66.541222,124.637306 
	C69.768295,124.666649 71.718102,123.840126 73.260010,120.879005 
	C75.714622,116.165123 78.496941,111.592934 81.513329,107.217758 
	C82.444893,105.866539 84.584991,104.577400 86.179031,104.568542 
	C114.670235,104.410233 143.162888,104.402275 171.653870,104.580246 
	C173.369370,104.590950 175.097305,106.391869 176.764481,107.446678 
	C177.136917,107.682320 177.261368,108.294662 177.527145,108.716461 
	C180.796967,113.905617 182.955444,121.086884 187.658707,123.718323 
	C192.380692,126.360237 199.639694,124.531487 205.787170,124.548889 
	C220.087769,124.589378 234.388565,124.561798 249.062363,124.561798 
	C249.062363,128.837646 249.062363,132.723434 249.062363,137.268646 
	C240.930603,137.268646 232.822647,137.292389 224.715012,137.252426 
	C222.611649,137.242065 220.529526,137.058319 220.468552,140.598297 
	C217.701813,141.011063 215.431412,141.019501 213.093842,140.615753 
	C213.333435,135.615189 209.839752,137.645630 207.807404,137.268021 
	C204.605713,136.673126 204.989578,139.126907 204.333786,141.019745 
	C192.456253,140.995132 181.033707,140.945953 169.611984,141.021255 
	C168.065918,141.031433 166.523987,141.666336 164.980133,142.011978 
M120.500000,120.958824 
	C136.602158,120.958824 152.704330,120.958824 169.040207,120.958824 
	C169.040207,118.249947 169.040207,115.877083 169.040207,113.638390 
	C142.149826,113.638390 115.652901,113.638390 89.255234,113.638390 
	C89.255234,116.270126 89.255234,118.488770 89.255234,120.958809 
	C99.585083,120.958809 109.542542,120.958809 120.500000,120.958824 
z"/>
<path fill="#192B37" opacity="1.000000" stroke="none" 
	d="
M182.934570,170.218536 
	C181.342712,165.820099 179.849411,161.815598 178.219040,157.443558 
	C179.592224,157.276001 180.680374,157.028580 181.768784,157.027374 
	C202.587967,157.004196 223.407700,157.085892 244.225845,156.937500 
	C247.841034,156.911728 249.162750,157.796997 249.127487,161.651093 
	C248.947723,181.302765 249.026184,200.957016 249.065994,220.610260 
	C249.071182,223.165817 249.015961,225.103439 245.497574,225.089920 
	C220.022980,224.991959 194.547852,225.037323 168.400055,225.037323 
	C171.450851,221.009659 173.890427,217.121567 177.053970,213.957230 
	C178.236801,212.774094 181.100357,213.191101 183.209152,213.030457 
	C187.619019,212.694458 193.453659,214.028046 196.021942,211.707932 
	C198.249664,209.695480 196.980286,203.586578 196.881866,199.296768 
	C196.805023,195.946960 197.294540,191.465179 195.424515,189.601822 
	C193.683029,187.866562 189.158157,188.924637 185.873901,188.753830 
	C184.908951,182.591629 183.971039,176.602066 182.934570,170.218536 
M202.679749,172.977722 
	C204.744308,172.977722 206.808868,172.977722 208.706573,172.977722 
	C208.706573,170.069534 208.706573,167.842453 208.706573,165.582672 
	C206.000946,165.582672 203.622742,165.582672 200.592010,165.582672 
	C201.019089,168.276154 201.386078,170.590683 202.679749,172.977722 
M225.020386,170.447647 
	C224.950745,168.855743 224.881104,167.263824 224.806259,165.552948 
	C222.092606,165.552948 219.714401,165.552948 217.324951,165.552948 
	C217.324951,168.176178 217.324951,170.519226 217.324951,173.904480 
	C220.320358,172.910690 222.664322,172.133011 225.020386,170.447647 
M241.029816,170.453568 
	C241.029816,168.863297 241.029816,167.273026 241.029816,165.553207 
	C238.103317,165.553207 235.722305,165.553207 233.328705,165.553207 
	C233.328705,168.182404 233.328705,170.522400 233.328705,173.899521 
	C236.305511,172.917740 238.662003,172.140533 241.029816,170.453568 
z"/>
<path fill="#F8A94C" opacity="1.000000" stroke="none" 
	d="
M129.446777,96.859062 
	C128.965286,95.601135 128.947250,94.413704 129.360901,92.781723 
	C133.156357,92.543793 132.364868,90.045990 132.374237,88.221481 
	C132.420059,79.287804 132.395020,70.353760 132.395020,61.291519 
	C167.498383,61.291519 202.115997,61.291519 236.941666,61.291519 
	C236.941666,74.440277 236.941666,87.224602 236.973877,100.014374 
	C237.006088,100.019806 237.020752,99.956184 237.020752,99.956184 
	C234.887772,100.117699 232.754776,100.279213 230.292007,100.465706 
	C230.095398,101.913528 229.904785,103.317169 229.697769,104.841583 
	C222.624191,105.594566 217.296509,108.517937 214.403748,115.289871 
	C213.969009,116.307587 211.420517,116.422386 209.424164,116.508781 
	C208.942413,115.019981 208.886337,113.977264 208.904114,112.496735 
	C208.977951,109.951462 208.977951,107.843987 208.977951,105.478432 
	C203.517700,105.478432 198.483231,105.478432 193.115097,105.478432 
	C193.115097,108.091690 193.115097,110.518013 193.059921,113.329926 
	C192.975510,114.751877 192.946289,115.788254 192.917068,116.824623 
	C191.674911,115.726151 190.114670,114.833611 189.246628,113.492928 
	C185.816650,108.195374 183.787415,100.621101 178.984314,97.959717 
	C173.973923,95.183464 166.368668,97.016037 159.896896,96.968582 
	C149.901779,96.895279 139.905823,96.936760 129.446777,96.859062 
M165.347336,72.172150 
	C171.519669,72.399773 168.700073,68.252022 169.005539,65.330055 
	C158.143463,65.330055 147.667603,65.330055 137.341232,65.330055 
	C137.341232,70.482483 137.341232,75.202499 137.341232,79.962753 
	C138.725327,80.047607 139.718475,80.201256 140.699295,80.143967 
	C141.799438,80.079681 142.888428,79.824654 143.903946,79.664940 
	C144.601425,72.173882 144.601425,72.173767 151.942337,72.173393 
	C156.087479,72.173180 160.232605,72.173431 165.347336,72.172150 
M182.565842,64.889618 
	C180.956924,64.974739 179.347992,65.059860 177.604370,65.152107 
	C177.604370,67.611671 177.604370,69.670525 177.604370,71.834297 
	C181.690659,71.834297 185.413452,71.834297 189.274948,71.834297 
	C189.274948,69.408752 189.274948,67.342377 189.274948,64.889465 
	C187.107498,64.889465 185.298386,64.889465 182.565842,64.889618 
M204.972198,68.512230 
	C204.578766,61.633308 200.043823,66.050568 197.326965,65.131805 
	C197.326965,67.731758 197.326965,69.772865 197.326965,72.250801 
	C200.174850,71.214951 203.974167,74.602516 204.972198,68.512230 
z"/>
<path fill="#47555F" opacity="1.000000" stroke="none" 
	d="
M28.745594,152.784607 
	C28.516375,155.860886 29.653614,157.298325 33.015472,157.053497 
	C36.645092,156.789169 40.311115,157.024750 44.453262,157.542328 
	C45.045219,169.087296 45.145176,180.132156 45.113445,191.501648 
	C39.261971,198.242310 40.795631,204.546860 45.179367,211.274506 
	C45.053654,216.160797 45.022144,220.578720 44.990631,224.996613 
	C34.164467,225.051331 23.337971,225.074036 12.512394,225.185791 
	C10.138641,225.210297 8.786689,224.649734 8.797407,221.885956 
	C8.878814,200.895874 8.866296,179.905426 8.908225,158.915146 
	C8.909128,158.463120 9.209831,158.011703 9.575150,156.985794 
	C12.238647,156.985794 15.078101,157.304398 17.783283,156.840317 
	C18.987068,156.633804 19.920242,154.849884 21.448681,153.373764 
	C24.195942,152.905273 26.470768,152.844955 28.745594,152.784607 
z"/>
<path fill="#192B37" opacity="1.000000" stroke="none" 
	d="
M45.245132,191.177032 
	C45.145176,180.132156 45.045219,169.087296 44.910961,157.586853 
	C56.329334,157.131271 67.782005,157.131271 80.057701,157.131271 
	C74.970299,168.701584 71.555885,180.013931 73.565331,192.474304 
	C75.558136,204.831467 80.785431,215.343826 90.139008,225.030762 
	C74.700981,225.030762 60.315197,225.030762 45.460022,225.013702 
	C45.022144,220.578720 45.053654,216.160797 45.544781,211.329239 
	C47.112137,211.250854 48.207233,211.637695 49.329685,211.912964 
	C56.311543,213.625092 62.359650,210.311417 64.015045,203.891754 
	C65.799255,196.972565 62.207756,190.860901 54.804310,189.628693 
	C51.787395,189.126556 48.441406,190.601578 45.245132,191.177032 
z"/>
<path fill="#C6B198" opacity="1.000000" stroke="none" 
	d="
M120.949509,240.192047 
	C126.040077,240.155060 131.130646,240.118073 136.960052,240.393280 
	C139.519287,240.804504 141.339645,240.988510 143.160156,240.990005 
	C178.487473,241.019165 213.814804,241.026978 249.142120,241.039185 
	C249.251297,243.517548 249.360474,245.995895 249.487274,248.874359 
	C247.745193,248.975616 246.301056,249.132767 244.856903,249.132980 
	C167.721161,249.144897 90.585426,249.149704 13.449703,249.113708 
	C11.148299,249.112640 7.546079,250.215622 9.078424,245.011642 
	C13.351192,245.011642 17.659941,244.872589 21.953970,245.063934 
	C24.519119,245.178223 25.165150,244.046402 25.418427,241.415924 
	C28.166527,240.984528 30.407686,240.972351 32.736244,241.402771 
	C33.602837,242.896667 34.324661,244.799911 35.170826,244.856888 
	C39.666138,245.159607 44.192635,244.999237 48.636517,244.999237 
	C48.827164,243.250580 48.950661,242.117859 49.538124,240.991669 
	C71.899086,240.999786 93.796120,241.019836 115.692978,240.967834 
	C117.445763,240.963669 119.197357,240.462341 120.949509,240.192047 
z"/>
<path fill="#DCD0C1" opacity="1.000000" stroke="none" 
	d="
M249.274918,240.588730 
	C213.814804,241.026978 178.487473,241.019165 143.160156,240.990005 
	C141.339645,240.988510 139.519287,240.804504 137.380188,240.448334 
	C143.164459,238.121826 149.259018,236.027145 155.376709,234.002335 
	C156.761505,233.544006 158.226196,233.045670 159.654968,233.043152 
	C188.940964,232.991821 218.227081,233.008560 247.513184,233.024857 
	C247.994324,233.025131 248.475372,233.188065 249.407700,233.356750 
	C249.407700,235.601700 249.407700,237.869980 249.274918,240.588730 
z"/>
<path fill="#DCD0C1" opacity="1.000000" stroke="none" 
	d="
M32.648846,240.960175 
	C30.407686,240.972351 28.166527,240.984528 25.503124,240.989929 
	C25.145609,238.381424 24.194353,237.102020 21.282942,237.349655 
	C18.145554,237.616547 14.934413,237.673462 11.822924,237.283539 
	C10.465756,237.113464 9.276669,235.602203 8.011250,234.700027 
	C8.297509,234.133072 8.583768,233.566116 8.870027,232.999161 
	C10.659361,232.999161 12.448696,232.999161 14.238031,232.999161 
	C40.850224,232.999161 67.463356,232.889572 94.073586,233.118179 
	C98.031624,233.152191 102.012581,234.643723 105.917358,235.702759 
	C110.705795,237.001450 115.425224,238.554550 120.561996,240.094864 
	C119.197357,240.462341 117.445763,240.963669 115.692978,240.967834 
	C93.796120,241.019836 71.899086,240.999786 49.447178,240.596191 
	C47.910370,239.271362 47.000683,237.665802 45.933147,237.552902 
	C42.637783,237.204422 39.264519,237.637695 35.955254,237.362137 
	C32.982529,237.114609 32.735565,238.835220 32.648846,240.960175 
z"/>
<path fill="#E08100" opacity="1.000000" stroke="none" 
	d="
M129.019714,232.945053 
	C94.369278,233.967117 69.669853,195.029282 85.451485,164.220642 
	C94.414833,146.722534 108.797272,137.569870 128.701126,137.094330 
	C129.006714,138.714752 129.013199,139.802231 128.607468,140.969879 
	C126.382149,141.286713 124.559052,141.464249 122.757530,141.769272 
	C104.451935,144.868652 92.224541,155.283646 87.135384,173.054062 
	C82.216530,190.229828 87.009468,205.154861 99.960449,217.407547 
	C108.086090,225.095032 118.214363,227.882355 128.992218,229.340988 
	C128.994980,230.809296 129.007355,231.877167 129.019714,232.945053 
z"/>
<path fill="#ECA047" opacity="1.000000" stroke="none" 
	d="
M129.019699,140.889725 
	C129.013199,139.802231 129.006714,138.714752 129.022339,137.219879 
	C149.566681,137.114761 164.395416,146.866577 172.852615,165.160446 
	C180.930161,182.633041 178.499130,199.634827 166.575012,214.830872 
	C157.326126,226.617584 144.915039,232.614822 129.456451,233.014435 
	C129.007355,231.877167 128.994980,230.809296 129.373322,229.214584 
	C131.246384,228.489151 132.727844,228.283783 134.211182,228.092972 
	C150.800278,225.959000 162.625198,217.030319 169.113174,201.893036 
	C175.618347,186.715683 173.653778,171.942032 163.798767,158.585129 
	C155.221527,146.960083 143.137848,141.827637 129.019699,140.889725 
z"/>
<path fill="#DCD0C1" opacity="1.000000" stroke="none" 
	d="
M165.155579,142.300659 
	C166.523987,141.666336 168.065918,141.031433 169.611984,141.021255 
	C181.033707,140.945953 192.456253,140.995132 204.400513,141.448578 
	C205.724991,148.292114 210.255676,143.390564 212.810364,144.978806 
	C212.955780,143.340469 213.058395,142.184204 213.161026,141.027954 
	C215.431412,141.019501 217.701813,141.011063 220.396759,141.017853 
	C220.929047,142.187180 221.036743,143.341278 221.183090,144.909470 
	C230.423477,144.909470 239.667938,144.909470 248.947678,144.909470 
	C249.801102,147.722275 249.801987,149.351425 246.434082,149.342682 
	C222.337250,149.280121 198.235077,149.541626 174.149719,149.012009 
	C171.164520,148.946365 168.268417,144.829132 165.155579,142.300659 
z"/>
<path fill="#DBCFC0" opacity="1.000000" stroke="none" 
	d="
M28.786077,152.371704 
	C26.470768,152.844955 24.195942,152.905273 21.492374,152.949738 
	C21.131594,150.381363 20.292967,148.892044 17.335737,149.273285 
	C15.540650,149.504715 13.608335,149.642899 11.891867,149.210648 
	C10.477193,148.854416 9.289245,147.597809 8.000821,146.740189 
	C8.272558,146.140762 8.544294,145.541321 8.816031,144.941895 
	C11.426211,144.941895 14.036392,144.941879 16.646572,144.941879 
	C34.067585,144.941864 51.488609,144.933533 68.909607,144.952301 
	C71.096939,144.954666 73.446701,145.311569 73.000267,141.436935 
	C79.535240,141.142227 85.990082,141.270142 92.733109,141.705566 
	C88.687904,148.464478 82.599510,149.780121 75.101532,149.478607 
	C61.029362,148.912735 46.918221,149.305115 32.823338,149.328476 
	C30.971859,149.331543 28.521561,148.601974 28.786077,152.371704 
z"/>
<path fill="#47545E" opacity="1.000000" stroke="none" 
	d="
M36.812042,112.914276 
	C36.872829,113.669830 36.933617,114.425377 37.005825,115.561295 
	C36.316399,116.280899 35.613979,116.918213 34.914932,116.914543 
	C24.777369,116.861168 14.640258,116.721855 4.241052,116.267570 
	C3.998979,115.168587 4.018893,114.405136 4.582264,113.277260 
	C15.687829,112.913307 26.249937,112.913788 36.812042,112.914276 
z"/>
<path fill="#DB7D00" opacity="1.000000" stroke="none" 
	d="
M227.204651,112.812424 
	C233.272217,112.516647 239.322906,110.663063 244.522751,116.718460 
	C236.680008,116.718460 229.737869,116.718460 221.285065,116.718460 
	C223.813004,114.969490 225.311035,113.933083 227.204651,112.812424 
z"/>
<path fill="#DF5239" opacity="1.000000" stroke="none" 
	d="
M182.402954,200.384674 
	C183.120224,196.311905 185.281387,195.589752 188.742859,196.830521 
	C188.742859,199.554504 188.742859,202.264709 188.742859,205.251953 
	C186.192001,205.251953 183.832657,205.251953 181.126831,205.251953 
	C181.559036,203.525009 181.906311,202.137451 182.402954,200.384674 
z"/>
<path fill="#47555E" opacity="1.000000" stroke="none" 
	d="
M193.384735,116.878883 
	C192.946289,115.788254 192.975510,114.751877 193.518280,113.345741 
	C198.964615,112.962166 203.897446,112.948357 208.830261,112.934540 
	C208.886337,113.977264 208.942413,115.019981 209.020996,116.452759 
	C203.979813,116.872932 198.916122,116.903038 193.384735,116.878883 
z"/>
<path fill="#46545E" opacity="1.000000" stroke="none" 
	d="
M57.215622,116.275406 
	C57.000050,115.181358 57.017559,114.420212 57.542671,113.297379 
	C60.629902,112.925293 63.209538,112.914894 65.789169,112.904495 
	C65.857300,113.660545 65.925430,114.416595 66.006226,115.553925 
	C63.162170,116.159576 60.305439,116.383934 57.215622,116.275406 
z"/>
<path fill="#46545E" opacity="1.000000" stroke="none" 
	d="
M52.815598,112.918411 
	C52.874882,113.673248 52.934166,114.428085 53.005295,115.562790 
	C50.170181,116.149193 47.323223,116.355736 44.226555,116.243607 
	C43.996822,115.166145 44.016796,114.407349 44.549358,113.286728 
	C47.646496,112.922737 50.231049,112.920578 52.815598,112.918411 
z"/>
<path fill="#C58E4C" opacity="1.000000" stroke="none" 
	d="
M241.242035,100.448105 
	C241.231735,101.919876 241.221420,103.391647 241.224396,105.233086 
	C237.539032,105.946228 236.995300,103.642845 237.091049,100.350090 
	C237.020752,99.956184 237.006088,100.019806 237.394806,100.125626 
	C238.936356,100.303665 240.089188,100.375885 241.242035,100.448105 
z"/>
<path fill="#EE593E" opacity="1.000000" stroke="none" 
	d="
M141.010590,40.574970 
	C131.931366,40.963749 122.846268,40.963749 112.899254,40.963749 
	C112.899254,51.575562 112.899254,61.744907 112.814896,72.352798 
	C111.759727,72.771866 110.788925,72.752403 109.369690,72.346680 
	C109.451996,67.892128 106.446381,68.901817 104.352669,68.897797 
	C83.521599,68.857819 62.690426,68.873466 41.859283,68.873398 
	C40.099358,68.873390 38.339436,68.873398 36.479958,68.873398 
	C36.479958,52.569439 36.479958,36.983192 36.479958,21.167297 
	C69.986458,21.167297 103.214722,21.167297 136.997314,21.167297 
	C136.997314,26.513975 136.997314,31.595617 136.997314,36.639534 
	C138.704346,36.824516 139.860550,36.949810 141.016754,37.075100 
	C141.012741,38.112129 141.008728,39.149162 141.010590,40.574970 
M81.359261,38.855831 
	C76.367111,43.845058 71.374962,48.834286 66.444214,53.762146 
	C68.403214,55.948559 69.821716,57.531738 70.870476,58.702244 
	C79.001793,50.545734 86.823914,42.699379 94.741051,34.757717 
	C93.479630,33.501717 91.907158,31.935989 89.556282,29.595207 
	C86.896774,32.622318 84.378609,35.488537 81.359261,38.855831 
M61.849377,34.302902 
	C60.777599,35.491924 59.705822,36.680946 58.877525,37.599857 
	C60.676094,39.532578 62.184151,41.153118 63.342510,42.397881 
	C65.974693,39.942963 68.492050,37.595127 70.673195,35.560871 
	C69.173485,33.768589 67.744652,32.061005 66.178970,30.189884 
	C64.770782,31.519594 63.574215,32.649475 61.849377,34.302902 
M95.896584,51.508427 
	C94.724335,50.440842 93.552086,49.373253 93.093987,48.956047 
	C90.602257,50.653404 88.448952,52.120224 86.771881,53.262638 
	C88.809311,55.518139 90.291702,57.159195 92.440613,59.538116 
	C93.914536,56.755455 95.159973,54.404167 95.896584,51.508427 
z"/>
<path fill="#070505" opacity="1.000000" stroke="none" 
	d="
M141.452026,36.981773 
	C139.860550,36.949810 138.704346,36.824516 136.997314,36.639534 
	C136.997314,31.595617 136.997314,26.513975 136.997314,21.167297 
	C103.214722,21.167297 69.986458,21.167297 36.479958,21.167297 
	C36.479958,36.983192 36.479958,52.569439 36.479958,68.873398 
	C38.339436,68.873398 40.099358,68.873390 41.859283,68.873398 
	C62.690426,68.873466 83.521599,68.857819 104.352669,68.897797 
	C106.446381,68.901817 109.451996,67.892128 109.004608,72.369934 
	C109.121933,75.004082 108.671776,76.318359 105.803345,76.304764 
	C80.360168,76.184113 54.916187,76.234634 29.163136,76.234634 
	C29.163136,55.298618 29.163136,34.572277 29.163136,13.501184 
	C67.235832,13.501184 105.409355,13.501184 144.279663,13.501184 
	C144.279663,20.681376 144.335373,27.923918 144.176102,35.161728 
	C144.163071,35.753807 142.684753,36.313637 141.452026,36.981773 
z"/>
<path fill="#0D0C0B" opacity="1.000000" stroke="none" 
	d="
M241.648224,100.388550 
	C240.089188,100.375885 238.936356,100.303665 237.362579,100.120193 
	C236.941666,87.224602 236.941666,74.440277 236.941666,61.291519 
	C202.115997,61.291519 167.498383,61.291519 132.395020,61.291519 
	C132.395020,70.353760 132.420059,79.287804 132.374237,88.221481 
	C132.364868,90.045990 133.156357,92.543793 129.380310,92.425583 
	C127.700661,92.331238 126.433311,92.148476 125.052628,91.949371 
	C125.052628,79.129539 125.052628,66.500694 125.052628,53.534641 
	C164.666809,53.534641 204.213333,53.534641 244.542770,53.534641 
	C244.542770,55.162411 244.542801,56.917210 244.542801,58.672009 
	C244.542786,71.159386 244.569473,83.646881 244.512314,96.133995 
	C244.504272,97.889877 245.506500,100.486420 241.648224,100.388550 
z"/>
<path fill="#020202" opacity="1.000000" stroke="none" 
	d="
M36.879536,112.468918 
	C26.249937,112.913788 15.687829,112.913307 4.670855,112.905853 
	C4.215989,110.429718 4.215989,107.960556 4.215989,105.246681 
	C14.968169,105.246681 25.716612,105.246681 36.947025,105.246681 
	C36.947025,107.498672 36.947025,109.761116 36.879536,112.468918 
z"/>
<path fill="#030404" opacity="1.000000" stroke="none" 
	d="
M52.885006,112.473373 
	C50.231049,112.920578 47.646496,112.922737 44.631569,112.916229 
	C44.201187,110.439301 44.201187,107.971031 44.201187,105.250885 
	C46.967205,105.250885 49.717613,105.250885 52.954414,105.250885 
	C52.954414,107.496674 52.954414,109.762505 52.885006,112.473373 
z"/>
<path fill="#040405" opacity="1.000000" stroke="none" 
	d="
M65.850281,112.459396 
	C63.209538,112.914894 60.629902,112.925293 57.620193,112.924713 
	C57.190121,110.444771 57.190121,107.975815 57.190121,105.252518 
	C59.959816,105.252518 62.710281,105.252518 65.911385,105.252518 
	C65.911385,107.488174 65.911385,109.751244 65.850281,112.459396 
z"/>
<path fill="#0C0B0A" opacity="1.000000" stroke="none" 
	d="
M120.000000,120.958817 
	C109.542542,120.958809 99.585083,120.958809 89.255234,120.958809 
	C89.255234,118.488770 89.255234,116.270126 89.255234,113.638390 
	C115.652901,113.638390 142.149826,113.638390 169.040207,113.638390 
	C169.040207,115.877083 169.040207,118.249947 169.040207,120.958824 
	C152.704330,120.958824 136.602158,120.958824 120.000000,120.958817 
z"/>
<path fill="#0D0C0B" opacity="1.000000" stroke="none" 
	d="
M213.093842,140.615753 
	C213.058395,142.184204 212.955780,143.340469 212.810364,144.978806 
	C210.255676,143.390564 205.724991,148.292114 204.855759,141.463150 
	C204.989578,139.126907 204.605713,136.673126 207.807404,137.268021 
	C209.839752,137.645630 213.333435,135.615189 213.093842,140.615753 
z"/>
<path fill="#F0F1F2" opacity="1.000000" stroke="none" 
	d="
M202.216400,172.941467 
	C201.386078,170.590683 201.019089,168.276154 200.592010,165.582672 
	C203.622742,165.582672 206.000946,165.582672 208.706573,165.582672 
	C208.706573,167.842453 208.706573,170.069534 208.706573,172.977722 
	C206.808868,172.977722 204.744308,172.977722 202.216400,172.941467 
z"/>
<path fill="#F0F1F2" opacity="1.000000" stroke="none" 
	d="
M225.014343,170.901489 
	C222.664322,172.133011 220.320358,172.910690 217.324951,173.904480 
	C217.324951,170.519226 217.324951,168.176178 217.324951,165.552948 
	C219.714401,165.552948 222.092606,165.552948 224.806259,165.552948 
	C224.881104,167.263824 224.950745,168.855743 225.014343,170.901489 
z"/>
<path fill="#F1F2F3" opacity="1.000000" stroke="none" 
	d="
M241.024155,170.908447 
	C238.662003,172.140533 236.305511,172.917740 233.328705,173.899521 
	C233.328705,170.522400 233.328705,168.182404 233.328705,165.553207 
	C235.722305,165.553207 238.103317,165.553207 241.029816,165.553207 
	C241.029816,167.273026 241.029816,168.863297 241.024155,170.908447 
z"/>
<path fill="#FFFFFF" opacity="1.000000" stroke="none" 
	d="
M164.862549,72.172813 
	C160.232605,72.173431 156.087479,72.173180 151.942337,72.173393 
	C144.601425,72.173767 144.601425,72.173882 143.903946,79.664940 
	C142.888428,79.824654 141.799438,80.079681 140.699295,80.143967 
	C139.718475,80.201256 138.725327,80.047607 137.341232,79.962753 
	C137.341232,75.202499 137.341232,70.482483 137.341232,65.330055 
	C147.667603,65.330055 158.143463,65.330055 169.005539,65.330055 
	C168.700073,68.252022 171.519669,72.399773 164.862549,72.172813 
z"/>
<path fill="#0C0905" opacity="1.000000" stroke="none" 
	d="
M208.904114,112.496735 
	C203.897446,112.948357 198.964615,112.962166 193.573456,112.960159 
	C193.115097,110.518013 193.115097,108.091690 193.115097,105.478432 
	C198.483231,105.478432 203.517700,105.478432 208.977951,105.478432 
	C208.977951,107.843987 208.977951,109.951462 208.904114,112.496735 
z"/>
<path fill="#FFFCF9" opacity="1.000000" stroke="none" 
	d="
M183.027557,64.889542 
	C185.298386,64.889465 187.107498,64.889465 189.274948,64.889465 
	C189.274948,67.342377 189.274948,69.408752 189.274948,71.834297 
	C185.413452,71.834297 181.690659,71.834297 177.604370,71.834297 
	C177.604370,69.670525 177.604370,67.611671 177.604370,65.152107 
	C179.347992,65.059860 180.956924,64.974739 183.027557,64.889542 
z"/>
<path fill="#FFFEFE" opacity="1.000000" stroke="none" 
	d="
M204.969742,68.966324 
	C203.974167,74.602516 200.174850,71.214951 197.326965,72.250801 
	C197.326965,69.772865 197.326965,67.731758 197.326965,65.131805 
	C200.043823,66.050568 204.578766,61.633308 204.969742,68.966324 
z"/>
<path fill="#030302" opacity="1.000000" stroke="none" 
	d="
M45.113441,191.501648 
	C48.441406,190.601578 51.787395,189.126556 54.804310,189.628693 
	C62.207756,190.860901 65.799255,196.972565 64.015045,203.891754 
	C62.359650,210.311417 56.311543,213.625092 49.329685,211.912964 
	C48.207233,211.637695 47.112137,211.250854 45.638985,210.860870 
	C40.795631,204.546860 39.261971,198.242310 45.113441,191.501648 
M52.532291,205.027206 
	C55.830040,204.860840 57.720852,202.965332 56.699692,199.926956 
	C56.233452,198.539719 53.651783,197.500504 51.852150,197.099396 
	C51.111469,196.934341 48.950760,199.051498 49.098259,199.805344 
	C49.452068,201.613678 50.790260,203.229416 52.532291,205.027206 
z"/>
<path fill="#030302" opacity="1.000000" stroke="none" 
	d="
M32.736244,241.402771 
	C32.735565,238.835220 32.982529,237.114609 35.955254,237.362137 
	C39.264519,237.637695 42.637783,237.204422 45.933147,237.552902 
	C47.000683,237.665802 47.910370,239.271362 48.983208,240.589630 
	C48.950661,242.117859 48.827164,243.250580 48.636517,244.999237 
	C44.192635,244.999237 39.666138,245.159607 35.170826,244.856888 
	C34.324661,244.799911 33.602837,242.896667 32.736244,241.402771 
z"/>
<path fill="#070604" opacity="1.000000" stroke="none" 
	d="
M128.607468,140.969879 
	C143.137848,141.827637 155.221527,146.960083 163.798767,158.585129 
	C173.653778,171.942032 175.618347,186.715683 169.113174,201.893036 
	C162.625198,217.030319 150.800278,225.959000 134.211182,228.092972 
	C132.727844,228.283783 131.246384,228.489151 129.382935,228.814163 
	C118.214363,227.882355 108.086090,225.095032 99.960449,217.407547 
	C87.009468,205.154861 82.216530,190.229828 87.135384,173.054062 
	C92.224541,155.283646 104.451935,144.868652 122.757530,141.769272 
	C124.559052,141.464249 126.382149,141.286713 128.607468,140.969879 
M132.222748,149.901733 
	C130.689163,149.523300 129.141083,148.765610 127.624176,148.823563 
	C106.509117,149.630600 91.495743,166.953323 93.038681,188.603806 
	C94.426476,208.077423 112.842789,222.849670 133.938477,220.748596 
	C157.752991,216.226517 170.650482,194.671249 162.953888,172.255875 
	C158.469696,159.196228 144.874893,149.137772 132.222748,149.901733 
z"/>
<path fill="#FFFEFE" opacity="1.000000" stroke="none" 
	d="
M81.609856,38.605293 
	C84.378609,35.488537 86.896774,32.622318 89.556282,29.595207 
	C91.907158,31.935989 93.479630,33.501717 94.741051,34.757717 
	C86.823914,42.699379 79.001793,50.545734 70.870476,58.702244 
	C69.821716,57.531738 68.403214,55.948559 66.444214,53.762146 
	C71.374962,48.834286 76.367111,43.845058 81.609856,38.605293 
z"/>
<path fill="#FFFCFB" opacity="1.000000" stroke="none" 
	d="
M62.113510,34.041130 
	C63.574215,32.649475 64.770782,31.519594 66.178970,30.189884 
	C67.744652,32.061005 69.173485,33.768589 70.673195,35.560871 
	C68.492050,37.595127 65.974693,39.942963 63.342510,42.397881 
	C62.184151,41.153118 60.676094,39.532578 58.877525,37.599857 
	C59.705822,36.680946 60.777599,35.491924 62.113510,34.041130 
z"/>
<path fill="#FFFBFA" opacity="1.000000" stroke="none" 
	d="
M96.150993,51.780655 
	C95.159973,54.404167 93.914536,56.755455 92.440613,59.538116 
	C90.291702,57.159195 88.809311,55.518139 86.771881,53.262638 
	C88.448952,52.120224 90.602257,50.653404 93.093987,48.956047 
	C93.552086,49.373253 94.724335,50.440842 96.150993,51.780655 
z"/>
<path fill="#F1A348" opacity="1.000000" stroke="none" 
	d="
M52.131744,204.975037 
	C50.790260,203.229416 49.452068,201.613678 49.098259,199.805344 
	C48.950760,199.051498 51.111469,196.934341 51.852150,197.099396 
	C53.651783,197.500504 56.233452,198.539719 56.699692,199.926956 
	C57.720852,202.965332 55.830040,204.860840 52.131744,204.975037 
z"/>
<path fill="#C9C9C9" opacity="1.000000" stroke="none" 
	d="
M133.084641,220.725784 
	C112.842789,222.849670 94.426476,208.077423 93.038681,188.603806 
	C91.495743,166.953323 106.509117,149.630600 127.624176,148.823563 
	C129.141083,148.765610 130.689163,149.523300 132.823959,150.287689 
	C146.286667,158.413330 152.033615,170.244308 152.657150,184.865875 
	C151.212448,185.012512 150.158646,185.090073 149.065094,184.725250 
	C149.126694,175.243195 145.586029,168.215698 137.550003,163.746323 
	C130.051392,159.575836 122.652794,160.060959 115.326508,164.314667 
	C109.068451,167.948181 106.579834,174.008759 104.301453,180.515167 
	C98.621384,182.355942 101.932091,185.997192 101.676704,189.080475 
	C103.430107,189.080475 104.728027,189.080475 106.057594,189.424713 
	C107.059097,191.843170 108.028946,193.917389 108.826981,196.269867 
	C107.509529,197.320312 106.363892,198.092499 104.586235,199.290680 
	C108.213257,202.770950 111.413628,205.841843 114.851715,209.140823 
	C116.524101,206.518631 117.657013,204.742294 119.137627,203.124313 
	C121.431969,203.929657 123.378616,204.576645 125.316498,205.657150 
	C125.105209,208.000336 124.902679,209.910034 124.681053,211.999817 
	C131.813766,213.790649 137.811951,211.250992 143.860168,209.030945 
	C142.147614,211.459473 140.459244,213.604919 138.584854,215.573242 
	C136.855209,217.389557 134.925980,219.015823 133.084641,220.725784 
z"/>
<path fill="#F9F9F9" opacity="1.000000" stroke="none" 
	d="
M153.048035,184.796768 
	C152.033615,170.244308 146.286667,158.413330 133.241486,150.405090 
	C144.874893,149.137772 158.469696,159.196228 162.953888,172.255875 
	C170.650482,194.671249 157.752991,216.226517 133.511566,220.737183 
	C134.925980,219.015823 136.855209,217.389557 138.584854,215.573242 
	C140.459244,213.604919 142.147614,211.459473 144.083466,208.790344 
	C151.822357,202.439377 156.432571,195.115799 156.671890,185.197205 
	C155.291733,185.044693 154.169876,184.920731 153.048035,184.796768 
z"/>
<path fill="#FDFDFD" opacity="1.000000" stroke="none" 
	d="
M104.675545,180.481155 
	C106.579834,174.008759 109.068451,167.948181 115.326508,164.314667 
	C122.652794,160.060959 130.051392,159.575836 137.550003,163.746323 
	C145.586029,168.215698 149.126694,175.243195 149.033600,185.114487 
	C148.699402,191.690109 146.200424,196.346710 141.950821,200.150970 
	C137.184586,204.417740 131.350433,205.117996 125.325264,205.223648 
	C123.378616,204.576645 121.431969,203.929657 119.037674,202.812408 
	C116.615128,200.421829 114.762123,198.345657 112.604874,196.658463 
	C111.751183,195.990784 110.220985,196.188126 108.998795,195.991608 
	C108.028946,193.917389 107.059097,191.843170 106.424728,189.274170 
	C107.753777,186.467804 108.747353,184.156189 109.804710,181.696182 
	C107.216072,181.082977 105.945808,180.782074 104.675545,180.481155 
z"/>
<path fill="#080808" opacity="1.000000" stroke="none" 
	d="
M125.316498,205.657150 
	C131.350433,205.117996 137.184586,204.417740 141.950821,200.150970 
	C146.200424,196.346710 148.699402,191.690109 149.073334,185.556854 
	C150.158646,185.090073 151.212448,185.012512 152.657150,184.865875 
	C154.169876,184.920731 155.291733,185.044693 156.671890,185.197205 
	C156.432571,195.115799 151.822357,202.439377 144.026520,208.429993 
	C137.811951,211.250992 131.813766,213.790649 124.681053,211.999817 
	C124.902679,209.910034 125.105209,208.000336 125.316498,205.657150 
z"/>
<path fill="#0C0C0C" opacity="1.000000" stroke="none" 
	d="
M108.826981,196.269867 
	C110.220985,196.188126 111.751183,195.990784 112.604874,196.658463 
	C114.762123,198.345657 116.615128,200.421829 118.689980,202.654053 
	C117.657013,204.742294 116.524101,206.518631 114.851715,209.140823 
	C111.413628,205.841843 108.213257,202.770950 104.586235,199.290680 
	C106.363892,198.092499 107.509529,197.320312 108.826981,196.269867 
z"/>
<path fill="#151515" opacity="1.000000" stroke="none" 
	d="
M104.301453,180.515167 
	C105.945808,180.782074 107.216072,181.082977 109.804710,181.696182 
	C108.747353,184.156189 107.753777,186.467804 106.393074,188.929932 
	C104.728027,189.080475 103.430107,189.080475 101.676704,189.080475 
	C101.932091,185.997192 98.621384,182.355942 104.301453,180.515167 
z"/>
</svg>