<svg version="1.1" id="Layer_1" xmlns="http://www.w3.org/2000/svg" xmlns:xlink="http://www.w3.org/1999/xlink" x="0px" y="0px"
	 width="100%" viewBox="0 0 256 256" enable-background="new 0 0 256 256" xml:space="preserve">
<path fill="#FEFEFE" opacity="1.000000" stroke="none" 
	d="
M207.000000,1.000000 
	C223.644485,1.000000 240.288956,1.000000 256.954041,1.000000 
	C256.954041,86.333344 256.954041,171.666672 256.954041,257.000000 
	C249.584549,257.000000 242.261002,257.000000 234.645630,256.660767 
	C243.345627,255.122650 250.000198,249.534180 252.008636,240.647675 
	C252.944000,236.509094 252.927475,232.107269 252.956802,227.822128 
	C253.016479,219.103012 247.807785,213.975113 239.077042,213.919067 
	C231.811188,213.872421 224.544785,213.909515 217.147110,213.909515 
	C217.147110,211.512512 217.147110,209.718155 217.147110,207.919037 
	C226.506805,208.266800 236.232788,198.060654 235.172302,188.737457 
	C234.913956,186.466232 233.765945,183.323471 232.041382,182.376587 
	C227.130203,179.680130 225.988968,176.217987 226.343246,170.815842 
	C226.562973,167.465332 226.775284,165.455338 229.950256,163.847565 
	C234.716278,161.434158 236.119461,157.117737 235.020264,152.053894 
	C232.989014,142.696381 226.575699,137.155060 217.001678,136.611420 
	C217.001678,132.850418 217.054489,129.054565 216.988266,125.260773 
	C216.905853,120.539345 215.633469,119.635231 210.901535,120.308960 
	C211.330261,116.535645 211.691177,113.176277 212.431183,109.795837 
	C216.870117,109.343559 217.062332,106.559860 217.054626,103.300804 
	C216.987900,75.083725 216.785767,46.863365 217.158340,18.651041 
	C217.268936,10.276646 214.657272,4.432186 207.000000,1.000000 
z"/>
<path fill="#040304" opacity="1.000000" stroke="none" 
	d="
M210.833710,120.722916 
	C215.633469,119.635231 216.905853,120.539345 216.988266,125.260773 
	C217.054489,129.054565 217.001678,132.850418 217.001678,136.611420 
	C226.575699,137.155060 232.989014,142.696381 235.020264,152.053894 
	C236.119461,157.117737 234.716278,161.434158 229.950256,163.847565 
	C226.775284,165.455338 226.562973,167.465332 226.343246,170.815842 
	C225.988968,176.217987 227.130203,179.680130 232.041382,182.376587 
	C233.765945,183.323471 234.913956,186.466232 235.172302,188.737457 
	C236.232788,198.060654 226.506805,208.266800 217.147110,207.919037 
	C217.147110,209.718155 217.147110,211.512512 217.147110,213.909515 
	C224.544785,213.909515 231.811188,213.872421 239.077042,213.919067 
	C247.807785,213.975113 253.016479,219.103012 252.956802,227.822128 
	C252.927475,232.107269 252.944000,236.509094 252.008636,240.647675 
	C250.000198,249.534180 243.345627,255.122650 234.176880,256.660767 
	C198.979111,257.000000 163.958206,257.000000 128.323792,256.646912 
	C127.146843,254.713654 126.583412,253.133530 126.019981,251.553391 
	C127.932388,250.885422 129.842560,249.642639 131.757538,249.635193 
	C163.532455,249.511307 195.307999,249.551895 227.083344,249.515961 
	C229.055695,249.513718 231.027664,249.182129 233.353577,249.076218 
	C234.802902,248.758575 235.898468,248.368484 237.308884,247.974396 
	C238.433853,247.359482 239.243958,246.748581 240.378693,246.040085 
	C241.820572,244.301682 242.937805,242.660889 244.325089,240.820160 
	C244.733719,239.748032 244.872314,238.875854 245.213013,237.718964 
	C245.449677,236.283157 245.484238,235.132065 245.618164,233.572968 
	C245.182709,229.216232 247.526245,224.392532 242.051392,221.600403 
	C240.876389,221.274399 239.935501,221.222198 238.531387,221.096588 
	C216.047363,221.071930 194.026550,221.120667 171.560684,221.090820 
	C168.408539,221.064606 165.701447,221.116959 162.531128,221.096237 
	C126.929253,221.017166 91.790611,221.006882 56.651978,221.009003 
	C49.916874,221.009415 48.690300,222.744400 48.125267,229.652588 
	C47.647587,235.492798 46.091572,241.244812 44.707687,247.225281 
	C44.597511,248.009476 44.792446,248.604233 45.389050,249.343689 
	C67.010124,249.507889 88.229805,249.484467 109.448418,249.624664 
	C111.235283,249.636475 114.199066,250.383530 114.519318,251.430405 
	C114.995308,252.986404 113.599297,255.115067 113.000000,257.000000 
	C83.312439,257.000000 53.624878,257.000000 23.323059,256.656433 
	C12.186003,254.151810 5.030394,245.878906 5.021230,235.416489 
	C4.971076,178.157562 5.014619,120.898552 4.949633,63.639664 
	C4.946108,60.534210 5.829804,58.517601 9.362181,58.002724 
	C10.567415,60.475250 12.121716,62.794891 12.131231,65.120857 
	C12.284479,102.577232 12.228793,140.034424 12.252431,177.491409 
	C12.257363,185.308319 12.390479,193.125153 12.359348,201.403656 
	C12.242933,206.356705 12.217107,210.848160 12.223888,215.339584 
	C12.233935,221.993103 12.019558,228.659027 12.352534,235.296997 
	C12.777356,243.765915 18.862886,249.510315 26.741608,249.414368 
	C34.456230,249.320404 40.429749,243.197525 40.884140,234.884949 
	C40.956684,233.557831 40.912052,232.223984 40.911861,230.893250 
	C40.909973,217.651169 44.924320,213.589172 58.125431,213.584671 
	C93.891220,213.572449 129.656998,213.582245 165.422791,213.583298 
	C167.171951,213.583344 168.921112,213.583313 171.188293,213.583313 
	C170.737839,211.935181 170.780334,210.625290 170.211166,210.254578 
	C167.299973,208.358475 164.263412,206.643204 161.188477,205.020493 
	C160.609711,204.715088 159.597824,204.953384 158.887421,205.215851 
	C147.510345,209.419373 146.321304,209.098206 139.965973,199.606812 
	C139.000122,197.668106 137.996078,196.128281 137.221970,194.480408 
	C134.849976,189.431000 135.774521,183.893051 140.595856,181.362106 
	C144.886948,179.109497 145.084335,176.175430 145.115784,172.178955 
	C145.146210,168.311981 144.916885,165.514694 140.854187,163.335297 
	C135.835541,160.643066 134.805420,155.081451 137.264557,149.857834 
	C142.587982,138.550003 147.696564,134.019760 153.907166,137.208618 
	C159.776917,140.222488 163.750076,138.546158 167.938477,135.290787 
	C169.329300,134.209778 170.663589,132.181305 170.787735,130.494995 
	C171.360352,122.717697 174.961700,119.049904 182.801971,118.972275 
	C185.465210,118.945900 188.134766,118.876770 190.791489,119.016533 
	C196.188553,119.300453 201.015701,123.045586 200.669418,128.297272 
	C200.210861,135.251801 205.027405,135.985062 209.194016,138.180038 
	C209.765625,132.094406 210.299667,126.408661 210.833710,120.722916 
M153.740753,199.583405 
	C158.516708,195.556961 163.114822,195.254166 167.579788,200.122375 
	C168.225769,200.826675 169.208633,201.326218 170.130219,201.656311 
	C175.415421,203.549438 180.087570,205.868042 178.157272,213.050110 
	C183.471313,213.050110 188.045868,213.050110 193.270416,213.050110 
	C191.775848,206.211960 195.947525,203.744980 201.176773,201.885239 
	C203.003723,201.235489 204.768494,200.014557 206.173050,198.653458 
	C209.394104,195.532028 212.325165,195.859344 215.925781,198.189819 
	C221.243164,201.631439 222.090805,201.229614 225.166611,195.810104 
	C225.823288,194.653046 226.452988,193.477386 227.171494,192.359375 
	C228.771317,189.870010 228.277054,187.538879 225.693542,186.576233 
	C219.333786,184.206467 217.902283,179.741409 219.094498,173.618683 
	C219.436218,171.863708 219.340302,169.915024 218.975571,168.152313 
	C218.057007,163.713165 219.644653,161.060928 223.728470,159.032135 
	C229.124802,156.351318 229.143188,155.486374 226.094086,150.192169 
	C225.264282,148.751343 224.682648,146.961288 223.459122,146.012222 
	C222.264435,145.085526 219.659576,144.135925 218.937775,144.730591 
	C212.950531,149.663300 207.768890,148.180786 202.703461,143.408722 
	C202.235794,142.968155 201.582916,142.620514 200.957733,142.466873 
	C194.780624,140.948654 192.170212,137.201782 193.154465,130.794846 
	C193.337097,129.606125 192.312744,127.160706 191.656250,127.091568 
	C187.932327,126.699364 183.988373,126.231766 180.475052,127.150398 
	C179.204788,127.482529 178.338440,131.576523 178.317413,133.963028 
	C178.283676,137.789886 177.299301,140.184280 173.348221,141.418854 
	C170.717834,142.240753 168.087662,143.726227 166.025635,145.555313 
	C162.586121,148.606247 159.577454,148.703232 155.749786,146.229080 
	C150.292282,142.701416 149.797241,143.006943 146.625610,148.618652 
	C145.889282,149.921463 144.523666,151.202484 144.513931,152.501526 
	C144.500305,154.319107 145.032883,157.361923 146.119705,157.767136 
	C152.838669,160.272110 153.951904,165.042999 152.749115,171.277695 
	C152.441818,172.870605 152.559433,174.642990 152.898972,176.244476 
	C153.831696,180.643936 152.434387,183.561584 148.219254,185.394089 
	C145.879547,186.411255 143.069275,187.496155 144.048447,191.162567 
	C145.375031,196.129730 149.371353,200.070969 153.740753,199.583405 
M209.812347,212.159103 
	C209.812347,210.226959 209.812347,208.294815 209.812347,205.367035 
	C206.663467,208.588943 201.307251,207.813492 200.817657,213.944885 
	C204.104065,213.576065 206.829468,213.270218 209.812347,212.159103 
z"/>
<path fill="#FAFAFA" opacity="1.000000" stroke="none" 
	d="
M45.012802,247.035858 
	C46.091572,241.244812 47.647587,235.492798 48.125267,229.652588 
	C48.690300,222.744400 49.916874,221.009415 56.651978,221.009003 
	C91.790611,221.006882 126.929253,221.017166 162.579010,221.448212 
	C164.912231,223.221024 166.734329,224.568802 168.556427,225.916565 
	C169.706192,224.334167 170.855972,222.751785 172.005737,221.169403 
	C194.026550,221.120667 216.047363,221.071930 238.588211,221.404053 
	C240.167328,221.814667 241.226410,221.844452 242.285492,221.874237 
	C247.526245,224.392532 245.182709,229.216232 245.299103,233.639145 
	C243.021683,235.473770 241.408722,236.826004 245.010910,238.003662 
	C244.872314,238.875854 244.733719,239.748032 243.931610,240.820480 
	C239.663910,241.135452 239.983948,243.715057 240.054047,246.137680 
	C239.243958,246.748581 238.433853,247.359482 237.273041,247.621704 
	C236.409210,245.920319 235.896072,244.567642 235.382935,243.214951 
	C235.046341,243.304062 234.709763,243.393188 234.373169,243.482300 
	C233.915375,245.322784 233.457596,247.163269 232.999817,249.003754 
	C231.027664,249.182129 229.055695,249.513718 227.083344,249.515961 
	C195.307999,249.551895 163.532455,249.511307 131.757538,249.635193 
	C129.842560,249.642639 127.932388,250.885422 126.019981,251.553391 
	C126.583412,253.133530 127.146843,254.713654 127.855141,256.646912 
	C123.310745,257.000000 118.621490,257.000000 113.466125,257.000000 
	C113.599297,255.115067 114.995308,252.986404 114.519318,251.430405 
	C114.199066,250.383530 111.235283,249.636475 109.448418,249.624664 
	C88.229805,249.484467 67.010124,249.507889 45.396679,248.983154 
	C45.006027,247.997238 45.009415,247.516556 45.012802,247.035858 
M54.409256,222.482849 
	C54.409256,222.482849 54.523155,222.414307 54.409256,222.482849 
z"/>
<path fill="#0A0A0A" opacity="1.000000" stroke="none" 
	d="
M206.531342,1.000000 
	C214.657272,4.432186 217.268936,10.276646 217.158340,18.651041 
	C216.785767,46.863365 216.987900,75.083725 217.054626,103.300804 
	C217.062332,106.559860 216.870117,109.343559 212.194275,109.485489 
	C210.969772,107.087074 209.840103,104.980072 209.831482,102.868492 
	C209.714523,74.223129 209.765778,45.577114 209.743683,16.931288 
	C209.738632,10.391963 208.113327,8.607366 202.070969,8.604966 
	C141.448380,8.580893 80.825775,8.576754 20.203182,8.594689 
	C13.923192,8.596547 12.283137,10.312582 12.260444,16.654350 
	C12.230048,25.148050 12.460217,33.650509 12.106922,42.129555 
	C12.021898,44.170132 10.080726,46.133369 8.622101,48.028980 
	C7.162579,46.135086 5.214670,44.381981 5.134414,42.547176 
	C4.786688,34.597469 5.376194,26.599234 4.876594,18.665768 
	C4.348829,10.285087 7.267355,4.394112 15.000000,1.000000 
	C78.687561,1.000000 142.375122,1.000000 206.531342,1.000000 
z"/>
<path fill="#FEFEFE" opacity="1.000000" stroke="none" 
	d="
M14.525872,1.000000 
	C7.267355,4.394112 4.348829,10.285087 4.876594,18.665768 
	C5.376194,26.599234 4.786688,34.597469 5.134414,42.547176 
	C5.214670,44.381981 7.162579,46.135086 8.625963,48.470490 
	C8.998101,51.961052 8.995314,54.906914 8.992526,57.852776 
	C5.829804,58.517601 4.946108,60.534210 4.949633,63.639664 
	C5.014619,120.898552 4.971076,178.157562 5.021230,235.416489 
	C5.030394,245.878906 12.186003,254.151810 22.854403,256.656433 
	C15.677941,257.000000 8.355884,257.000000 1.034864,257.000000 
	C1.035903,171.666656 1.035903,86.333328 1.035903,1.000000 
	C5.398452,1.000000 9.725099,1.000000 14.525872,1.000000 
z"/>
<path fill="#F4F3F1" opacity="1.000000" stroke="none" 
	d="
M9.362181,58.002724 
	C8.995314,54.906914 8.998101,51.961052 8.997026,48.573681 
	C10.080726,46.133369 12.021898,44.170132 12.106922,42.129555 
	C12.460217,33.650509 12.230048,25.148050 12.260444,16.654350 
	C12.283137,10.312582 13.923192,8.596547 20.203182,8.594689 
	C80.825775,8.576754 141.448380,8.580893 202.070969,8.604966 
	C208.113327,8.607366 209.738632,10.391963 209.743683,16.931288 
	C209.765778,45.577114 209.714523,74.223129 209.831482,102.868492 
	C209.840103,104.980072 210.969772,107.087074 211.815186,109.506554 
	C211.691177,113.176277 211.330261,116.535645 210.901520,120.308960 
	C210.299667,126.408661 209.765625,132.094406 209.194016,138.180038 
	C205.027405,135.985062 200.210861,135.251801 200.669418,128.297272 
	C201.015701,123.045586 196.188553,119.300453 190.791489,119.016533 
	C188.134766,118.876770 185.465210,118.945900 182.801971,118.972275 
	C174.961700,119.049904 171.360352,122.717697 170.787735,130.494995 
	C170.663589,132.181305 169.329300,134.209778 167.938477,135.290787 
	C163.750076,138.546158 159.776917,140.222488 153.907166,137.208618 
	C147.696564,134.019760 142.587982,138.550003 137.264557,149.857834 
	C134.805420,155.081451 135.835541,160.643066 140.854187,163.335297 
	C144.916885,165.514694 145.146210,168.311981 145.115784,172.178955 
	C145.084335,176.175430 144.886948,179.109497 140.595856,181.362106 
	C135.774521,183.893051 134.849976,189.431000 137.221970,194.480408 
	C137.996078,196.128281 139.000122,197.668106 139.681580,199.921021 
	C137.664764,200.732986 135.865677,201.005737 134.065918,201.010391 
	C115.316475,201.058899 96.566925,201.064346 77.517815,200.828339 
	C75.617889,199.947342 74.022461,198.789520 72.416451,198.774643 
	C57.331612,198.634857 42.244106,198.616196 27.160023,198.791245 
	C25.430403,198.811310 23.716997,200.228912 21.554947,201.008636 
	C18.230722,200.993179 15.347623,200.967606 12.464524,200.942032 
	C12.390479,193.125153 12.257363,185.308319 12.252431,177.491409 
	C12.228793,140.034424 12.284479,102.577232 12.131231,65.120857 
	C12.121716,62.794891 10.567415,60.475250 9.362181,58.002724 
M86.497215,145.241562 
	C90.491188,145.238312 94.487488,145.321564 98.478661,145.214203 
	C107.457596,144.972702 113.000206,139.463303 113.111763,130.436127 
	C113.245422,119.620613 113.242554,108.801186 113.121704,97.985435 
	C113.018898,88.783875 107.283722,83.068344 98.092239,83.032021 
	C77.789558,82.951782 57.486149,82.956947 37.183403,83.029678 
	C27.818642,83.063225 22.062611,88.919388 21.995434,98.356842 
	C21.921995,108.674232 21.943890,118.992729 21.992008,129.310440 
	C22.040537,139.715851 27.531693,145.181610 38.069050,145.221863 
	C53.878540,145.282257 69.688423,145.240128 86.497215,145.241562 
M33.076153,65.991043 
	C31.738701,67.504395 30.401249,69.017754 29.063797,70.531105 
	C30.754965,71.555069 32.380177,72.723572 34.166611,73.538773 
	C34.993755,73.916229 36.135105,73.606110 37.134007,73.606087 
	C86.579697,73.605003 136.025391,73.605797 185.471085,73.592743 
	C186.961960,73.592346 188.658707,73.862709 189.886780,73.254410 
	C191.160172,72.623680 192.909637,70.949684 192.774963,69.960060 
	C192.582764,68.547882 191.092834,66.928749 189.728104,66.177170 
	C188.569244,65.538948 186.802628,65.984344 185.304916,65.984245 
	C134.860321,65.980690 84.415718,65.981224 33.076153,65.991043 
M49.500053,169.153687 
	C42.171375,169.154053 34.828503,168.906082 27.523672,169.323624 
	C25.619066,169.432480 22.499563,171.400833 22.260523,172.888367 
	C21.703873,176.352371 24.757137,176.968216 27.663887,176.898743 
	C27.996798,176.890778 28.330101,176.900024 28.663221,176.900024 
	C62.475098,176.900757 96.286972,176.902039 130.098846,176.898590 
	C131.096909,176.898499 132.347763,177.217667 133.039703,176.743866 
	C134.422241,175.797195 136.627228,174.182938 136.444061,173.243942 
	C136.148315,171.727844 134.383362,170.228577 132.879105,169.314087 
	C131.899323,168.718460 130.281982,169.157181 128.950256,169.157013 
	C102.800186,169.153748 76.650116,169.154083 49.500053,169.153687 
M22.009272,158.524033 
	C22.385641,161.846313 24.705185,162.243073 27.423349,162.241684 
	C59.862255,162.225128 92.301170,162.234207 124.740089,162.242844 
	C127.405235,162.243561 130.064606,161.955856 130.004379,158.508560 
	C129.944885,155.101929 127.311707,154.879700 124.632179,154.881241 
	C92.193222,154.899780 59.754028,154.847717 27.315859,155.008469 
	C25.571877,155.017105 23.836458,156.753571 22.009272,158.524033 
M73.500061,183.830490 
	C58.337288,183.831680 43.174507,183.843094 28.011757,183.824799 
	C25.251234,183.821457 22.161791,183.721039 22.109476,187.433807 
	C22.057249,191.140457 25.094673,191.174942 27.890846,191.174011 
	C59.882587,191.163284 91.874336,191.178131 123.866081,191.169357 
	C126.705093,191.168579 130.102814,191.480225 129.980942,187.291946 
	C129.869247,183.453232 126.646202,183.841614 123.987396,183.839752 
	C107.491623,183.828293 90.995850,183.831894 73.500061,183.830490 
M78.267586,27.676937 
	C71.186821,34.707546 69.948639,43.116173 74.889427,50.618382 
	C79.396790,57.462471 87.863518,60.251812 95.484390,57.336552 
	C102.184029,54.773701 105.999680,49.732998 106.745407,42.752224 
	C107.499329,35.694832 104.562874,29.935726 98.509659,26.282372 
	C91.910477,22.299500 85.203743,22.794857 78.267586,27.676937 
M197.413269,97.710197 
	C187.951309,97.604416 178.489578,97.442795 169.027359,97.406143 
	C155.398621,97.353348 141.769531,97.387535 128.140594,97.393967 
	C125.468590,97.395233 122.478737,97.920982 123.074089,101.166061 
	C123.355682,102.700912 126.362457,104.810074 128.155029,104.830185 
	C150.423904,105.080048 172.696823,105.037048 194.967636,104.897438 
	C196.514969,104.887733 198.750534,103.880371 199.384903,102.667091 
	C199.931946,101.620857 198.651367,99.619019 197.413269,97.710197 
M50.644966,58.357628 
	C57.297146,58.062695 53.683510,51.987583 55.629604,48.770069 
	C58.099884,51.572899 60.045601,54.368629 62.589142,56.424873 
	C63.912579,57.494759 66.800201,58.154449 68.084679,57.423618 
	C70.592651,55.996658 69.845299,53.536747 68.073341,51.516922 
	C66.241524,49.428864 64.460533,47.296227 62.651001,45.175705 
	C69.163383,40.079838 70.783073,36.446548 69.069977,31.227798 
	C67.344040,25.969961 63.291962,23.714138 55.461731,23.650936 
	C54.631054,23.644230 53.799160,23.659336 52.969971,23.619619 
	C49.011429,23.430006 47.206863,25.244532 47.262016,29.264103 
	C47.369129,37.070889 47.139736,44.885620 47.413044,52.684326 
	C47.477432,54.521717 48.984612,56.308540 50.644966,58.357628 
M178.827774,54.398701 
	C179.063065,52.350731 179.298340,50.302761 179.533630,48.254791 
	C177.626312,48.410904 175.345062,47.950176 173.881104,48.837646 
	C169.307922,51.609974 165.258820,51.673965 161.670456,48.334431 
	C158.211868,45.115673 157.449387,40.047707 159.823990,36.061604 
	C162.340714,31.836933 167.163773,30.112011 171.876068,31.900860 
	C174.660477,32.957863 177.871597,35.037109 179.344162,30.794361 
	C180.718369,26.835056 177.021957,25.865732 174.303589,24.819729 
	C166.558655,21.839561 157.871613,24.858004 153.462036,31.931503 
	C149.220963,38.734684 150.318939,47.780304 156.073181,53.443554 
	C162.249878,59.522568 170.663132,60.066837 178.827774,54.398701 
M130.564697,26.337826 
	C130.428574,35.622784 130.116211,44.911934 130.336609,54.188419 
	C130.371735,55.666637 132.640182,58.098179 134.151871,58.335968 
	C137.875519,58.921700 141.797516,58.783070 145.558319,58.300697 
	C146.848282,58.135242 148.992004,55.860474 148.805405,54.944717 
	C148.504074,53.465851 146.795074,51.600986 145.320862,51.190201 
	C143.058289,50.559746 140.490540,51.024529 138.131790,51.024529 
	C138.131790,48.708820 138.131790,46.970528 138.131790,44.975727 
	C140.217804,44.975727 142.215485,45.461624 143.776794,44.844112 
	C145.462570,44.177380 146.740341,42.479004 148.196091,41.230648 
	C146.761017,39.967144 145.512192,38.207664 143.838638,37.579224 
	C142.155212,36.947075 140.049240,37.440140 137.807343,37.440140 
	C137.924866,35.065098 138.009506,33.354393 138.115936,31.203598 
	C141.050430,31.203598 143.604141,31.567892 145.965546,31.052025 
	C147.171188,30.788643 148.627396,29.056364 148.861893,27.783770 
	C149.052399,26.749815 147.561829,24.356848 146.865982,24.375767 
	C141.568878,24.519783 136.283890,25.108633 130.564697,26.337826 
M38.662117,44.334709 
	C44.760139,38.723530 45.067001,30.812729 39.210243,26.271351 
	C34.249878,22.425041 28.451189,23.505241 22.881666,24.191635 
	C21.997301,24.300625 20.736752,26.422625 20.712309,27.635357 
	C20.531103,36.625713 20.464748,45.627090 20.791843,54.609364 
	C20.839502,55.918125 23.169298,57.143776 24.443092,58.407887 
	C25.627312,57.051083 27.455652,55.855331 27.844614,54.299686 
	C28.426395,51.972881 27.995750,49.392937 27.995750,47.439270 
	C31.690512,46.472004 34.870487,45.639503 38.662117,44.334709 
M205.240631,26.544771 
	C204.356216,25.655525 203.502106,24.034744 202.582443,23.996666 
	C196.938370,23.762978 191.271835,23.741228 185.633011,24.035955 
	C184.690887,24.085197 183.077332,26.081827 183.148804,27.080206 
	C183.243561,28.404188 184.437561,30.034288 185.630005,30.781895 
	C186.725281,31.468580 188.444733,31.159725 190.287872,31.325294 
	C190.287872,38.519646 190.312195,45.484966 190.276047,52.449970 
	C190.261353,55.281509 190.462250,58.246647 194.041122,58.326660 
	C197.631073,58.406921 197.981674,55.543594 197.957932,52.644569 
	C197.899628,45.525208 197.938858,38.405048 197.938858,31.285208 
	C198.424377,31.644651 198.909882,32.004093 199.395401,32.363537 
	C201.382004,30.715153 203.368591,29.066767 205.240631,26.544771 
M161.432678,111.972130 
	C150.125671,111.973579 138.815414,111.844894 127.515396,112.126694 
	C125.947906,112.165779 124.430946,114.231224 122.890594,115.358597 
	C124.069984,116.666504 125.229332,119.090561 126.431808,119.112160 
	C140.725220,119.368752 155.026367,119.349342 169.320801,119.115578 
	C170.561340,119.095284 171.768631,117.041878 172.991364,115.932869 
	C171.791122,114.620522 170.804794,112.610680 169.339844,112.161392 
	C167.210037,111.508179 164.735153,111.980034 161.432678,111.972130 
M108.680214,55.464245 
	C115.348244,60.349827 122.989578,58.897556 123.966476,51.827469 
	C125.090408,43.693291 124.612778,35.314804 124.435066,27.050940 
	C124.411011,25.932365 121.832916,23.793587 120.887085,24.018463 
	C119.417526,24.367861 117.408379,26.242374 117.258392,27.644785 
	C116.784691,32.073898 117.066170,36.584042 117.060242,41.062840 
	C117.056000,44.267067 117.059418,47.471306 117.059418,50.950497 
	C108.852600,48.403156 107.705315,49.014084 108.680214,55.464245 
z"/>
<path fill="#786B76" opacity="1.000000" stroke="none" 
	d="
M153.378235,199.743774 
	C149.371353,200.070969 145.375031,196.129730 144.048447,191.162567 
	C143.069275,187.496155 145.879547,186.411255 148.219254,185.394089 
	C152.434387,183.561584 153.831696,180.643936 152.898972,176.244476 
	C152.559433,174.642990 152.441818,172.870605 152.749115,171.277695 
	C153.951904,165.042999 152.838669,160.272110 146.119705,157.767136 
	C145.032883,157.361923 144.500305,154.319107 144.513931,152.501526 
	C144.523666,151.202484 145.889282,149.921463 146.625610,148.618652 
	C149.797241,143.006943 150.292282,142.701416 155.749786,146.229080 
	C159.577454,148.703232 162.586121,148.606247 166.025635,145.555313 
	C168.087662,143.726227 170.717834,142.240753 173.348221,141.418854 
	C177.299301,140.184280 178.283676,137.789886 178.317413,133.963028 
	C178.338440,131.576523 179.204788,127.482529 180.475052,127.150398 
	C183.988373,126.231766 187.932327,126.699364 191.656250,127.091568 
	C192.312744,127.160706 193.337097,129.606125 193.154465,130.794846 
	C192.170212,137.201782 194.780624,140.948654 200.957733,142.466873 
	C201.582916,142.620514 202.235794,142.968155 202.703461,143.408722 
	C207.768890,148.180786 212.950531,149.663300 218.937775,144.730591 
	C219.659576,144.135925 222.264435,145.085526 223.459122,146.012222 
	C224.682648,146.961288 225.264282,148.751343 226.094086,150.192169 
	C229.143188,155.486374 229.124802,156.351318 223.728470,159.032135 
	C219.644653,161.060928 218.057007,163.713165 218.975571,168.152313 
	C219.340302,169.915024 219.436218,171.863708 219.094498,173.618683 
	C217.902283,179.741409 219.333786,184.206467 225.693542,186.576233 
	C228.277054,187.538879 228.771317,189.870010 227.171494,192.359375 
	C226.452988,193.477386 225.823288,194.653046 225.166611,195.810104 
	C222.090805,201.229614 221.243164,201.631439 215.925781,198.189819 
	C212.325165,195.859344 209.394104,195.532028 206.173050,198.653458 
	C204.768494,200.014557 203.003723,201.235489 201.176773,201.885239 
	C195.947525,203.744980 191.775848,206.211960 193.270416,213.050110 
	C188.045868,213.050110 183.471313,213.050110 178.157272,213.050110 
	C180.087570,205.868042 175.415421,203.549438 170.130219,201.656311 
	C169.208633,201.326218 168.225769,200.826675 167.579788,200.122375 
	C163.114822,195.254166 158.516708,195.556961 153.378235,199.743774 
M200.051453,185.531418 
	C206.546799,177.739960 207.105377,168.593735 201.561096,160.812607 
	C196.599884,153.849777 187.364532,150.972183 179.399673,153.907455 
	C171.783585,156.714188 166.355942,163.767670 166.356583,171.696487 
	C166.357254,179.859329 170.127472,186.192490 177.513641,189.740189 
	C185.537827,193.594330 193.008224,192.111786 200.051453,185.531418 
z"/>
<path fill="#D4D1E1" opacity="1.000000" stroke="none" 
	d="
M12.359348,201.403656 
	C15.347623,200.967606 18.230722,200.993179 21.572794,201.408844 
	C22.066620,205.006729 23.924509,206.065109 26.862976,206.060455 
	C42.125679,206.036240 57.388599,206.018753 72.651077,206.084076 
	C76.159874,206.099091 77.951874,204.667923 77.817406,201.081726 
	C96.566925,201.064346 115.316475,201.058899 134.065918,201.010391 
	C135.865677,201.005737 137.664764,200.732986 139.748566,200.270477 
	C146.321304,209.098206 147.510345,209.419373 158.887421,205.215851 
	C159.597824,204.953384 160.609711,204.715088 161.188477,205.020493 
	C164.263412,206.643204 167.299973,208.358475 170.211166,210.254578 
	C170.780334,210.625290 170.737839,211.935181 171.188293,213.583313 
	C168.921112,213.583313 167.171951,213.583344 165.422791,213.583298 
	C129.656998,213.582245 93.891220,213.572449 58.125431,213.584671 
	C44.924320,213.589172 40.909973,217.651169 40.911861,230.893250 
	C40.912052,232.223984 40.956684,233.557831 40.884140,234.884949 
	C40.429749,243.197525 34.456230,249.320404 26.741608,249.414368 
	C18.862886,249.510315 12.777356,243.765915 12.352534,235.296997 
	C12.019558,228.659027 12.233935,221.993103 12.223888,215.339584 
	C12.217107,210.848160 12.242933,206.356705 12.359348,201.403656 
z"/>
<path fill="#C0BECA" opacity="1.000000" stroke="none" 
	d="
M209.683594,212.561737 
	C206.829468,213.270218 204.104065,213.576065 200.817657,213.944885 
	C201.307251,207.813492 206.663467,208.588943 209.812347,205.367035 
	C209.812347,208.294815 209.812347,210.226959 209.683594,212.561737 
z"/>
<path fill="#F5F4F2" opacity="1.000000" stroke="none" 
	d="
M171.560684,221.090820 
	C170.855972,222.751785 169.706192,224.334167 168.556427,225.916565 
	C166.734329,224.568802 164.912231,223.221024 163.042252,221.521271 
	C165.701447,221.116959 168.408539,221.064606 171.560684,221.090820 
z"/>
<path fill="#F5F4F2" opacity="1.000000" stroke="none" 
	d="
M233.353577,249.076202 
	C233.457596,247.163269 233.915375,245.322784 234.373169,243.482300 
	C234.709763,243.393188 235.046341,243.304062 235.382935,243.214951 
	C235.896072,244.567642 236.409210,245.920319 236.958176,247.625702 
	C235.898468,248.368484 234.802902,248.758575 233.353577,249.076202 
z"/>
<path fill="#F5F4F2" opacity="1.000000" stroke="none" 
	d="
M240.378693,246.040085 
	C239.983948,243.715057 239.663910,241.135452 243.661560,241.020416 
	C242.937805,242.660889 241.820572,244.301682 240.378693,246.040085 
z"/>
<path fill="#F5F4F2" opacity="1.000000" stroke="none" 
	d="
M245.213013,237.718964 
	C241.408722,236.826004 243.021683,235.473770 245.199738,234.047119 
	C245.484238,235.132065 245.449677,236.283157 245.213013,237.718964 
z"/>
<path fill="#F5F4F2" opacity="1.000000" stroke="none" 
	d="
M242.051392,221.600418 
	C241.226410,221.844452 240.167328,221.814667 239.051422,221.477448 
	C239.935501,221.222198 240.876389,221.274399 242.051392,221.600418 
z"/>
<path fill="#F5F4F2" opacity="1.000000" stroke="none" 
	d="
M44.707691,247.225281 
	C45.009415,247.516556 45.006027,247.997238 44.995007,248.838470 
	C44.792446,248.604233 44.597511,248.009476 44.707691,247.225281 
z"/>
<path fill="#F5F4F2" opacity="1.000000" stroke="none" 
	d="
M54.466206,222.448578 
	C54.523155,222.414307 54.409256,222.482849 54.466206,222.448578 
z"/>
<path fill="#040302" opacity="1.000000" stroke="none" 
	d="
M85.997681,145.241577 
	C69.688423,145.240128 53.878540,145.282257 38.069050,145.221863 
	C27.531693,145.181610 22.040537,139.715851 21.992008,129.310440 
	C21.943890,118.992729 21.921995,108.674232 21.995434,98.356842 
	C22.062611,88.919388 27.818642,83.063225 37.183403,83.029678 
	C57.486149,82.956947 77.789558,82.951782 98.092239,83.032021 
	C107.283722,83.068344 113.018898,88.783875 113.121704,97.985435 
	C113.242554,108.801186 113.245422,119.620613 113.111763,130.436127 
	C113.000206,139.463303 107.457596,144.972702 98.478661,145.214203 
	C94.487488,145.321564 90.491188,145.238312 85.997681,145.241577 
M29.585814,95.691582 
	C29.580904,106.099266 29.575994,116.506958 29.398739,127.779472 
	C29.530725,129.223007 29.662710,130.666534 29.630220,132.431046 
	C29.634912,132.695724 29.749901,132.897659 29.990957,133.550995 
	C30.093351,133.688507 30.195745,133.826035 30.412312,134.513901 
	C30.948921,135.003555 31.485531,135.493210 32.414566,136.660049 
	C34.659927,137.091476 36.903351,137.885223 39.150959,137.897278 
	C57.936859,137.998001 76.723602,137.976532 95.509842,137.914856 
	C97.035797,137.909851 98.559875,137.333160 100.533226,136.984436 
	C100.533226,136.984436 100.976639,136.907852 101.560120,137.080154 
	C101.760132,136.736069 101.960136,136.391968 102.563599,136.004303 
	C102.563599,136.004303 102.954971,135.897079 103.525070,136.005005 
	C103.719658,135.693466 103.914246,135.381943 104.003891,135.015305 
	C104.003891,135.015305 104.085617,135.101196 104.750191,134.686462 
	C105.149368,132.937119 105.875648,131.191193 105.893982,129.437866 
	C106.003036,119.004318 106.018082,108.568054 105.867607,98.135544 
	C105.846962,96.704506 104.729660,95.289284 104.016373,93.999199 
	C104.016373,93.999199 104.141357,93.886269 104.040207,93.147789 
	C101.901169,92.188049 99.770798,90.417778 97.621750,90.394814 
	C77.635757,90.181282 57.645039,90.154953 37.660301,90.420891 
	C35.332489,90.451874 33.032604,92.581436 30.998425,93.963165 
	C30.998425,93.963165 30.707079,93.755875 30.241911,93.983856 
	C30.154478,94.310799 30.067045,94.637733 29.585814,95.691582 
z"/>
<path fill="#0F0E0F" opacity="1.000000" stroke="none" 
	d="
M33.523636,65.986099 
	C84.415718,65.981224 134.860321,65.980690 185.304916,65.984245 
	C186.802628,65.984344 188.569244,65.538948 189.728104,66.177170 
	C191.092834,66.928749 192.582764,68.547882 192.774963,69.960060 
	C192.909637,70.949684 191.160172,72.623680 189.886780,73.254410 
	C188.658707,73.862709 186.961960,73.592346 185.471085,73.592743 
	C136.025391,73.605797 86.579697,73.605003 37.134007,73.606087 
	C36.135105,73.606110 34.993755,73.916229 34.166611,73.538773 
	C32.380177,72.723572 30.754965,71.555069 29.063797,70.531105 
	C30.401249,69.017754 31.738701,67.504395 33.523636,65.986099 
z"/>
<path fill="#0F0F0F" opacity="1.000000" stroke="none" 
	d="
M50.000053,169.153687 
	C76.650116,169.154083 102.800186,169.153748 128.950256,169.157013 
	C130.281982,169.157181 131.899323,168.718460 132.879105,169.314087 
	C134.383362,170.228577 136.148315,171.727844 136.444061,173.243942 
	C136.627228,174.182938 134.422241,175.797195 133.039703,176.743866 
	C132.347763,177.217667 131.096909,176.898499 130.098846,176.898590 
	C96.286972,176.902039 62.475098,176.900757 28.663221,176.900024 
	C28.330101,176.900024 27.996798,176.890778 27.663887,176.898743 
	C24.757137,176.968216 21.703873,176.352371 22.260523,172.888367 
	C22.499563,171.400833 25.619066,169.432480 27.523672,169.323624 
	C34.828503,168.906082 42.171375,169.154053 50.000053,169.153687 
z"/>
<path fill="#010101" opacity="1.000000" stroke="none" 
	d="
M22.053162,158.104874 
	C23.836458,156.753571 25.571877,155.017105 27.315859,155.008469 
	C59.754028,154.847717 92.193222,154.899780 124.632179,154.881241 
	C127.311707,154.879700 129.944885,155.101929 130.004379,158.508560 
	C130.064606,161.955856 127.405235,162.243561 124.740089,162.242844 
	C92.301170,162.234207 59.862255,162.225128 27.423349,162.241684 
	C24.705185,162.243073 22.385641,161.846313 22.053162,158.104874 
z"/>
<path fill="#020101" opacity="1.000000" stroke="none" 
	d="
M74.000069,183.830490 
	C90.995850,183.831894 107.491623,183.828293 123.987396,183.839752 
	C126.646202,183.841614 129.869247,183.453232 129.980942,187.291946 
	C130.102814,191.480225 126.705093,191.168579 123.866081,191.169357 
	C91.874336,191.178131 59.882587,191.163284 27.890846,191.174011 
	C25.094673,191.174942 22.057249,191.140457 22.109476,187.433807 
	C22.161791,183.721039 25.251234,183.821457 28.011757,183.824799 
	C43.174507,183.843094 58.337288,183.831680 74.000069,183.830490 
z"/>
<path fill="#090909" opacity="1.000000" stroke="none" 
	d="
M78.551254,27.436918 
	C85.203743,22.794857 91.910477,22.299500 98.509659,26.282372 
	C104.562874,29.935726 107.499329,35.694832 106.745407,42.752224 
	C105.999680,49.732998 102.184029,54.773701 95.484390,57.336552 
	C87.863518,60.251812 79.396790,57.462471 74.889427,50.618382 
	C69.948639,43.116173 71.186821,34.707546 78.551254,27.436918 
M80.194099,37.322647 
	C77.163681,45.944992 85.056396,52.729404 91.972046,50.614285 
	C96.325211,49.282890 99.030876,46.298019 99.174454,41.531574 
	C99.322205,36.626663 97.021477,33.301384 92.363388,31.704906 
	C87.764519,30.128721 84.148239,31.671919 80.194099,37.322647 
z"/>
<path fill="#111110" opacity="1.000000" stroke="none" 
	d="
M197.796021,97.874924 
	C198.651367,99.619019 199.931946,101.620857 199.384903,102.667091 
	C198.750534,103.880371 196.514969,104.887733 194.967636,104.897438 
	C172.696823,105.037048 150.423904,105.080048 128.155029,104.830185 
	C126.362457,104.810074 123.355682,102.700912 123.074089,101.166061 
	C122.478737,97.920982 125.468590,97.395233 128.140594,97.393967 
	C141.769531,97.387535 155.398621,97.353348 169.027359,97.406143 
	C178.489578,97.442795 187.951309,97.604416 197.796021,97.874924 
z"/>
<path fill="#0B0B0B" opacity="1.000000" stroke="none" 
	d="
M50.236511,58.238125 
	C48.984612,56.308540 47.477432,54.521717 47.413044,52.684326 
	C47.139736,44.885620 47.369129,37.070889 47.262016,29.264103 
	C47.206863,25.244532 49.011429,23.430006 52.969971,23.619619 
	C53.799160,23.659336 54.631054,23.644230 55.461731,23.650936 
	C63.291962,23.714138 67.344040,25.969961 69.069977,31.227798 
	C70.783073,36.446548 69.163383,40.079838 62.651001,45.175705 
	C64.460533,47.296227 66.241524,49.428864 68.073341,51.516922 
	C69.845299,53.536747 70.592651,55.996658 68.084679,57.423618 
	C66.800201,58.154449 63.912579,57.494759 62.589142,56.424873 
	C60.045601,54.368629 58.099884,51.572899 55.629604,48.770069 
	C53.683510,51.987583 57.297146,58.062695 50.236511,58.238125 
M61.978142,35.303135 
	C61.863647,30.483183 58.516052,31.117796 55.177574,31.128662 
	C55.177574,33.465191 55.177574,35.536777 55.177574,38.666851 
	C57.706070,37.643101 59.676350,36.845367 61.978142,35.303135 
z"/>
<path fill="#0A0909" opacity="1.000000" stroke="none" 
	d="
M178.552948,54.639366 
	C170.663132,60.066837 162.249878,59.522568 156.073181,53.443554 
	C150.318939,47.780304 149.220963,38.734684 153.462036,31.931503 
	C157.871613,24.858004 166.558655,21.839561 174.303589,24.819729 
	C177.021957,25.865732 180.718369,26.835056 179.344162,30.794361 
	C177.871597,35.037109 174.660477,32.957863 171.876068,31.900860 
	C167.163773,30.112011 162.340714,31.836933 159.823990,36.061604 
	C157.449387,40.047707 158.211868,45.115673 161.670456,48.334431 
	C165.258820,51.673965 169.307922,51.609974 173.881104,48.837646 
	C175.345062,47.950176 177.626312,48.410904 179.533630,48.254791 
	C179.298340,50.302761 179.063065,52.350731 178.552948,54.639366 
z"/>
<path fill="#0C0C0C" opacity="1.000000" stroke="none" 
	d="
M130.779907,25.948391 
	C136.283890,25.108633 141.568878,24.519783 146.865982,24.375767 
	C147.561829,24.356848 149.052399,26.749815 148.861893,27.783770 
	C148.627396,29.056364 147.171188,30.788643 145.965546,31.052025 
	C143.604141,31.567892 141.050430,31.203598 138.115936,31.203598 
	C138.009506,33.354393 137.924866,35.065098 137.807343,37.440140 
	C140.049240,37.440140 142.155212,36.947075 143.838638,37.579224 
	C145.512192,38.207664 146.761017,39.967144 148.196091,41.230644 
	C146.740341,42.479004 145.462570,44.177380 143.776794,44.844112 
	C142.215485,45.461624 140.217804,44.975727 138.131790,44.975727 
	C138.131790,46.970528 138.131790,48.708820 138.131790,51.024529 
	C140.490540,51.024529 143.058289,50.559746 145.320862,51.190201 
	C146.795074,51.600986 148.504074,53.465851 148.805405,54.944717 
	C148.992004,55.860474 146.848282,58.135242 145.558319,58.300697 
	C141.797516,58.783070 137.875519,58.921700 134.151871,58.335968 
	C132.640182,58.098179 130.371735,55.666637 130.336609,54.188419 
	C130.116211,44.911934 130.428574,35.622784 130.779907,25.948391 
z"/>
<path fill="#050505" opacity="1.000000" stroke="none" 
	d="
M38.356293,44.570854 
	C34.870487,45.639503 31.690512,46.472004 27.995750,47.439270 
	C27.995750,49.392937 28.426395,51.972881 27.844614,54.299686 
	C27.455652,55.855331 25.627312,57.051083 24.443092,58.407887 
	C23.169298,57.143776 20.839502,55.918125 20.791843,54.609364 
	C20.464748,45.627090 20.531103,36.625713 20.712309,27.635357 
	C20.736752,26.422625 21.997301,24.300625 22.881666,24.191635 
	C28.451189,23.505241 34.249878,22.425041 39.210243,26.271351 
	C45.067001,30.812729 44.760139,38.723530 38.356293,44.570854 
M30.304512,31.047998 
	C25.166281,32.469982 29.422071,36.236820 27.825016,38.798695 
	C31.555172,39.153618 35.114326,39.833305 35.866249,35.518993 
	C36.397678,32.469799 34.047409,31.181944 30.304512,31.047998 
z"/>
<path fill="#010103" opacity="1.000000" stroke="none" 
	d="
M77.517815,200.828339 
	C77.951874,204.667923 76.159874,206.099091 72.651077,206.084076 
	C57.388599,206.018753 42.125679,206.036240 26.862976,206.060455 
	C23.924509,206.065109 22.066620,205.006729 22.013920,201.398743 
	C23.716997,200.228912 25.430403,198.811310 27.160023,198.791245 
	C42.244106,198.616196 57.331612,198.634857 72.416451,198.774643 
	C74.022461,198.789520 75.617889,199.947342 77.517815,200.828339 
z"/>
<path fill="#0B0B0B" opacity="1.000000" stroke="none" 
	d="
M205.297913,26.981575 
	C203.368591,29.066767 201.382004,30.715153 199.395401,32.363537 
	C198.909882,32.004093 198.424377,31.644651 197.938858,31.285208 
	C197.938858,38.405048 197.899628,45.525208 197.957932,52.644569 
	C197.981674,55.543594 197.631073,58.406921 194.041122,58.326660 
	C190.462250,58.246647 190.261353,55.281509 190.276047,52.449970 
	C190.312195,45.484966 190.287872,38.519646 190.287872,31.325294 
	C188.444733,31.159725 186.725281,31.468580 185.630005,30.781895 
	C184.437561,30.034288 183.243561,28.404188 183.148804,27.080206 
	C183.077332,26.081827 184.690887,24.085197 185.633011,24.035955 
	C191.271835,23.741228 196.938370,23.762978 202.582443,23.996666 
	C203.502106,24.034744 204.356216,25.655525 205.297913,26.981575 
z"/>
<path fill="#020202" opacity="1.000000" stroke="none" 
	d="
M161.920044,111.972130 
	C164.735153,111.980034 167.210037,111.508179 169.339844,112.161392 
	C170.804794,112.610680 171.791122,114.620522 172.991364,115.932861 
	C171.768631,117.041878 170.561340,119.095284 169.320801,119.115578 
	C155.026367,119.349342 140.725220,119.368752 126.431808,119.112160 
	C125.229332,119.090561 124.069984,116.666504 122.890594,115.358597 
	C124.430946,114.231224 125.947906,112.165779 127.515396,112.126694 
	C138.815414,111.844894 150.125671,111.973579 161.920044,111.972130 
z"/>
<path fill="#0D0C0C" opacity="1.000000" stroke="none" 
	d="
M108.417862,55.165382 
	C107.705315,49.014084 108.852600,48.403156 117.059418,50.950497 
	C117.059418,47.471306 117.056000,44.267067 117.060242,41.062840 
	C117.066170,36.584042 116.784691,32.073898 117.258392,27.644785 
	C117.408379,26.242374 119.417526,24.367861 120.887085,24.018463 
	C121.832916,23.793587 124.411011,25.932365 124.435066,27.050940 
	C124.612778,35.314804 125.090408,43.693291 123.966476,51.827469 
	C122.989578,58.897556 115.348244,60.349827 108.417862,55.165382 
z"/>
<path fill="#070607" opacity="1.000000" stroke="none" 
	d="
M199.796860,185.789917 
	C193.008224,192.111786 185.537827,193.594330 177.513641,189.740189 
	C170.127472,186.192490 166.357254,179.859329 166.356583,171.696487 
	C166.355942,163.767670 171.783585,156.714188 179.399673,153.907455 
	C187.364532,150.972183 196.599884,153.849777 201.561096,160.812607 
	C207.105377,168.593735 206.546799,177.739960 199.796860,185.789917 
M183.323807,160.700195 
	C176.081833,163.103653 172.511368,169.038040 174.427475,175.486618 
	C176.235031,181.569855 182.133102,185.146393 188.354385,183.931778 
	C194.069809,182.815918 198.517639,176.793549 197.800766,171.084824 
	C197.138031,165.807053 192.736954,159.532547 183.323807,160.700195 
z"/>
<path fill="#FDD05B" opacity="1.000000" stroke="none" 
	d="
M32.022141,135.982880 
	C31.485531,135.493210 30.948921,135.003555 30.588110,133.902405 
	C30.795952,120.808578 30.827995,108.326271 30.878342,95.495071 
	C30.833456,94.682755 30.770267,94.219315 30.707079,93.755875 
	C30.707079,93.755875 30.998425,93.963165 31.257977,93.852661 
	C33.827564,93.129959 36.133419,92.005791 38.448303,91.986885 
	C56.358448,91.840584 74.271690,91.791344 92.180649,91.999023 
	C96.174316,92.045341 100.154800,93.227219 104.141357,93.886269 
	C104.141357,93.886269 104.016373,93.999199 104.061050,94.395363 
	C104.099030,108.228081 104.092316,121.664642 104.085617,135.101196 
	C104.085617,135.101196 104.003891,135.015305 103.816277,135.101196 
	C103.337204,135.360275 103.112640,135.596939 102.954971,135.897079 
	C102.954971,135.897079 102.563599,136.004303 102.116142,136.092880 
	C101.438004,136.423584 101.207321,136.665710 100.976639,136.907852 
	C100.976639,136.907852 100.533226,136.984436 99.927872,136.988052 
	C98.560356,136.975052 97.798195,136.958450 97.023239,136.583694 
	C97.012749,135.505951 97.015068,134.786346 97.067665,133.872314 
	C97.117950,133.677872 97.143929,133.277039 97.413498,133.199615 
	C98.047264,133.038773 98.411461,132.955338 99.046188,132.811310 
	C99.498817,132.444626 99.680923,132.138550 99.904816,131.887726 
	C99.946602,131.942978 99.823235,131.879944 100.185349,131.719666 
	C100.935013,131.047195 101.668198,130.528793 101.659142,130.023697 
	C101.474075,119.703094 101.204201,109.384026 101.111252,98.879990 
	C100.739067,98.558708 100.206871,98.422089 99.775497,98.181946 
	C99.876320,98.078415 99.715225,98.318375 99.756424,98.124329 
	C99.532852,97.884659 99.268082,97.839043 98.782631,97.762314 
	C98.269005,97.606133 98.074074,97.391884 97.705078,96.769455 
	C89.174965,96.304970 80.916786,96.094917 72.659149,96.114838 
	C71.841675,96.116806 71.027588,97.524193 70.185898,98.205109 
	C70.159859,98.130959 70.316605,98.142685 69.947205,98.290009 
	C69.444382,104.296883 69.310974,110.156433 69.310715,116.330444 
	C69.356087,117.082138 69.268303,117.519371 68.864326,117.941650 
	C67.670380,116.631813 66.792625,115.336929 65.951653,114.054123 
	C65.988434,114.066193 65.916183,114.094032 65.931519,113.778198 
	C65.594849,112.987282 65.242844,112.512207 64.929916,112.035721 
	C64.969002,112.034302 64.956055,112.111443 64.834015,111.846230 
	C64.368271,111.421959 64.024559,111.262901 63.495403,111.115845 
	C63.309959,111.127853 63.006508,110.913254 62.695805,110.635612 
	C54.231529,110.048141 46.078415,109.721672 37.922497,109.497078 
	C37.634617,109.489136 37.318897,110.492233 37.010155,111.010963 
	C37.004154,110.997810 37.026665,111.019836 36.688362,111.036713 
	C35.799046,112.359505 35.248039,113.665428 34.767853,115.434464 
	C34.799908,120.607384 34.761147,125.317184 34.538250,130.216995 
	C34.650734,130.888733 34.947350,131.370468 35.187515,131.868118 
	C35.131065,131.884033 35.153419,131.768875 35.216614,132.043579 
	C35.592644,132.500107 35.905479,132.681961 36.168900,132.873642 
	C36.119480,132.883484 36.151619,132.787964 36.157265,132.980316 
	C36.444588,133.170654 36.726265,133.168655 37.228935,133.146942 
	C37.449936,133.127228 37.881374,133.231049 37.898064,133.426666 
	C37.914753,133.622269 37.990112,134.007599 37.815887,134.332764 
	C35.768486,135.099579 33.895313,135.541229 32.022141,135.982880 
z"/>
<path fill="#CBAB5E" opacity="1.000000" stroke="none" 
	d="
M104.090782,93.517029 
	C100.154800,93.227219 96.174316,92.045341 92.180649,91.999023 
	C74.271690,91.791344 56.358448,91.840584 38.448303,91.986885 
	C36.133419,92.005791 33.827564,93.129959 31.118649,93.740112 
	C33.032604,92.581436 35.332489,90.451874 37.660301,90.420891 
	C57.645039,90.154953 77.635757,90.181282 97.621750,90.394814 
	C99.770798,90.417778 101.901169,92.188049 104.090782,93.517029 
z"/>
<path fill="#EEC967" opacity="1.000000" stroke="none" 
	d="
M32.218353,136.321472 
	C33.895313,135.541229 35.768486,135.099579 38.163494,134.327026 
	C39.145119,134.047836 39.604904,134.099548 40.164928,134.344254 
	C40.455563,134.770523 40.696091,134.926544 41.243095,135.284286 
	C43.998226,136.025589 46.497009,136.487946 49.464291,136.963348 
	C55.930683,136.976379 61.928577,136.976379 68.171394,136.976379 
	C66.926155,135.090408 65.895348,133.529205 64.939178,131.746750 
	C65.093277,131.189011 65.298790,130.971786 66.073135,130.909973 
	C67.404007,130.943008 68.292099,130.939896 69.360840,130.971039 
	C69.541504,131.005295 69.904121,131.066574 69.955078,131.305908 
	C70.006027,131.545242 69.880806,132.018356 69.734238,132.133392 
	C69.781967,132.467651 69.976273,132.686890 70.125130,132.914032 
	C70.079681,132.921921 70.107018,132.833801 70.080032,133.238602 
	C71.324554,134.757385 72.561546,136.785370 73.873276,136.834930 
	C81.584534,137.126312 89.313225,136.956329 97.036041,136.941833 
	C97.798195,136.958450 98.560356,136.975052 99.703674,137.006897 
	C98.559875,137.333160 97.035797,137.909851 95.509842,137.914856 
	C76.723602,137.976532 57.936859,137.998001 39.150959,137.897278 
	C36.903351,137.885223 34.659927,137.091476 32.218353,136.321472 
z"/>
<path fill="#CBAB5E" opacity="1.000000" stroke="none" 
	d="
M104.417900,134.893829 
	C104.092316,121.664642 104.099030,108.228081 104.112915,94.329132 
	C104.729660,95.289284 105.846962,96.704506 105.867607,98.135544 
	C106.018082,108.568054 106.003036,119.004318 105.893982,129.437866 
	C105.875648,131.191193 105.149368,132.937119 104.417900,134.893829 
z"/>
<path fill="#EEC967" opacity="1.000000" stroke="none" 
	d="
M30.860039,95.843956 
	C30.827995,108.326271 30.795952,120.808578 30.531025,133.627228 
	C30.195745,133.826035 30.093351,133.688507 30.031269,133.130737 
	C30.078667,132.464508 29.986370,132.264374 29.794695,132.110077 
	C29.662710,130.666534 29.530725,129.223007 29.671455,126.991318 
	C30.016993,116.193306 30.089811,106.183441 30.329088,96.074471 
	C30.495546,95.975365 30.860039,95.843956 30.860039,95.843956 
z"/>
<path fill="#C6A552" opacity="1.000000" stroke="none" 
	d="
M30.162630,96.173576 
	C30.089811,106.183441 30.016993,116.193306 29.757629,126.558907 
	C29.575994,116.506958 29.580904,106.099266 29.822094,95.631256 
	C30.093124,95.771812 30.127876,95.972694 30.162630,96.173576 
z"/>
<path fill="#CBAB5E" opacity="1.000000" stroke="none" 
	d="
M30.329088,96.074471 
	C30.127876,95.972694 30.093124,95.771812 30.018993,95.267807 
	C30.067045,94.637733 30.154478,94.310799 30.474495,93.869865 
	C30.770267,94.219315 30.833456,94.682755 30.878342,95.495071 
	C30.860039,95.843956 30.495546,95.975365 30.329088,96.074471 
z"/>
<path fill="#C6A552" opacity="1.000000" stroke="none" 
	d="
M29.712458,132.270569 
	C29.986370,132.264374 30.078667,132.464508 30.023382,132.873657 
	C29.749901,132.897659 29.634912,132.695724 29.712458,132.270569 
z"/>
<path fill="#EEC967" opacity="1.000000" stroke="none" 
	d="
M101.268372,136.994003 
	C101.207321,136.665710 101.438004,136.423584 101.914413,136.114655 
	C101.960136,136.391968 101.760132,136.736069 101.268372,136.994003 
z"/>
<path fill="#CBAB5E" opacity="1.000000" stroke="none" 
	d="
M103.240021,135.951050 
	C103.112640,135.596939 103.337204,135.360275 103.868744,135.128754 
	C103.914246,135.381943 103.719658,135.693466 103.240021,135.951050 
z"/>
<path fill="#F3F2F1" opacity="1.000000" stroke="none" 
	d="
M80.406303,36.975502 
	C84.148239,31.671919 87.764519,30.128721 92.363388,31.704906 
	C97.021477,33.301384 99.322205,36.626663 99.174454,41.531574 
	C99.030876,46.298019 96.325211,49.282890 91.972046,50.614285 
	C85.056396,52.729404 77.163681,45.944992 80.406303,36.975502 
z"/>
<path fill="#EDEDED" opacity="1.000000" stroke="none" 
	d="
M61.812386,35.675385 
	C59.676350,36.845367 57.706070,37.643101 55.177574,38.666851 
	C55.177574,35.536777 55.177574,33.465191 55.177574,31.128662 
	C58.516052,31.117796 61.863647,30.483183 61.812386,35.675385 
z"/>
<path fill="#ECECEC" opacity="1.000000" stroke="none" 
	d="
M30.734375,31.057938 
	C34.047409,31.181944 36.397678,32.469799 35.866249,35.518993 
	C35.114326,39.833305 31.555172,39.153618 27.825016,38.798695 
	C29.422071,36.236820 25.166281,32.469982 30.734375,31.057938 
z"/>
<path fill="#F4F3F1" opacity="1.000000" stroke="none" 
	d="
M183.695679,160.596161 
	C192.736954,159.532547 197.138031,165.807053 197.800766,171.084824 
	C198.517639,176.793549 194.069809,182.815918 188.354385,183.931778 
	C182.133102,185.146393 176.235031,181.569855 174.427475,175.486618 
	C172.511368,169.038040 176.081833,163.103653 183.695679,160.596161 
z"/>
<path fill="#060502" opacity="1.000000" stroke="none" 
	d="
M69.880806,132.018356 
	C69.880806,132.018356 70.006027,131.545242 69.994766,130.919876 
	C69.819733,129.811905 69.655952,129.329315 69.505356,128.397278 
	C69.405861,124.617424 69.293190,121.287018 69.180519,117.956612 
	C69.268303,117.519371 69.356087,117.082138 69.454842,115.882126 
	C69.749405,109.460464 70.033005,103.801575 70.316605,98.142685 
	C70.316605,98.142685 70.159859,98.130959 70.571503,98.057068 
	C72.727737,97.681351 74.469208,97.142082 76.217453,97.119164 
	C83.469582,97.024063 90.723740,97.084877 97.977158,97.088463 
	C98.074074,97.391884 98.269005,97.606133 98.910965,97.961082 
	C99.259972,98.190956 99.715225,98.318375 99.715225,98.318375 
	C99.715225,98.318375 99.876320,98.078415 99.802231,98.385330 
	C99.728149,98.692238 100.003868,98.996727 100.022354,99.465775 
	C99.968300,110.583191 99.895767,121.231567 99.823235,131.879944 
	C99.823235,131.879944 99.946602,131.942978 99.651047,131.973450 
	C99.162216,132.293259 98.968941,132.582581 98.775665,132.871902 
	C98.411461,132.955338 98.047264,133.038773 97.084244,133.131897 
	C96.279160,133.229141 96.072891,133.316666 95.407967,133.379059 
	C88.676598,133.372330 82.403893,133.390747 75.816544,133.290344 
	C75.291557,133.249115 75.081200,133.326691 74.471451,133.373688 
	C72.750381,133.173340 71.428703,133.003571 70.107018,132.833801 
	C70.107018,132.833801 70.079681,132.921921 70.075645,132.684601 
	C70.071609,132.447266 69.880806,132.018356 69.880806,132.018356 
M77.819778,125.818398 
	C82.744865,125.818398 87.669952,125.818398 92.701447,125.818398 
	C92.701447,118.609024 92.701447,111.877884 92.701447,104.996506 
	C87.413170,104.996506 82.380150,104.996506 77.147797,104.996506 
	C77.147797,111.919373 77.147797,118.534149 77.819778,125.818398 
z"/>
<path fill="#0B0402" opacity="1.000000" stroke="none" 
	d="
M65.630348,130.873810 
	C65.298790,130.971786 65.093277,131.189011 64.643913,131.859192 
	C63.550423,132.576263 62.826828,132.959656 61.711037,133.212769 
	C60.512829,133.189362 59.706821,133.296234 58.488068,133.372894 
	C56.420235,133.369263 54.765141,133.395859 52.749912,133.277634 
	C51.891167,133.230148 51.392555,133.327499 50.447380,133.395844 
	C46.731323,133.388016 43.461834,133.409210 39.825188,133.275650 
	C38.932480,133.157608 38.406925,133.194321 37.881374,133.231049 
	C37.881374,133.231049 37.449936,133.127228 37.037590,133.000610 
	C36.625240,132.873993 36.151619,132.787964 36.151619,132.787964 
	C36.151619,132.787964 36.119480,132.883484 36.085548,132.612061 
	C35.752213,132.150055 35.452816,131.959457 35.153419,131.768875 
	C35.153419,131.768875 35.131065,131.884033 35.137589,131.553726 
	C35.003532,130.824615 34.862957,130.425797 34.722382,130.026993 
	C34.761147,125.317184 34.799908,120.607384 34.876701,115.113205 
	C35.618710,113.225830 36.322685,112.122833 37.026665,111.019836 
	C37.026665,111.019836 37.004154,110.997810 37.477623,111.014839 
	C46.302898,110.992325 54.654705,110.952789 63.006508,110.913254 
	C63.006508,110.913254 63.309959,111.127853 63.630409,111.367119 
	C64.285927,111.774734 64.620987,111.943092 64.956055,112.111443 
	C64.956055,112.111443 64.969002,112.034302 64.982346,112.324860 
	C65.302513,113.108292 65.609352,113.601166 65.916183,114.094032 
	C65.916183,114.094032 65.988434,114.066193 65.888885,114.514313 
	C65.736336,120.266228 65.683342,125.570023 65.630348,130.873810 
M49.549328,118.256454 
	C47.278931,118.256454 45.008533,118.256454 42.452106,118.256454 
	C42.452106,121.034340 42.452106,123.238266 42.452106,125.644669 
	C47.782581,125.644669 52.804646,125.644669 57.750732,125.644669 
	C57.750732,123.066154 57.750732,120.850395 57.750732,118.257118 
	C55.071159,118.257118 52.779903,118.257118 49.549328,118.256454 
z"/>
<path fill="#F6CF6B" opacity="1.000000" stroke="none" 
	d="
M76.131180,133.409149 
	C82.403893,133.390747 88.676598,133.372330 95.547134,133.562775 
	C96.423744,133.905533 96.714546,134.003906 97.017380,134.066742 
	C97.015068,134.786346 97.012749,135.505951 97.023239,136.583679 
	C89.313225,136.956329 81.584534,137.126312 73.873276,136.834930 
	C72.561546,136.785370 71.324554,134.757385 70.080032,133.238602 
	C71.428703,133.003571 72.750381,133.173340 74.588882,133.540222 
	C75.447517,133.627930 75.789352,133.518539 76.131180,133.409149 
M88.350677,135.001831 
	C85.599625,135.001831 82.848572,135.001831 80.097519,135.001831 
	C80.099121,135.241150 80.100723,135.480484 80.102318,135.719803 
	C84.710709,135.719803 89.319099,135.719803 93.927483,135.719803 
	C93.936043,135.480484 93.944595,135.241150 93.953148,135.001831 
	C92.383560,135.001831 90.813980,135.001831 88.350677,135.001831 
z"/>
<path fill="#CCAC5C" opacity="1.000000" stroke="none" 
	d="
M100.185349,131.719666 
	C99.895767,121.231567 99.968300,110.583191 100.259399,99.479927 
	C100.477966,99.025040 100.951233,99.064644 100.951233,99.064644 
	C101.204201,109.384026 101.474075,119.703094 101.659142,130.023697 
	C101.668198,130.528793 100.935013,131.047195 100.185349,131.719666 
z"/>
<path fill="#F6CF6B" opacity="1.000000" stroke="none" 
	d="
M66.073135,130.909973 
	C65.683342,125.570023 65.736336,120.266228 65.852097,114.502243 
	C66.792625,115.336929 67.670380,116.631813 68.864326,117.941650 
	C69.293190,121.287018 69.405861,124.617424 69.331329,128.613861 
	C69.156151,129.832184 69.168167,130.384491 69.180183,130.936783 
	C68.292099,130.939896 67.404007,130.943008 66.073135,130.909973 
z"/>
<path fill="#F6CF6B" opacity="1.000000" stroke="none" 
	d="
M69.947205,98.290009 
	C70.033005,103.801575 69.749405,109.460464 69.321686,115.567673 
	C69.310974,110.156433 69.444382,104.296883 69.947205,98.290009 
z"/>
<path fill="#F6CF6B" opacity="1.000000" stroke="none" 
	d="
M97.705078,96.769455 
	C90.723740,97.084877 83.469582,97.024063 76.217453,97.119164 
	C74.469208,97.142082 72.727737,97.681351 70.597534,98.131218 
	C71.027588,97.524193 71.841675,96.116806 72.659149,96.114838 
	C80.916786,96.094917 89.174965,96.304970 97.705078,96.769455 
z"/>
<path fill="#EEC967" opacity="1.000000" stroke="none" 
	d="
M62.695805,110.635612 
	C54.654705,110.952789 46.302898,110.992325 37.483624,111.027992 
	C37.318897,110.492233 37.634617,109.489136 37.922497,109.497078 
	C46.078415,109.721672 54.231529,110.048141 62.695805,110.635612 
z"/>
<path fill="#EEC967" opacity="1.000000" stroke="none" 
	d="
M36.688358,111.036713 
	C36.322685,112.122833 35.618710,113.225830 34.805885,114.650085 
	C35.248039,113.665428 35.799046,112.359505 36.688358,111.036713 
z"/>
<path fill="#F6CF6B" opacity="1.000000" stroke="none" 
	d="
M101.111252,98.879990 
	C100.951233,99.064644 100.477966,99.025040 100.240921,99.010880 
	C100.003868,98.996727 99.728149,98.692238 99.701416,98.488853 
	C100.206871,98.422089 100.739067,98.558708 101.111252,98.879990 
z"/>
<path fill="#9D8239" opacity="1.000000" stroke="none" 
	d="
M37.898064,133.426666 
	C38.406925,133.194321 38.932480,133.157608 39.830696,133.462463 
	C40.203362,133.804047 40.064693,134.151260 40.064693,134.151260 
	C39.604904,134.099548 39.145119,134.047836 38.337723,134.001862 
	C37.990112,134.007599 37.914753,133.622269 37.898064,133.426666 
z"/>
<path fill="#EEC967" opacity="1.000000" stroke="none" 
	d="
M65.931519,113.778198 
	C65.609352,113.601166 65.302513,113.108292 64.943253,112.326279 
	C65.242844,112.512207 65.594849,112.987282 65.931519,113.778198 
z"/>
<path fill="#EEC967" opacity="1.000000" stroke="none" 
	d="
M34.538250,130.216995 
	C34.862957,130.425797 35.003532,130.824615 35.194038,131.537811 
	C34.947350,131.370468 34.650734,130.888733 34.538250,130.216995 
z"/>
<path fill="#EEC967" opacity="1.000000" stroke="none" 
	d="
M35.216614,132.043579 
	C35.452816,131.959457 35.752213,132.150055 36.134964,132.602219 
	C35.905479,132.681961 35.592644,132.500107 35.216614,132.043579 
z"/>
<path fill="#F6CF6B" opacity="1.000000" stroke="none" 
	d="
M99.756424,98.124329 
	C99.715225,98.318375 99.259972,98.190956 99.131638,97.992188 
	C99.268082,97.839043 99.532852,97.884659 99.756424,98.124329 
z"/>
<path fill="#EEC967" opacity="1.000000" stroke="none" 
	d="
M64.834015,111.846230 
	C64.620987,111.943092 64.285927,111.774734 63.815853,111.355110 
	C64.024559,111.262901 64.368271,111.421959 64.834015,111.846230 
z"/>
<path fill="#CCAC5C" opacity="1.000000" stroke="none" 
	d="
M99.046188,132.811310 
	C98.968941,132.582581 99.162216,132.293259 99.609253,131.918213 
	C99.680923,132.138550 99.498817,132.444626 99.046188,132.811310 
z"/>
<path fill="#EEC967" opacity="1.000000" stroke="none" 
	d="
M36.157265,132.980316 
	C36.151619,132.787964 36.625240,132.873993 36.816589,133.020325 
	C36.726265,133.168655 36.444588,133.170654 36.157265,132.980316 
z"/>
<path fill="#9A7E36" opacity="1.000000" stroke="none" 
	d="
M97.067665,133.872314 
	C96.714546,134.003906 96.423744,133.905533 96.005791,133.587891 
	C96.072891,133.316666 96.279160,133.229141 96.814682,133.209320 
	C97.143929,133.277039 97.117950,133.677872 97.067665,133.872314 
z"/>
<path fill="#F6CF6B" opacity="1.000000" stroke="none" 
	d="
M40.164928,134.344254 
	C40.064693,134.151260 40.203362,133.804047 40.197853,133.617218 
	C43.461834,133.409210 46.731323,133.388016 50.624657,133.583435 
	C51.869022,133.674164 52.489536,133.548309 53.110046,133.422455 
	C54.765141,133.395859 56.420235,133.369263 58.705929,133.577911 
	C60.258762,133.656448 61.181000,133.499741 62.103233,133.343033 
	C62.826828,132.959656 63.550423,132.576263 64.569283,132.080444 
	C65.895348,133.529205 66.926155,135.090408 68.171394,136.976379 
	C61.928577,136.976379 55.930683,136.976379 49.748070,136.688568 
	C51.987965,136.150940 54.412579,135.901123 56.837189,135.651321 
	C56.821129,135.435989 56.805065,135.220657 56.789001,135.005325 
	C51.521587,135.005325 46.254169,135.005325 40.986752,135.005325 
	C40.696091,134.926544 40.455563,134.770523 40.164928,134.344254 
z"/>
<path fill="#FDD05B" opacity="1.000000" stroke="none" 
	d="
M41.243095,135.284286 
	C46.254169,135.005325 51.521587,135.005325 56.789001,135.005325 
	C56.805065,135.220657 56.821129,135.435989 56.837189,135.651321 
	C54.412579,135.901123 51.987965,136.150940 49.279572,136.675537 
	C46.497009,136.487946 43.998226,136.025589 41.243095,135.284286 
z"/>
<path fill="#87703B" opacity="1.000000" stroke="none" 
	d="
M69.360840,130.971039 
	C69.168167,130.384491 69.156151,129.832184 69.318161,129.063293 
	C69.655952,129.329315 69.819733,129.811905 69.943817,130.680542 
	C69.904121,131.066574 69.541504,131.005295 69.360840,130.971039 
z"/>
<path fill="#F6CF6B" opacity="1.000000" stroke="none" 
	d="
M69.734238,132.133392 
	C69.880806,132.018356 70.071609,132.447266 70.121094,132.676697 
	C69.976273,132.686890 69.781967,132.467651 69.734238,132.133392 
z"/>
<path fill="#BBE770" opacity="1.000000" stroke="none" 
	d="
M77.483788,125.483658 
	C77.147797,118.534149 77.147797,111.919373 77.147797,104.996506 
	C82.380150,104.996506 87.413170,104.996506 92.701447,104.996506 
	C92.701447,111.877884 92.701447,118.609024 92.701447,125.818398 
	C87.669952,125.818398 82.744865,125.818398 77.483788,125.483658 
z"/>
<path fill="#9A7E36" opacity="1.000000" stroke="none" 
	d="
M75.816544,133.290344 
	C75.789352,133.518539 75.447517,133.627930 74.988266,133.570801 
	C75.081200,133.326691 75.291557,133.249115 75.816544,133.290344 
z"/>
<path fill="#DC626D" opacity="1.000000" stroke="none" 
	d="
M50.018990,118.256790 
	C52.779903,118.257118 55.071159,118.257118 57.750732,118.257118 
	C57.750732,120.850395 57.750732,123.066154 57.750732,125.644669 
	C52.804646,125.644669 47.782581,125.644669 42.452106,125.644669 
	C42.452106,123.238266 42.452106,121.034340 42.452106,118.256454 
	C45.008533,118.256454 47.278931,118.256454 50.018990,118.256790 
z"/>
<path fill="#9D8239" opacity="1.000000" stroke="none" 
	d="
M61.711037,133.212769 
	C61.181000,133.499741 60.258762,133.656448 59.118668,133.608139 
	C59.706821,133.296234 60.512829,133.189362 61.711037,133.212769 
z"/>
<path fill="#9D8239" opacity="1.000000" stroke="none" 
	d="
M52.749912,133.277634 
	C52.489536,133.548309 51.869022,133.674164 51.071228,133.612442 
	C51.392555,133.327499 51.891167,133.230148 52.749912,133.277634 
z"/>
<path fill="#FDD05B" opacity="1.000000" stroke="none" 
	d="
M88.797539,135.001831 
	C90.813980,135.001831 92.383560,135.001831 93.953148,135.001831 
	C93.944595,135.241150 93.936043,135.480484 93.927483,135.719803 
	C89.319099,135.719803 84.710709,135.719803 80.102318,135.719803 
	C80.100723,135.480484 80.099121,135.241150 80.097519,135.001831 
	C82.848572,135.001831 85.599625,135.001831 88.797539,135.001831 
z"/>
</svg>