<svg version="1.1" id="Layer_1" xmlns="http://www.w3.org/2000/svg" xmlns:xlink="http://www.w3.org/1999/xlink" x="0px" y="0px"
	 width="100%" viewBox="0 0 256 256" enable-background="new 0 0 256 256" xml:space="preserve">
<path fill="#FFFFFF" opacity="1.000000" stroke="none" 
	d="
M257.000000,71.000000 
	C257.000000,80.354225 257.000000,89.708458 256.671082,99.369324 
	C254.650375,98.785965 252.962799,97.132912 251.266235,97.123642 
	C233.708252,97.027740 216.148819,97.196976 198.160202,97.224251 
	C180.812729,97.132118 163.894806,97.123764 146.977020,97.071678 
	C143.435104,97.060776 140.899765,98.275063 140.002686,102.408737 
	C139.662979,105.400154 139.117447,108.052185 139.371262,110.625359 
	C139.820251,115.176865 142.489212,117.862389 147.248474,117.854095 
	C164.357788,117.824272 181.466995,117.729774 199.062866,117.756165 
	C216.202820,117.897942 232.859161,118.110565 249.506226,117.809700 
	C252.026276,117.764145 254.503159,115.329544 257.000000,114.000000 
	C257.000000,161.612442 257.000000,209.224869 257.000000,256.918640 
	C171.666718,256.918640 86.333374,256.918640 1.000000,256.918640 
	C1.000000,253.624954 1.000000,250.295425 1.329279,246.637573 
	C6.847712,250.997345 13.174396,248.268494 19.417206,248.981110 
	C21.915401,248.983490 23.972107,248.969910 26.462307,248.966492 
	C28.920864,248.969696 30.945929,248.962753 33.441242,248.970779 
	C64.951141,248.974640 95.990799,248.963562 127.470612,248.965179 
	C130.263077,248.968399 132.615356,248.958923 135.437881,248.965469 
	C141.072632,248.987244 146.238342,249.064499 151.401367,248.979507 
	C157.064362,248.886261 159.965271,246.003067 159.977676,240.283142 
	C160.028595,216.792801 160.202377,193.299820 159.917664,169.812820 
	C159.762207,156.988235 154.686707,146.524780 142.277924,141.214752 
	C132.682144,137.108459 122.792076,133.689896 112.798355,129.695175 
	C107.695747,127.608398 102.827621,125.792030 97.973557,123.512756 
	C98.007751,118.702690 98.027878,114.355522 98.346573,109.863251 
	C106.334709,103.704422 109.956001,95.553131 111.378090,86.157585 
	C114.807457,85.180855 117.923103,84.128029 121.351303,82.898270 
	C126.334015,75.918297 126.149544,70.606346 121.051659,65.672493 
	C121.023849,65.451530 120.889236,65.026962 120.936569,64.558838 
	C120.989708,61.436779 120.873764,58.776009 121.022369,56.130104 
	C121.665977,44.671162 119.492111,33.997215 111.965836,24.988070 
	C104.692810,16.282076 95.563255,10.831040 83.515404,10.083487 
	C81.392525,10.019513 79.728928,9.989310 78.065796,10.006056 
	C61.997849,10.167843 50.664856,18.127214 43.113071,31.778807 
	C37.215134,42.440685 37.888336,54.248180 37.768024,66.103508 
	C30.618235,77.181343 37.843899,86.824875 48.995201,87.456451 
	C49.277973,89.471672 49.530121,91.078133 49.830784,92.675461 
	C51.313423,100.552284 56.460529,105.974556 62.100845,111.487610 
	C62.057869,115.958199 62.065617,119.970551 61.730774,124.123657 
	C56.600887,126.188812 51.813587,128.113205 46.655205,130.062683 
	C40.178864,132.402969 34.073601,134.718185 27.751392,137.133423 
	C27.268337,137.430237 27.084715,137.686234 26.991518,138.001663 
	C26.999458,138.001923 26.997122,137.982285 26.614777,137.998154 
	C14.034412,140.996262 5.587734,148.283752 1.000000,160.000000 
	C1.000000,107.056946 1.000000,54.113895 1.000000,1.085422 
	C86.333275,1.085422 171.666626,1.085422 257.000000,1.085422 
	C257.000000,4.716249 257.000000,8.378948 256.672180,12.356719 
	C253.986206,11.781414 251.637543,10.149697 249.268372,10.119381 
	C232.189194,9.900836 215.105865,10.006679 197.552460,10.004776 
	C180.707535,9.999557 164.331985,9.874124 147.962799,10.140398 
	C145.637512,10.178223 143.343170,12.119170 140.723816,13.379966 
	C136.805557,23.280546 139.936768,30.619953 148.066681,30.696238 
	C164.861420,30.853834 181.659515,30.653435 198.947891,30.711124 
	C215.541946,30.876240 231.648697,31.139606 247.742935,30.803274 
	C250.853760,30.738266 253.915573,28.328264 257.000000,27.000000 
	C257.000000,36.687561 257.000000,46.375122 256.750671,56.536907 
	C256.501343,57.011131 256.002533,57.013863 255.958160,56.638252 
	C253.348206,55.175385 250.825180,53.292007 248.208969,53.152142 
	C240.758469,52.753841 233.270020,53.065907 225.341156,53.123871 
	C199.478546,53.152691 174.071274,53.157871 148.664017,53.157471 
	C144.892441,53.157410 141.266937,53.383343 140.042847,58.427048 
	C137.907181,70.003761 139.568054,74.422325 151.760498,74.150421 
	C176.506470,73.598541 201.273010,73.968430 226.497375,73.978279 
	C233.852722,73.997810 240.761353,74.302490 247.622055,73.861450 
	C250.796234,73.657394 253.876923,71.999031 257.000000,71.000000 
z"/>
<path fill="#D8DCE5" opacity="1.000000" stroke="none" 
	d="
M18.975714,248.965149 
	C13.174396,248.268494 6.847712,250.997345 1.329279,246.154617 
	C1.000000,217.645767 1.000000,189.291550 1.000000,160.468658 
	C5.587734,148.283752 14.034412,140.996262 26.567448,138.337906 
	C25.597002,140.119080 24.325434,141.608505 22.980232,143.028137 
	C17.031115,149.306427 16.164267,157.292374 16.084913,165.256943 
	C15.861089,187.721848 16.076935,210.190811 15.957673,232.657318 
	C15.927507,238.340103 15.958119,243.898514 18.975714,248.965149 
z"/>
<path fill="#D9DCE6" opacity="1.000000" stroke="none" 
	d="
M257.000000,26.539364 
	C253.915573,28.328264 250.853760,30.738266 247.742935,30.803274 
	C231.648697,31.139606 215.541946,30.876240 199.050720,30.288254 
	C198.710693,25.534981 198.759460,21.315414 199.288116,17.067238 
	C215.028519,17.026255 230.291031,17.143690 245.548172,16.910461 
	C249.374298,16.851971 253.183182,15.667170 257.000000,15.000000 
	C257.000000,18.692909 257.000000,22.385818 257.000000,26.539364 
z"/>
<path fill="#D8DCE6" opacity="1.000000" stroke="none" 
	d="
M257.000000,113.539368 
	C254.503159,115.329544 252.026276,117.764145 249.506226,117.809700 
	C232.859161,118.110565 216.202820,117.897942 199.120987,117.323303 
	C198.763412,112.880241 198.834366,108.966492 199.379578,105.033989 
	C213.477295,105.008102 227.101959,104.894188 240.723694,105.044853 
	C246.403946,105.107674 251.947296,105.023277 257.000000,102.000000 
	C257.000000,105.692909 257.000000,109.385818 257.000000,113.539368 
z"/>
<path fill="#E3E9F7" opacity="1.000000" stroke="none" 
	d="
M257.000000,101.666672 
	C251.947296,105.023277 246.403946,105.107674 240.723694,105.044853 
	C227.101959,104.894188 213.477295,105.008102 199.281235,105.077950 
	C198.708649,105.140656 198.494843,105.166855 198.586884,104.727509 
	C198.649216,101.956261 198.619507,99.624374 198.589798,97.292480 
	C216.148819,97.196976 233.708252,97.027740 251.266235,97.123642 
	C252.962799,97.132912 254.650375,98.785965 256.671082,99.837982 
	C257.000000,100.444443 257.000000,100.888893 257.000000,101.666672 
z"/>
<path fill="#D9DCE2" opacity="1.000000" stroke="none" 
	d="
M257.000000,70.535355 
	C253.876923,71.999031 250.796234,73.657394 247.622055,73.861450 
	C240.761353,74.302490 233.852722,73.997810 226.576630,73.524963 
	C226.147629,69.042252 226.105728,65.032753 226.224075,61.042343 
	C226.384338,61.061424 226.707108,61.062309 227.115158,61.034149 
	C234.439560,61.004337 241.361176,60.841553 248.270050,61.068031 
	C251.801697,61.183796 254.335464,60.106613 256.002533,57.013863 
	C256.002533,57.013863 256.501343,57.011131 256.750671,57.005566 
	C257.000000,61.356899 257.000000,65.713799 257.000000,70.535355 
z"/>
<path fill="#E4E9F7" opacity="1.000000" stroke="none" 
	d="
M257.000000,14.666667 
	C253.183182,15.667170 249.374298,16.851971 245.548172,16.910461 
	C230.291031,17.143690 215.028519,17.026255 199.123016,17.029873 
	C198.478027,17.021116 198.150223,16.935066 198.182953,16.503220 
	C198.151733,14.050810 198.087799,12.030247 198.023865,10.009684 
	C215.105865,10.006679 232.189194,9.900836 249.268372,10.119381 
	C251.637543,10.149697 253.986206,11.781414 256.672180,12.835895 
	C257.000000,13.444445 257.000000,13.888889 257.000000,14.666667 
z"/>
<path fill="#E4EAF8" opacity="1.000000" stroke="none" 
	d="
M19.417206,248.981110 
	C15.958119,243.898514 15.927507,238.340103 15.957673,232.657318 
	C16.076935,210.190811 15.861089,187.721848 16.084913,165.256943 
	C16.164267,157.292374 17.031115,149.306427 22.980232,143.028137 
	C24.325434,141.608505 25.597002,140.119080 26.949793,138.322037 
	C26.997122,137.982285 26.999458,138.001923 27.208874,137.899780 
	C27.693457,137.608963 27.876806,137.354218 27.968338,137.033401 
	C34.073601,134.718185 40.178864,132.402969 46.683601,130.419495 
	C51.625103,139.937286 56.167126,149.123337 60.639427,158.168365 
	C63.965057,156.736069 66.043571,155.840866 68.393890,155.133698 
	C70.190811,157.539627 71.715935,159.757523 73.225693,162.411942 
	C69.971092,182.403946 66.669785,201.949585 63.562164,221.525955 
	C63.115948,224.336884 62.455997,228.166290 63.867863,230.028763 
	C68.726280,236.437637 74.460197,242.182816 80.171883,248.526672 
	C82.429085,245.792450 84.304573,243.520584 86.454620,241.056458 
	C89.290344,238.029556 91.677956,235.008682 94.462601,232.413910 
	C97.127327,229.930908 97.514900,227.121246 96.942055,223.831436 
	C93.529266,204.232025 90.143639,184.627869 86.791573,164.648987 
	C86.814545,163.515686 86.794830,162.758698 86.986023,161.732178 
	C88.758011,159.290665 90.319092,157.118698 92.240891,154.987915 
	C94.507271,155.943253 96.412933,156.857391 98.954384,158.076538 
	C104.807579,149.263092 109.734329,140.045334 113.032845,129.965591 
	C122.792076,133.689896 132.682144,137.108459 142.277924,141.214752 
	C154.686707,146.524780 159.762207,156.988235 159.917664,169.812820 
	C160.202377,193.299820 160.028595,216.792801 159.977676,240.283142 
	C159.965271,246.003067 157.064362,248.886261 151.401367,248.979507 
	C146.238342,249.064499 141.072632,248.987244 135.447342,248.502487 
	C134.989014,224.906876 135.012024,201.790222 134.970474,178.673691 
	C134.964600,175.408386 135.404129,171.331711 130.669388,171.125031 
	C125.334213,170.892166 127.077812,175.368820 127.065575,178.106445 
	C126.959984,201.721375 127.019890,225.337021 127.030449,248.952469 
	C95.990799,248.963562 64.951141,248.974640 33.452606,248.507111 
	C32.997292,224.213333 33.003952,200.398178 33.000111,176.583023 
	C32.999683,173.922989 33.466236,170.884918 29.286186,171.033539 
	C25.426064,171.170776 26.008785,174.082718 26.007807,176.511902 
	C25.998077,200.660049 26.017572,224.808197 26.028812,248.956345 
	C23.972107,248.969910 21.915401,248.983490 19.417206,248.981110 
z"/>
<path fill="#FFCDBF" opacity="1.000000" stroke="none" 
	d="
M111.064362,86.081490 
	C109.956001,95.553131 106.334709,103.704422 97.978096,109.895203 
	C91.802979,112.729927 86.573837,115.775681 80.154037,111.694572 
	C72.247742,106.668488 65.823166,100.574371 65.078918,90.866463 
	C64.233803,79.842621 64.354004,68.744774 64.455002,57.522812 
	C75.143791,55.976807 84.754028,52.653263 93.764893,47.480049 
	C95.243744,46.631023 97.244820,45.874607 98.809029,46.157276 
	C102.324722,46.792595 110.020805,57.949894 110.063919,62.336826 
	C110.022636,66.583611 109.878662,70.359192 110.050156,74.120399 
	C110.232269,78.114540 110.713661,82.095039 111.064362,86.081490 
z"/>
<path fill="#586574" opacity="1.000000" stroke="none" 
	d="
M110.099998,61.859303 
	C110.020805,57.949894 102.324722,46.792595 98.809029,46.157276 
	C97.244820,45.874607 95.243744,46.631023 93.764893,47.480049 
	C84.754028,52.653263 75.143791,55.976807 64.069794,57.375515 
	C60.168007,57.468971 57.051865,57.553436 53.946205,57.196896 
	C53.968513,55.090931 54.073059,53.420647 53.977818,51.761837 
	C53.024681,35.161316 64.506905,17.633980 81.147781,12.362825 
	C82.217613,12.023945 83.038307,10.898557 83.974899,10.139042 
	C95.563255,10.831040 104.692810,16.282076 111.965836,24.988070 
	C119.492111,33.997215 121.665977,44.671162 121.022369,56.130104 
	C120.873764,58.776009 120.989708,61.436779 120.580902,64.510849 
	C116.818604,63.907089 113.459297,62.883198 110.099998,61.859303 
z"/>
<path fill="#FFBEAB" opacity="1.000000" stroke="none" 
	d="
M53.935722,57.637901 
	C57.051865,57.553436 60.168007,57.468971 63.669350,57.531807 
	C64.354004,68.744774 64.233803,79.842621 65.078918,90.866463 
	C65.823166,100.574371 72.247742,106.668488 80.154037,111.694572 
	C86.573837,115.775681 91.802979,112.729927 97.679535,110.040306 
	C98.027878,114.355522 98.007751,118.702690 97.673538,123.659569 
	C91.792564,131.298309 86.225677,138.327316 80.466110,145.391571 
	C80.014679,145.478958 79.754166,145.490219 79.372147,145.109955 
	C78.501945,143.508408 77.751472,142.257523 77.299042,140.712555 
	C77.597084,132.080627 77.597084,123.742790 77.597084,115.955368 
	C72.084496,114.197250 67.118034,112.613304 62.151569,111.029366 
	C56.460529,105.974556 51.313423,100.552284 49.830784,92.675461 
	C49.530121,91.078133 49.277973,89.471672 48.998611,87.044121 
	C48.662331,84.648918 48.704441,82.858902 47.932362,81.548660 
	C45.150734,76.828133 45.174965,72.335640 47.833416,67.551056 
	C48.718704,65.957756 48.617210,63.816170 48.991745,61.548668 
	C50.656349,59.994034 52.296036,58.815968 53.935722,57.637901 
z"/>
<path fill="#F4B639" opacity="1.000000" stroke="none" 
	d="
M226.063812,61.023262 
	C226.105728,65.032753 226.147629,69.042252 226.110306,73.505058 
	C201.273010,73.968430 176.506470,73.598541 151.760498,74.150421 
	C139.568054,74.422325 137.907181,70.003761 140.397095,58.465942 
	C144.104187,59.084698 147.283981,60.832073 150.480026,60.862343 
	C175.672867,61.100948 200.868820,61.011642 226.063812,61.023262 
z"/>
<path fill="#EE5859" opacity="1.000000" stroke="none" 
	d="
M198.150223,16.935066 
	C198.150223,16.935066 198.478027,17.021116 198.643127,17.058483 
	C198.759460,21.315414 198.710693,25.534981 198.559082,30.177418 
	C181.659515,30.653435 164.861420,30.853834 148.066681,30.696238 
	C139.936768,30.619953 136.805557,23.280546 140.756836,13.739864 
	C143.352951,14.931969 145.593292,16.828293 147.859634,16.859894 
	C164.620255,17.093599 181.386047,16.955956 198.150223,16.935066 
z"/>
<path fill="#3F4C5B" opacity="1.000000" stroke="none" 
	d="
M53.946205,57.196899 
	C52.296036,58.815968 50.656349,59.994034 48.603333,61.611126 
	C44.820728,63.334259 41.451454,64.618370 38.082176,65.902473 
	C37.888336,54.248180 37.215134,42.440685 43.113071,31.778807 
	C50.664856,18.127214 61.997849,10.167843 78.065796,10.006056 
	C79.728928,9.989310 81.392525,10.019513 83.515404,10.083488 
	C83.038307,10.898557 82.217613,12.023945 81.147781,12.362825 
	C64.506905,17.633980 53.024681,35.161316 53.977818,51.761837 
	C54.073059,53.420647 53.968513,55.090931 53.946205,57.196899 
z"/>
<path fill="#358EEF" opacity="1.000000" stroke="none" 
	d="
M198.806976,105.096695 
	C198.834366,108.966492 198.763412,112.880241 198.634354,117.226860 
	C181.466995,117.729774 164.357788,117.824272 147.248474,117.854095 
	C142.489212,117.862389 139.820251,115.176865 139.371262,110.625359 
	C139.117447,108.052185 139.662979,105.400154 140.366348,102.446442 
	C144.656082,103.063873 148.410126,104.752647 152.202881,104.844543 
	C167.627075,105.218246 183.063156,105.102295 198.494843,105.166855 
	C198.494843,105.166855 198.708649,105.140656 198.806976,105.096695 
z"/>
<path fill="#FDCB5F" opacity="1.000000" stroke="none" 
	d="
M226.224075,61.042343 
	C200.868820,61.011642 175.672867,61.100948 150.480026,60.862343 
	C147.283981,60.832073 144.104187,59.084698 140.562622,58.093945 
	C141.266937,53.383343 144.892441,53.157410 148.664017,53.157471 
	C174.071274,53.157871 199.478546,53.152691 225.448242,53.553806 
	C226.242828,56.326298 226.474976,58.694305 226.707108,61.062309 
	C226.707108,61.062309 226.384338,61.061424 226.224075,61.042343 
z"/>
<path fill="#D9DDE6" opacity="1.000000" stroke="none" 
	d="
M127.470612,248.965179 
	C127.019890,225.337021 126.959984,201.721375 127.065575,178.106445 
	C127.077812,175.368820 125.334213,170.892166 130.669388,171.125031 
	C135.404129,171.331711 134.964600,175.408386 134.970474,178.673691 
	C135.012024,201.790222 134.989014,224.906876 134.977112,248.486465 
	C132.615356,248.958923 130.263077,248.968399 127.470612,248.965179 
z"/>
<path fill="#D8DCE5" opacity="1.000000" stroke="none" 
	d="
M80.658791,145.356339 
	C86.225677,138.327316 91.792564,131.298309 97.659470,124.122467 
	C102.827621,125.792030 107.695747,127.608398 112.798355,129.695175 
	C109.734329,140.045334 104.807579,149.263092 98.954384,158.076538 
	C96.412933,156.857391 94.507271,155.943253 92.204376,154.661407 
	C89.920273,152.791519 88.033409,151.289291 85.967522,149.519440 
	C84.078598,147.953339 82.368690,146.654831 80.658791,145.356339 
z"/>
<path fill="#D8DCE5" opacity="1.000000" stroke="none" 
	d="
M77.001007,141.006638 
	C77.751472,142.257523 78.501945,143.508408 79.102348,145.320953 
	C75.342216,148.903641 71.732147,151.924652 68.122086,154.945679 
	C66.043571,155.840866 63.965057,156.736069 60.639427,158.168365 
	C56.167126,149.123337 51.625103,139.937286 47.054688,130.394440 
	C51.813587,128.113205 56.600887,126.188812 62.031670,124.261124 
	C67.450439,129.840775 72.225723,135.423706 77.001007,141.006638 
z"/>
<path fill="#D8DCE5" opacity="1.000000" stroke="none" 
	d="
M26.462305,248.966492 
	C26.017572,224.808197 25.998077,200.660049 26.007807,176.511902 
	C26.008785,174.082718 25.426064,171.170776 29.286186,171.033539 
	C33.466236,170.884918 32.999683,173.922989 33.000111,176.583023 
	C33.003952,200.398178 32.997292,224.213333 32.982353,248.492157 
	C30.945929,248.962753 28.920864,248.969696 26.462305,248.966492 
z"/>
<path fill="#58A2FD" opacity="1.000000" stroke="none" 
	d="
M198.586884,104.727509 
	C183.063156,105.102295 167.627075,105.218246 152.202881,104.844543 
	C148.410126,104.752647 144.656082,103.063873 140.520569,102.071526 
	C140.899765,98.275063 143.435104,97.060776 146.977020,97.071678 
	C163.894806,97.123764 180.812729,97.132118 198.160202,97.224251 
	C198.619507,99.624374 198.649216,101.956261 198.586884,104.727509 
z"/>
<path fill="#FF6C6C" opacity="1.000000" stroke="none" 
	d="
M198.182953,16.503220 
	C181.386047,16.955956 164.620255,17.093599 147.859634,16.859894 
	C145.593292,16.828293 143.352951,14.931969 141.067535,13.539186 
	C143.343170,12.119170 145.637512,10.178223 147.962799,10.140398 
	C164.331985,9.874124 180.707535,9.999557 197.552460,10.004776 
	C198.087799,12.030247 198.151733,14.050810 198.182953,16.503220 
z"/>
<path fill="#F6B0A0" opacity="1.000000" stroke="none" 
	d="
M77.299042,140.712555 
	C72.225723,135.423706 67.450439,129.840775 62.374256,124.120361 
	C62.065617,119.970551 62.057869,115.958199 62.100845,111.487610 
	C67.118034,112.613304 72.084496,114.197250 77.597084,115.955368 
	C77.597084,123.742790 77.597084,132.080627 77.299042,140.712555 
z"/>
<path fill="#F6B0A0" opacity="1.000000" stroke="none" 
	d="
M37.768024,66.103508 
	C41.451454,64.618370 44.820728,63.334259 48.578415,61.987694 
	C48.617210,63.816170 48.718704,65.957756 47.833416,67.551056 
	C45.174965,72.335640 45.150734,76.828133 47.932362,81.548660 
	C48.704441,82.858902 48.662331,84.648918 48.990353,86.631149 
	C37.843899,86.824875 30.618235,77.181343 37.768024,66.103508 
z"/>
<path fill="#F6B0A0" opacity="1.000000" stroke="none" 
	d="
M110.063919,62.336826 
	C113.459297,62.883198 116.818604,63.907089 120.533569,64.978973 
	C120.889236,65.026962 121.023849,65.451530 121.023499,66.149101 
	C121.028343,72.256180 121.033546,77.665695 121.038742,83.075203 
	C117.923103,84.128029 114.807457,85.180855 111.378090,86.157585 
	C110.713661,82.095039 110.232269,78.114540 110.050156,74.120399 
	C109.878662,70.359192 110.022636,66.583611 110.063919,62.336826 
z"/>
<path fill="#E4EAF8" opacity="1.000000" stroke="none" 
	d="
M227.115158,61.034149 
	C226.474976,58.694305 226.242828,56.326298 225.903595,53.528358 
	C233.270020,53.065907 240.758469,52.753841 248.208969,53.152142 
	C250.825180,53.292007 253.348206,55.175385 255.958160,56.638252 
	C254.335464,60.106613 251.801697,61.183796 248.270050,61.068031 
	C241.361176,60.841553 234.439560,61.004337 227.115158,61.034149 
z"/>
<path fill="#FFBEAB" opacity="1.000000" stroke="none" 
	d="
M121.351303,82.898270 
	C121.033546,77.665695 121.028343,72.256180 121.051308,66.370064 
	C126.149544,70.606346 126.334015,75.918297 121.351303,82.898270 
z"/>
<path fill="#D8DCE5" opacity="1.000000" stroke="none" 
	d="
M27.751392,137.133423 
	C27.876806,137.354218 27.693457,137.608963 27.200933,137.899506 
	C27.084715,137.686234 27.268337,137.430237 27.751392,137.133423 
z"/>
<path fill="#EE5455" opacity="1.000000" stroke="none" 
	d="
M86.775124,162.001724 
	C86.794830,162.758698 86.814545,163.515686 86.561981,164.939087 
	C83.204041,183.129257 80.264130,200.680542 76.958641,218.162720 
	C75.693565,224.853531 75.342697,230.807510 81.576744,235.458679 
	C83.487511,236.884293 84.666153,239.291199 86.180061,241.248734 
	C84.304573,243.520584 82.429085,245.792450 80.171883,248.526672 
	C74.460197,242.182816 68.726280,236.437637 63.867863,230.028763 
	C62.455997,228.166290 63.115948,224.336884 63.562164,221.525955 
	C66.669785,201.949585 69.971092,182.403946 73.521057,162.411789 
	C74.225517,161.989868 74.619225,162.004623 75.292419,162.306183 
	C78.710686,162.401215 81.849487,162.209427 85.219849,162.005127 
	C85.451408,161.992615 85.914566,161.968109 86.129532,161.981018 
	C86.344498,161.993927 86.775124,162.001724 86.775124,162.001724 
z"/>
<path fill="#FF6C6C" opacity="1.000000" stroke="none" 
	d="
M86.454620,241.056458 
	C84.666153,239.291199 83.487511,236.884293 81.576744,235.458679 
	C75.342697,230.807510 75.693565,224.853531 76.958641,218.162720 
	C80.264130,200.680542 83.204041,183.129257 86.519302,165.315414 
	C90.143639,184.627869 93.529266,204.232025 96.942055,223.831436 
	C97.514900,227.121246 97.127327,229.930908 94.462601,232.413910 
	C91.677956,235.008682 89.290344,238.029556 86.454620,241.056458 
z"/>
<path fill="#D93C44" opacity="1.000000" stroke="none" 
	d="
M75.012939,162.019379 
	C74.619225,162.004623 74.225517,161.989868 73.536430,161.975266 
	C71.715935,159.757523 70.190811,157.539627 68.393883,155.133698 
	C71.732147,151.924652 75.342216,148.903641 79.222092,145.671616 
	C79.754166,145.490219 80.014679,145.478958 80.466110,145.391571 
	C82.368690,146.654831 84.078598,147.953339 85.770203,149.819702 
	C81.590851,152.632187 81.179565,155.443192 84.326668,158.958817 
	C85.060616,159.778702 85.395874,160.955521 85.914566,161.968109 
	C85.914566,161.968109 85.451408,161.992615 84.767334,161.998749 
	C81.059822,162.009720 78.036385,162.014557 75.012939,162.019379 
z"/>
<path fill="#EE5859" opacity="1.000000" stroke="none" 
	d="
M86.129532,161.981018 
	C85.395874,160.955521 85.060616,159.778702 84.326668,158.958817 
	C81.179565,155.443192 81.590851,152.632187 85.949226,150.087311 
	C88.033409,151.289291 89.920273,152.791519 91.843658,154.620224 
	C90.319092,157.118698 88.758011,159.290665 86.986023,161.732178 
	C86.775124,162.001724 86.344498,161.993927 86.129532,161.981018 
z"/>
<path fill="#EE5859" opacity="1.000000" stroke="none" 
	d="
M75.292419,162.306183 
	C78.036385,162.014557 81.059822,162.009720 84.535774,162.011261 
	C81.849487,162.209427 78.710686,162.401215 75.292419,162.306183 
z"/>
</svg>