<svg version="1.1" id="Layer_1" xmlns="http://www.w3.org/2000/svg" xmlns:xlink="http://www.w3.org/1999/xlink" x="0px" y="0px"
	 width="100%" viewBox="0 0 500 500" enable-background="new 0 0 500 500" xml:space="preserve">
<path fill="#FEFEFE" opacity="1.000000" stroke="none" 
	d="
M440.000000,1.000000 
	C460.323578,1.000000 480.647125,1.000000 500.978027,0.999999 
	C500.985352,167.576859 500.985352,334.153717 500.985352,501.000000 
	C384.645905,501.000000 268.291626,501.000000 151.466858,500.630798 
	C161.292450,496.541473 164.404495,488.652679 160.123459,478.626282 
	C155.919022,468.779236 152.145905,458.740997 148.438232,448.692657 
	C147.107788,445.086914 146.520370,441.207001 145.452759,436.880493 
	C147.991562,436.880493 149.630264,436.880768 151.268982,436.880463 
	C164.745865,436.878174 178.222931,436.835693 191.699554,436.893951 
	C196.773651,436.915863 200.421143,435.200287 201.908722,429.833191 
	C208.540100,429.841370 214.742462,429.815063 221.167633,430.083038 
	C222.487183,435.312744 225.888809,436.923340 230.566528,436.901550 
	C243.065811,436.843414 255.571213,437.091095 268.063507,436.783417 
	C285.006775,436.366119 299.525360,430.254761 310.592773,417.074707 
	C319.985046,405.889557 323.613190,392.777954 323.557129,378.304382 
	C323.398315,337.306610 323.454498,296.307983 323.426361,255.309692 
	C323.424805,253.015259 323.426147,250.720810 323.426147,247.958679 
	C329.181030,247.958679 334.472931,247.958694 339.764862,247.958694 
	C345.178619,247.958694 350.592346,247.958679 356.396057,247.958679 
	C355.960602,250.101456 355.842834,251.612640 355.344849,252.985931 
	C350.899902,265.243713 346.556305,277.542633 341.834137,289.693909 
	C338.873016,297.313568 339.559143,303.189117 344.782074,307.796539 
	C349.756195,312.184479 356.485321,312.426971 363.226013,308.271271 
	C386.497253,293.924408 407.389984,276.653107 425.068146,255.819046 
	C429.961060,250.052658 435.238495,247.675003 442.344238,246.994385 
	C469.483612,244.394821 490.828735,220.935608 491.015442,193.696472 
	C491.134216,176.364594 490.943085,159.030334 491.108826,141.699203 
	C491.159088,136.440292 488.920135,133.596634 483.898865,132.271484 
	C483.911591,125.618225 483.905151,119.414001 484.238770,113.053337 
	C489.296814,111.717827 491.207916,108.829208 491.135529,103.856964 
	C490.900513,87.711960 491.139343,71.560318 490.931702,55.414619 
	C490.624878,31.553890 475.029907,10.905077 452.145630,3.885534 
	C448.175598,2.667756 444.052429,1.949169 440.000000,1.000000 
z"/>
<path fill="#FEFEFE" opacity="1.000000" stroke="none" 
	d="
M145.000000,501.000000 
	C97.024117,501.000000 49.048237,501.000000 1.036178,501.000000 
	C1.036178,334.441193 1.036178,167.882401 1.036178,1.000000 
	C76.353920,1.000000 151.708298,1.000000 227.342468,1.355807 
	C221.914856,3.269669 215.794434,3.982244 210.572113,6.533328 
	C188.903885,17.118170 178.588852,34.919083 178.600342,58.965965 
	C178.620407,100.960358 178.450256,142.954941 178.543060,184.949036 
	C178.552795,189.358902 177.663177,190.903610 172.817291,190.878998 
	C135.658859,190.690338 98.492241,190.424377 61.341335,191.013107 
	C34.897568,191.432190 11.120958,216.369156 11.029150,242.892410 
	C10.867059,289.720001 10.977561,336.548523 10.982254,383.376648 
	C10.982421,385.041107 10.889632,386.733917 11.145038,388.365814 
	C15.492981,416.147003 35.649010,434.813049 63.738823,436.724426 
	C68.315804,437.035889 71.396286,438.684052 74.284424,442.118042 
	C94.331421,465.953766 118.084259,485.388245 145.000000,501.000000 
z"/>
<path fill="#080503" opacity="1.000000" stroke="none" 
	d="
M145.428467,501.000000 
	C118.084259,485.388245 94.331421,465.953766 74.284424,442.118042 
	C71.396286,438.684052 68.315804,437.035889 63.738823,436.724426 
	C35.649010,434.813049 15.492981,416.147003 11.145038,388.365814 
	C10.889632,386.733917 10.982421,385.041107 10.982254,383.376648 
	C10.977561,336.548523 10.867059,289.720001 11.029150,242.892410 
	C11.120958,216.369156 34.897568,191.432190 61.341335,191.013107 
	C98.492241,190.424377 135.658859,190.690338 172.817291,190.878998 
	C177.663177,190.903610 178.552795,189.358902 178.543060,184.949036 
	C178.450256,142.954941 178.620407,100.960358 178.600342,58.965965 
	C178.588852,34.919083 188.903885,17.118170 210.572113,6.533328 
	C215.794434,3.982244 221.914856,3.269669 227.811127,1.355807 
	C298.354218,1.000000 368.708466,1.000000 439.531342,1.000000 
	C444.052429,1.949169 448.175598,2.667756 452.145630,3.885534 
	C475.029907,10.905077 490.624878,31.553890 490.931702,55.414619 
	C491.139343,71.560318 490.900513,87.711960 491.135529,103.856964 
	C491.207916,108.829208 489.296814,111.717827 483.889954,112.959282 
	C478.192047,111.863167 476.873627,108.350822 476.892914,103.672012 
	C476.959534,87.512016 477.163788,71.345207 476.799835,55.192616 
	C476.321869,33.980129 459.044983,16.386942 438.508331,15.997119 
	C376.392944,15.866243 314.732483,15.843265 253.072021,15.830215 
	C252.411697,15.830076 251.751358,15.960017 250.625977,15.928288 
	C243.107162,15.961037 236.053375,16.094730 228.616516,16.150364 
	C205.775131,20.148888 192.765793,35.624989 192.711685,58.551258 
	C192.645325,86.670769 192.694580,114.790558 192.696457,142.910233 
	C192.697556,159.382690 192.498413,175.858398 192.759277,192.326782 
	C193.091141,213.277817 207.615402,230.190750 227.671509,232.777817 
	C234.042969,233.599716 240.600540,232.978958 247.436768,233.113617 
	C248.542160,233.150406 249.283722,233.091965 250.480103,233.142548 
	C284.374298,233.264893 317.813782,233.243805 351.252930,233.343307 
	C354.704468,233.353592 358.153809,234.082565 361.663940,234.437317 
	C361.723724,234.396576 361.581970,234.367706 361.728699,234.609665 
	C362.231049,234.951981 362.586609,235.052338 363.116760,235.433823 
	C365.385590,238.090225 367.479828,240.465500 369.607300,243.202179 
	C369.049469,249.422180 369.336243,255.542221 367.685455,261.085205 
	C364.195251,272.804443 359.692780,284.222229 355.374847,296.414948 
	C373.182404,284.915527 389.783295,272.650787 404.345734,257.285645 
	C404.785339,256.765747 404.937836,256.390472 405.044373,256.058136 
	C404.998413,256.101074 405.074341,256.201385 405.405182,256.109314 
	C409.967438,251.334793 414.296448,246.736084 418.404572,241.947861 
	C423.120483,236.451233 428.977142,233.684601 436.198700,233.280899 
	C461.234283,231.881348 476.841736,215.363617 476.912964,190.283066 
	C476.958710,174.163712 476.963684,158.043823 476.881378,141.924713 
	C476.855927,136.935120 478.604095,133.552887 483.879730,132.720520 
	C488.920135,133.596634 491.159088,136.440292 491.108826,141.699203 
	C490.943085,159.030334 491.134216,176.364594 491.015442,193.696472 
	C490.828735,220.935608 469.483612,244.394821 442.344238,246.994385 
	C435.238495,247.675003 429.961060,250.052658 425.068146,255.819046 
	C407.389984,276.653107 386.497253,293.924408 363.226013,308.271271 
	C356.485321,312.426971 349.756195,312.184479 344.782074,307.796539 
	C339.559143,303.189117 338.873016,297.313568 341.834137,289.693909 
	C346.556305,277.542633 350.899902,265.243713 355.344849,252.985931 
	C355.842834,251.612640 355.960602,250.101456 356.396057,247.958679 
	C350.592346,247.958679 345.178619,247.958694 339.764862,247.958694 
	C334.472931,247.958694 329.181030,247.958679 323.426147,247.958679 
	C323.426147,250.720810 323.424805,253.015259 323.426361,255.309692 
	C323.454498,296.307983 323.398315,337.306610 323.557129,378.304382 
	C323.613190,392.777954 319.985046,405.889557 310.592773,417.074707 
	C299.525360,430.254761 285.006775,436.366119 268.063507,436.783417 
	C255.571213,437.091095 243.065811,436.843414 230.566528,436.901550 
	C225.888809,436.923340 222.487183,435.312744 221.280334,429.747894 
	C222.058502,424.328461 225.139435,422.643799 229.769119,422.677521 
	C241.926819,422.766022 254.087524,422.834991 266.243622,422.666870 
	C292.396606,422.305237 309.209595,405.291626 309.247223,379.151489 
	C309.307648,337.180023 309.271912,295.208405 309.259460,253.236832 
	C309.258972,251.635376 309.077423,250.033966 308.954926,248.015671 
	C306.753265,248.015671 304.956573,248.015793 303.159851,248.015640 
	C280.008820,248.013779 256.857422,248.091476 233.706833,247.988358 
	C208.928131,247.877975 188.154648,232.710190 180.783737,209.151505 
	C179.625137,205.448410 177.802505,204.780121 174.402298,204.796463 
	C150.752151,204.910172 127.101151,204.833298 103.450500,204.868881 
	C95.962906,204.880142 88.475555,205.047836 80.532440,205.034103 
	C74.914658,204.918701 69.748230,204.773468 64.591133,204.931808 
	C42.600414,205.607010 25.215366,223.143036 25.136074,245.220001 
	C24.972183,290.851685 24.997030,336.484711 25.205294,382.115967 
	C25.227554,386.993866 26.204041,392.184692 28.066023,396.680267 
	C35.011871,413.450592 48.150181,421.824432 66.082680,422.632568 
	C73.832947,422.981812 79.353790,426.644165 84.550705,432.098450 
	C94.756317,442.809509 104.945114,453.644257 116.127304,463.283539 
	C125.245277,471.143402 135.799774,477.336792 145.830902,484.475037 
	C146.203598,484.619293 146.462723,484.557587 146.721848,484.495911 
	C146.536240,484.278595 146.350632,484.061310 146.187103,483.470856 
	C142.074295,472.053345 137.939407,461.009003 133.826843,449.703247 
	C133.589081,449.241028 133.329025,449.040192 133.087921,448.876556 
	C133.106873,448.913788 133.183426,448.880310 133.223480,448.472534 
	C132.969101,446.777008 132.726776,445.474701 132.372192,444.203735 
	C128.571518,430.580688 138.012482,422.029022 149.250488,422.545044 
	C163.663834,423.206879 178.131531,422.781769 192.574310,422.653870 
	C197.686600,422.608612 200.871262,424.472321 201.479706,429.798737 
	C200.421143,435.200287 196.773651,436.915863 191.699554,436.893951 
	C178.222931,436.835693 164.745865,436.878174 151.268982,436.880463 
	C149.630264,436.880768 147.991562,436.880493 145.452759,436.880493 
	C146.520370,441.207001 147.107788,445.086914 148.438232,448.692657 
	C152.145905,458.740997 155.919022,468.779236 160.123459,478.626282 
	C164.404495,488.652679 161.292450,496.541473 150.998199,500.630798 
	C149.285645,501.000000 147.571289,501.000000 145.428467,501.000000 
z"/>
<path fill="#FDE45B" opacity="1.000000" stroke="none" 
	d="
M483.898865,132.271484 
	C478.604095,133.552887 476.855927,136.935120 476.881378,141.924713 
	C476.963684,158.043823 476.958710,174.163712 476.912964,190.283066 
	C476.841736,215.363617 461.234283,231.881348 436.198700,233.280899 
	C428.977142,233.684601 423.120483,236.451233 418.404572,241.947861 
	C414.296448,246.736084 409.967438,251.334793 405.342560,255.680038 
	C405.032745,254.519135 405.033508,253.676926 405.212738,252.874588 
	C407.060760,244.602127 404.202728,241.009781 395.692322,240.988403 
	C388.554657,240.970459 381.413971,240.872375 374.281525,241.064835 
	C372.697540,241.107590 371.142456,242.220566 369.574066,242.840759 
	C367.479828,240.465500 365.385590,238.090225 362.980652,235.176086 
	C362.307281,234.547379 361.944641,234.457535 361.581970,234.367706 
	C361.581970,234.367706 361.723724,234.396576 361.728516,234.007477 
	C360.190155,233.082718 358.648285,232.083725 357.103638,232.079483 
	C322.961884,231.985489 288.819794,231.987885 254.677887,232.040543 
	C253.126511,232.042938 251.576126,232.687881 250.025269,233.033539 
	C249.283722,233.091965 248.542160,233.150406 247.409454,232.751190 
	C246.820602,231.680313 246.816788,230.825470 246.397186,230.488815 
	C231.978210,218.919724 226.876236,203.583588 227.971313,185.623291 
	C228.392685,178.712494 228.463394,171.780319 229.019409,165.051392 
	C234.134888,169.346771 239.182083,169.401855 244.553070,166.389160 
	C248.609299,164.113937 252.875244,162.200745 256.856537,159.808075 
	C259.423462,158.265411 261.482117,158.100327 264.121338,159.722443 
	C268.078613,162.154633 272.370392,164.034805 276.424103,166.319763 
	C281.171143,168.995544 285.821228,169.535065 290.443054,166.195480 
	C295.127411,162.810730 295.731232,158.038498 294.805603,152.809418 
	C293.994476,148.227081 292.948181,143.674820 292.408142,139.062164 
	C292.213226,137.397385 293.188232,135.595657 293.924225,133.790421 
	C294.424988,133.395721 294.630859,133.067017 294.850647,132.797913 
	C294.864594,132.857513 294.746826,132.824081 295.024719,132.761139 
	C295.475891,132.377274 295.649139,132.056381 295.838318,131.794754 
	C295.854248,131.854019 295.735901,131.821503 296.016113,131.762115 
	C296.476288,131.383331 296.656281,131.063934 296.851166,130.804855 
	C296.866089,130.865173 296.745361,130.835754 297.020264,130.774445 
	C297.476410,130.401779 297.657623,130.090424 297.866241,129.835480 
	C297.893677,129.891922 297.780396,129.837906 298.050537,129.774567 
	C298.503143,129.404343 298.685608,129.097443 298.879944,128.840454 
	C298.891815,128.890366 298.792114,128.866043 299.061981,128.794739 
	C299.511871,128.412445 299.691895,128.101440 299.883575,127.842453 
	C299.895203,127.894447 299.791138,127.871368 300.061279,127.800583 
	C300.517578,127.421547 300.703766,127.113304 300.899902,126.857071 
	C300.909882,126.909081 300.805878,126.889061 301.073181,126.813599 
	C301.527557,126.432030 301.714600,126.125931 301.909180,125.870041 
	C301.916656,125.920250 301.817291,125.899330 302.082642,125.822472 
	C302.536896,125.442337 302.725769,125.139053 302.922363,124.882660 
	C302.930054,124.929558 302.836304,124.913948 303.098022,124.832680 
	C303.548401,124.450539 303.737091,124.149666 303.931274,123.894295 
	C303.936829,123.939804 303.846558,123.923676 304.108154,123.839493 
	C304.555603,123.451591 304.741516,123.147881 304.933563,122.892548 
	C304.939728,122.940926 304.843201,122.926849 305.104858,122.843506 
	C305.554260,122.457916 305.741943,122.155678 305.936035,121.898178 
	C305.942383,121.942924 305.852875,121.930428 306.113647,121.840469 
	C306.547424,121.438812 306.720490,121.127121 306.907166,120.862381 
	C306.920807,120.909332 306.827423,120.880402 307.198486,120.866165 
	C307.848572,120.086533 308.127655,119.321129 308.685730,118.699661 
	C308.783417,118.739044 308.602051,118.634476 308.804565,118.514404 
	C312.045197,112.764397 311.476196,108.859802 307.173157,105.875977 
	C306.979187,105.751495 306.883972,105.300484 306.810669,105.014084 
	C306.413116,104.527428 306.088898,104.327179 305.820404,104.118706 
	C305.876160,104.110489 305.841095,104.217628 305.846436,103.845520 
	C303.823883,99.497299 300.739502,99.100365 296.675079,100.932312 
	C295.891357,100.875381 295.449432,100.751686 294.896790,100.285141 
	C291.197235,99.608025 287.608459,99.273766 283.680237,98.996635 
	C282.900665,98.938484 282.460541,98.823196 281.922424,98.369186 
	C281.002136,97.759605 280.179810,97.488731 279.135223,96.977219 
	C276.328491,91.528175 273.770294,86.306511 271.151672,81.115334 
	C268.834717,76.522194 264.982849,74.647079 259.920654,74.123360 
	C254.460495,73.558472 252.228134,77.243164 250.129364,80.863419 
	C247.387817,85.592468 245.384216,90.748100 242.665085,95.492058 
	C241.760818,97.069717 239.785446,98.567047 238.025787,99.008125 
	C234.522614,99.886208 230.829514,100.006660 227.281525,100.006454 
	C227.566208,97.605484 227.963791,95.639038 227.973129,93.670738 
	C228.033188,81.026558 227.855911,68.379524 228.060120,55.738319 
	C228.218765,45.917545 230.968597,36.848476 237.265762,29.079679 
	C240.321274,25.310085 243.393616,21.554136 246.762054,17.419168 
	C240.662140,17.010248 234.830872,16.619337 228.999588,16.228424 
	C236.053375,16.094730 243.107162,15.961037 250.899734,16.233250 
	C252.617401,16.761166 253.596268,16.989672 254.575180,16.989960 
	C314.629791,17.007608 374.684418,17.012705 434.738983,16.969578 
	C436.147278,16.968567 437.555176,16.406199 438.963257,16.105667 
	C459.044983,16.386942 476.321869,33.980129 476.799835,55.192616 
	C477.163788,71.345207 476.959534,87.512016 476.892914,103.672012 
	C476.873627,108.350822 478.192047,111.863167 483.549866,113.115723 
	C483.905151,119.414001 483.911591,125.618225 483.898865,132.271484 
M330.830048,149.429916 
	C330.745728,149.754379 330.661438,150.078842 330.478790,150.408249 
	C330.478790,150.408249 330.506958,150.502625 329.800354,150.498840 
	C329.592743,151.124451 329.385132,151.750046 329.201508,152.719604 
	C329.201508,152.719604 328.995483,152.996063 328.438263,153.533035 
	C328.311707,155.833847 326.405090,158.623550 330.016541,159.986572 
	C330.016541,159.986572 330.155273,159.834412 330.145996,160.539444 
	C330.854462,160.928604 331.562958,161.317780 332.076721,161.895813 
	C332.076721,161.895813 332.231506,161.673065 332.406891,162.466125 
	C334.214142,162.968811 336.020233,163.905075 337.828827,163.909897 
	C370.871460,163.998062 403.914398,163.991882 436.957153,163.924194 
	C438.642151,163.920746 440.325653,163.184326 442.364044,162.490662 
	C442.364044,162.490662 442.815399,162.383362 442.815399,162.383362 
	C442.815399,162.383362 443.265991,162.493912 443.916779,162.683167 
	C444.269867,162.436813 444.622955,162.190460 444.988708,162.004013 
	C444.988708,162.004013 444.944153,161.962006 445.572327,161.963226 
	C446.077087,161.389008 446.581818,160.814789 447.249847,159.728470 
	C447.503387,159.483383 447.756927,159.238281 448.474274,158.699738 
	C448.501678,158.355774 448.529053,158.011826 448.513245,157.769791 
	C448.513245,157.769791 448.530151,157.655960 449.169952,157.619095 
	C449.129822,156.752090 449.089661,155.885071 448.838287,154.531952 
	C448.824493,154.183792 448.810699,153.835648 448.904785,152.753967 
	C448.514587,152.206879 448.124420,151.659790 447.316589,150.918503 
	C447.078949,150.696396 446.954041,150.422821 446.916046,149.362579 
	C444.677246,146.823120 442.443665,144.258606 438.329224,147.878677 
	C437.902466,147.820679 437.475739,147.762680 436.786774,146.968704 
	C435.725952,146.659775 434.665527,146.082458 433.604248,146.080902 
	C401.348175,146.033295 369.091919,146.019028 336.836182,146.128372 
	C335.555573,146.132690 334.279236,147.396973 332.633545,148.152878 
	C332.633545,148.152878 332.258484,148.131042 331.715973,148.329147 
	C331.634430,148.681305 331.552917,149.033478 331.386169,149.386185 
	C331.386169,149.386185 331.393951,149.471054 330.830048,149.429916 
M329.137360,128.528183 
	C329.623718,128.977127 330.110046,129.426056 331.235046,130.196259 
	C333.569275,130.829224 335.901520,132.005127 338.238007,132.013474 
	C371.882965,132.133743 405.528442,132.110245 439.173828,132.088837 
	C447.917023,132.083267 450.773834,127.380432 446.713806,118.852524 
	C446.124939,118.577652 445.536072,118.302773 444.985168,117.992188 
	C444.985168,117.992188 444.978790,118.043831 444.823029,117.241547 
	C443.831238,116.827682 442.840057,116.053787 441.847534,116.052010 
	C406.445984,115.988998 371.044250,115.976570 335.642975,116.094795 
	C334.500122,116.098618 333.362061,117.542198 332.161957,118.175293 
	C332.161957,118.175293 332.313110,118.187538 331.732483,118.291740 
	C331.509216,118.599594 331.285950,118.907448 330.970886,119.647987 
	C330.811279,119.935699 330.566986,120.077797 329.619385,120.406113 
	C329.465118,120.839386 329.310852,121.272659 329.212128,121.871422 
	C329.212128,121.871422 329.095123,122.000984 328.504303,122.466148 
	C328.747253,124.292648 328.990234,126.119148 329.091278,127.930756 
	C329.091278,127.930756 329.140900,127.796928 329.137360,128.528183 
M334.337189,56.888611 
	C326.979797,60.789230 326.845184,66.335495 334.113068,71.338280 
	C334.421051,71.292351 334.729004,71.246414 335.968536,71.158463 
	C370.377777,71.162079 404.787048,71.182228 439.196289,71.157784 
	C447.890411,71.151604 450.728058,66.386276 446.866333,57.665337 
	C445.194794,56.776146 443.526642,55.118519 441.851227,55.111107 
	C407.640747,54.959709 373.429382,54.978325 339.218475,55.062901 
	C337.814941,55.066368 336.413788,56.043091 334.337189,56.888611 
M354.500305,87.031464 
	C349.002380,87.031975 343.504181,86.999809 338.006561,87.041977 
	C332.255402,87.086090 329.125793,89.568207 328.971405,94.108147 
	C328.809326,98.872009 332.069214,101.721512 337.945526,101.775078 
	C344.942291,101.838867 351.940094,101.788956 358.937469,101.788940 
	C384.927704,101.788864 410.917969,101.789017 436.908203,101.789253 
	C437.741211,101.789261 438.574432,101.802986 439.407227,101.790024 
	C445.289398,101.698524 448.774658,98.956764 448.804565,94.403976 
	C448.834686,89.822350 445.383118,87.049164 439.468658,87.044838 
	C411.479156,87.024361 383.489685,87.033119 354.500305,87.031464 
M363.500000,193.083054 
	C371.310120,193.082062 379.120422,193.115967 386.930267,193.068695 
	C392.841034,193.032898 396.172272,190.294266 396.125275,185.648621 
	C396.080292,181.201904 392.908875,178.477982 387.206665,178.449722 
	C370.756012,178.368179 354.304474,178.372696 337.853729,178.448608 
	C332.031158,178.475479 329.023865,181.044128 328.947144,185.617828 
	C328.867737,190.350876 332.074402,193.028152 338.072723,193.067902 
	C346.214813,193.121857 354.357544,193.082443 363.500000,193.083054 
z"/>
<path fill="#FB656F" opacity="1.000000" stroke="none" 
	d="
M201.908722,429.833191 
	C200.871262,424.472321 197.686600,422.608612 192.574310,422.653870 
	C178.131531,422.781769 163.663834,423.206879 149.250488,422.545044 
	C138.012482,422.029022 128.571518,430.580688 132.372192,444.203735 
	C132.726776,445.474701 132.969101,446.777008 132.891235,448.388916 
	C129.555328,445.594025 126.507179,442.550293 123.647026,439.339081 
	C118.783546,433.878693 113.700104,429.760193 105.519287,429.795319 
	C94.944611,429.840729 85.342827,425.554413 77.395729,418.716766 
	C65.856522,408.788513 60.263786,395.708252 60.071682,380.540649 
	C59.869247,364.557159 60.084511,348.568329 60.431030,332.735657 
	C66.174545,338.054535 71.586945,343.238007 77.038696,348.379791 
	C83.097420,354.094025 87.459023,354.169922 93.456718,348.499817 
	C101.566345,340.833099 109.642601,333.128845 117.619408,325.324402 
	C127.328018,315.825592 128.758682,302.006531 121.248657,291.771545 
	C113.411682,281.090942 100.087318,278.288849 87.861778,284.638641 
	C86.708641,285.237579 84.781746,285.808319 83.914291,285.268005 
	C75.895187,280.273163 67.595253,280.167908 59.122314,282.854736 
	C59.510784,280.654907 59.964874,278.868622 59.979691,277.078674 
	C60.054096,268.089386 59.803684,259.093048 60.064247,250.110718 
	C60.428391,237.557739 62.344795,225.394882 71.243889,215.570190 
	C74.437004,212.044998 77.736923,208.616547 80.988091,205.143951 
	C88.475555,205.047836 95.962906,204.880142 103.450500,204.868881 
	C127.101151,204.833298 150.752151,204.910172 174.402298,204.796463 
	C177.802505,204.780121 179.625137,205.448410 180.783737,209.151505 
	C188.154648,232.710190 208.928131,247.877975 233.706833,247.988358 
	C256.857422,248.091476 280.008820,248.013779 303.159851,248.015640 
	C304.956573,248.015793 306.753265,248.015671 308.954926,248.015671 
	C309.077423,250.033966 309.258972,251.635376 309.259460,253.236832 
	C309.271912,295.208405 309.307648,337.180023 309.247223,379.151489 
	C309.209595,405.291626 292.396606,422.305237 266.243622,422.666870 
	C254.087524,422.834991 241.926819,422.766022 229.769119,422.677521 
	C225.139435,422.643799 222.058502,424.328461 221.057526,429.453613 
	C214.742462,429.815063 208.540100,429.841370 201.908722,429.833191 
M166.552979,355.868408 
	C197.715714,355.866760 228.878433,355.866028 260.041168,355.860657 
	C261.540405,355.860413 263.062592,355.978302 264.534485,355.766327 
	C268.493225,355.196167 270.917267,352.908630 271.145203,348.847900 
	C271.377167,344.715057 269.012146,342.303833 265.189117,341.377380 
	C263.603516,340.993103 261.881165,341.107269 260.220978,341.106384 
	C227.391815,341.089294 194.562668,341.085388 161.733505,341.094879 
	C160.240906,341.095306 158.682785,340.999390 157.268402,341.374878 
	C153.471725,342.382660 151.060410,344.896942 151.324539,348.928192 
	C151.584610,352.897827 154.104462,355.297577 158.084396,355.731201 
	C160.557220,356.000610 163.077179,355.837280 166.552979,355.868408 
M243.499939,294.984955 
	C250.154480,294.981018 256.811768,295.092255 263.462616,294.934052 
	C268.136383,294.822845 271.222992,291.692291 271.212708,287.534363 
	C271.202484,283.395721 268.106384,280.485992 263.386444,280.189972 
	C262.889099,280.158783 262.388550,280.176544 261.889465,280.176544 
	C228.117615,280.177216 194.345764,280.177216 160.573914,280.184875 
	C159.577682,280.185120 158.551025,280.125671 157.590607,280.334015 
	C153.693176,281.179596 151.357925,283.648407 151.337509,287.630066 
	C151.316757,291.680176 153.851257,294.031708 157.668869,294.837158 
	C159.266953,295.174347 160.982925,294.980499 162.645309,294.980865 
	C189.263535,294.986755 215.881744,294.984985 243.499939,294.984955 
M162.670624,310.770905 
	C160.843674,310.840881 158.956924,310.643127 157.201965,311.035278 
	C153.267410,311.914398 151.104172,314.633514 151.415359,318.607117 
	C151.704269,322.296051 153.964951,324.675690 157.834793,325.092590 
	C159.153214,325.234680 160.493973,325.195221 161.824524,325.195251 
	C194.777817,325.196320 227.731125,325.192261 260.684418,325.185333 
	C262.015381,325.185028 263.356995,325.248352 264.675293,325.108673 
	C268.525787,324.700897 270.767181,322.449707 271.093079,318.664948 
	C271.441498,314.619202 269.400421,311.953552 265.456543,311.028931 
	C263.867584,310.656433 262.150116,310.768250 260.491089,310.767822 
	C228.203506,310.758911 195.915939,310.766052 162.670624,310.770905 
M152.180832,375.721161 
	C150.222946,382.465820 153.008499,386.236206 160.266464,386.274231 
	C176.752518,386.360565 193.239365,386.343750 209.725708,386.299072 
	C215.209366,386.284210 218.708923,383.358093 218.711655,379.054047 
	C218.714462,374.623413 215.433212,371.717499 209.852249,371.689514 
	C193.199600,371.606140 176.543823,371.527344 159.895813,371.819366 
	C157.435104,371.862518 155.009796,373.923035 152.180832,375.721161 
M175.494720,249.868912 
	C169.833023,249.882111 164.168137,249.783508 158.510666,249.944794 
	C154.196701,250.067780 151.600327,252.683838 151.332855,256.801697 
	C151.077225,260.737549 153.432693,264.059418 157.311111,264.209412 
	C167.930817,264.620056 178.590103,264.618530 189.207748,264.168121 
	C193.418915,263.989502 195.490082,260.520508 195.041779,256.283173 
	C194.614517,252.244843 192.044403,250.078552 187.979935,249.950638 
	C184.153214,249.830215 180.320953,249.885818 175.494720,249.868912 
z"/>
<path fill="#FA4755" opacity="1.000000" stroke="none" 
	d="
M60.117279,332.581848 
	C60.084511,348.568329 59.869247,364.557159 60.071682,380.540649 
	C60.263786,395.708252 65.856522,408.788513 77.395729,418.716766 
	C85.342827,425.554413 94.944611,429.840729 105.519287,429.795319 
	C113.700104,429.760193 118.783546,433.878693 123.647026,439.339081 
	C126.507179,442.550293 129.555328,445.594025 132.851166,448.796692 
	C133.183426,448.880310 133.106873,448.913788 133.140732,449.105255 
	C133.301468,449.597717 133.511444,449.820374 133.804535,449.964630 
	C137.939407,461.009003 142.074295,472.053345 146.075745,483.577728 
	C145.942291,484.057739 145.717316,484.269104 145.717316,484.269104 
	C135.799774,477.336792 125.245277,471.143402 116.127304,463.283539 
	C104.945114,453.644257 94.756317,442.809509 84.550705,432.098450 
	C79.353790,426.644165 73.832947,422.981812 66.082680,422.632568 
	C48.150181,421.824432 35.011871,413.450592 28.066023,396.680267 
	C26.204041,392.184692 25.227554,386.993866 25.205294,382.115967 
	C24.997030,336.484711 24.972183,290.851685 25.136074,245.220001 
	C25.215366,223.143036 42.600414,205.607010 64.591133,204.931808 
	C69.748230,204.773468 74.914658,204.918701 80.532440,205.034088 
	C77.736923,208.616547 74.437004,212.044998 71.243889,215.570190 
	C62.344795,225.394882 60.428391,237.557739 60.064247,250.110718 
	C59.803684,259.093048 60.054096,268.089386 59.979691,277.078674 
	C59.964874,278.868622 59.510784,280.654907 58.917458,283.106079 
	C41.639019,294.400848 39.685890,312.222839 53.906212,326.233154 
	C56.014782,328.310577 58.048786,330.463715 60.117279,332.581848 
z"/>
<path fill="#FCD205" opacity="1.000000" stroke="none" 
	d="
M228.693863,164.857895 
	C228.463394,171.780319 228.392685,178.712494 227.971313,185.623291 
	C226.876236,203.583588 231.978210,218.919724 246.397186,230.488815 
	C246.816788,230.825470 246.820602,231.680313 247.045609,232.655960 
	C240.600540,232.978958 234.042969,233.599716 227.671509,232.777817 
	C207.615402,230.190750 193.091141,213.277817 192.759277,192.326782 
	C192.498413,175.858398 192.697556,159.382690 192.696457,142.910233 
	C192.694580,114.790558 192.645325,86.670769 192.711685,58.551258 
	C192.765793,35.624989 205.775131,20.148888 228.616516,16.150364 
	C234.830872,16.619337 240.662140,17.010248 246.762054,17.419168 
	C243.393616,21.554136 240.321274,25.310085 237.265762,29.079679 
	C230.968597,36.848476 228.218765,45.917545 228.060120,55.738319 
	C227.855911,68.379524 228.033188,81.026558 227.973129,93.670738 
	C227.963791,95.639038 227.566208,97.605484 226.927643,100.167297 
	C224.374847,101.132027 222.193283,101.326431 220.119934,101.907173 
	C214.978958,103.347160 211.206070,107.769104 211.981689,112.982872 
	C212.498611,116.457642 214.514008,120.058739 216.789108,122.843102 
	C220.453079,127.327225 226.899673,130.554535 228.437744,135.478760 
	C230.041580,140.613571 226.733139,147.110703 226.518387,153.046463 
	C226.377075,156.952255 227.910416,160.918640 228.693863,164.857895 
z"/>
<path fill="#F9D008" opacity="1.000000" stroke="none" 
	d="
M369.607300,243.202179 
	C371.142456,242.220566 372.697540,241.107590 374.281525,241.064835 
	C381.413971,240.872375 388.554657,240.970459 395.692322,240.988403 
	C404.202728,241.009781 407.060760,244.602127 405.212738,252.874588 
	C405.033508,253.676926 405.032745,254.519135 405.011719,255.772110 
	C405.074341,256.201385 404.998413,256.101074 404.765320,256.196136 
	C404.374359,256.670898 404.216522,257.050568 404.058655,257.430237 
	C389.783295,272.650787 373.182404,284.915527 355.374847,296.414948 
	C359.692780,284.222229 364.195251,272.804443 367.685455,261.085205 
	C369.336243,255.542221 369.049469,249.422180 369.607300,243.202179 
z"/>
<path fill="#FDF087" opacity="1.000000" stroke="none" 
	d="
M438.508331,15.997120 
	C437.555176,16.406199 436.147278,16.968567 434.738983,16.969578 
	C374.684418,17.012705 314.629791,17.007608 254.575180,16.989960 
	C253.596268,16.989672 252.617401,16.761166 251.364777,16.334196 
	C251.751358,15.960017 252.411697,15.830076 253.072021,15.830215 
	C314.732483,15.843265 376.392944,15.866243 438.508331,15.997120 
z"/>
<path fill="#FCED7B" opacity="1.000000" stroke="none" 
	d="
M250.480103,233.142548 
	C251.576126,232.687881 253.126511,232.042938 254.677887,232.040543 
	C288.819794,231.987885 322.961884,231.985489 357.103638,232.079483 
	C358.648285,232.083725 360.190155,233.082718 361.668762,234.048218 
	C358.153809,234.082565 354.704468,233.353592 351.252930,233.343307 
	C317.813782,233.243805 284.374298,233.264893 250.480103,233.142548 
z"/>
<path fill="#FCED7B" opacity="1.000000" stroke="none" 
	d="
M361.728699,234.609665 
	C361.944641,234.457535 362.307281,234.547379 362.806091,234.894958 
	C362.586609,235.052338 362.231049,234.951981 361.728699,234.609665 
z"/>
<path fill="#FDE45B" opacity="1.000000" stroke="none" 
	d="
M404.345764,257.285645 
	C404.216522,257.050568 404.374359,256.670898 404.811279,256.153198 
	C404.937836,256.390472 404.785339,256.765747 404.345764,257.285645 
z"/>
<path fill="#FA4755" opacity="1.000000" stroke="none" 
	d="
M146.053650,483.950867 
	C146.350632,484.061310 146.536240,484.278595 146.721848,484.495911 
	C146.462723,484.557587 146.203598,484.619293 145.830902,484.475037 
	C145.717316,484.269104 145.942291,484.057739 146.053650,483.950867 
z"/>
<path fill="#FB656F" opacity="1.000000" stroke="none" 
	d="
M133.826828,449.703247 
	C133.511444,449.820374 133.301468,449.597717 133.121780,449.068024 
	C133.329025,449.040192 133.589081,449.241028 133.826828,449.703247 
z"/>
<path fill="#070604" opacity="1.000000" stroke="none" 
	d="
M229.019409,165.051392 
	C227.910416,160.918640 226.377075,156.952255 226.518387,153.046463 
	C226.733139,147.110703 230.041580,140.613571 228.437744,135.478760 
	C226.899673,130.554535 220.453079,127.327225 216.789108,122.843102 
	C214.514008,120.058739 212.498611,116.457642 211.981689,112.982872 
	C211.206070,107.769104 214.978958,103.347160 220.119934,101.907173 
	C222.193283,101.326431 224.374847,101.132027 226.861023,100.600952 
	C230.829514,100.006660 234.522614,99.886208 238.025787,99.008125 
	C239.785446,98.567047 241.760818,97.069717 242.665085,95.492058 
	C245.384216,90.748100 247.387817,85.592468 250.129364,80.863419 
	C252.228134,77.243164 254.460495,73.558472 259.920654,74.123360 
	C264.982849,74.647079 268.834717,76.522194 271.151672,81.115334 
	C273.770294,86.306511 276.328491,91.528175 279.208191,97.326004 
	C280.342407,98.179588 281.181396,98.443741 282.020416,98.707901 
	C282.460541,98.823196 282.900665,98.938484 284.018005,99.193329 
	C288.132629,99.764580 291.570099,100.196289 295.007538,100.627998 
	C295.449432,100.751686 295.891357,100.875381 296.998352,101.107147 
	C300.389343,102.216019 303.115204,103.216820 305.841095,104.217628 
	C305.841095,104.217628 305.876160,104.110489 305.911987,104.392029 
	C306.259857,104.882538 306.571930,105.091515 306.883972,105.300491 
	C306.883972,105.300484 306.979187,105.751495 307.288757,106.231445 
	C307.872467,110.650894 308.146576,114.590393 308.420654,118.529900 
	C308.602051,118.634476 308.783417,118.739044 308.461121,118.876686 
	C307.580811,119.566635 307.204102,120.223518 306.827423,120.880402 
	C306.827423,120.880402 306.920807,120.909332 306.650940,120.957191 
	C306.205017,121.313507 306.028931,121.621964 305.852875,121.930420 
	C305.852875,121.930428 305.942383,121.942924 305.673462,121.980637 
	C305.217438,122.321175 305.030304,122.624008 304.843201,122.926849 
	C304.843201,122.926849 304.939728,122.940926 304.670410,122.972977 
	C304.216278,123.311249 304.031433,123.617462 303.846558,123.923676 
	C303.846558,123.923676 303.936829,123.939804 303.667358,123.972168 
	C303.210693,124.307678 303.023499,124.610817 302.836304,124.913956 
	C302.836304,124.913948 302.930054,124.929558 302.661469,124.965691 
	C302.201019,125.300995 302.009155,125.600159 301.817291,125.899323 
	C301.817291,125.899330 301.916656,125.920250 301.645721,125.950439 
	C301.185150,126.283432 300.995514,126.586250 300.805878,126.889061 
	C300.805878,126.889061 300.909882,126.909081 300.639343,126.942673 
	C300.176239,127.274635 299.983673,127.572998 299.791138,127.871368 
	C299.791138,127.871368 299.895203,127.894447 299.625000,127.929665 
	C299.167206,128.265274 298.979645,128.565659 298.792114,128.866043 
	C298.792114,128.866043 298.891815,128.890366 298.622437,128.923828 
	C298.162170,129.250809 297.971283,129.544357 297.780396,129.837906 
	C297.780396,129.837906 297.893677,129.891922 297.608398,129.920624 
	C297.130554,130.244797 296.937958,130.540268 296.745361,130.835754 
	C296.745361,130.835754 296.866089,130.865173 296.589600,130.891479 
	C296.120728,131.219025 295.928314,131.520264 295.735901,131.821503 
	C295.735901,131.821503 295.854248,131.854019 295.579620,131.884293 
	C295.118927,132.217743 294.932892,132.520905 294.746826,132.824081 
	C294.746826,132.824081 294.864594,132.857513 294.575195,132.892120 
	C294.066956,133.236633 293.848145,133.546524 293.629333,133.856415 
	C293.188232,135.595657 292.213226,137.397385 292.408142,139.062164 
	C292.948181,143.674820 293.994476,148.227081 294.805603,152.809418 
	C295.731232,158.038498 295.127411,162.810730 290.443054,166.195480 
	C285.821228,169.535065 281.171143,168.995544 276.424103,166.319763 
	C272.370392,164.034805 268.078613,162.154633 264.121338,159.722443 
	C261.482117,158.100327 259.423462,158.265411 256.856537,159.808075 
	C252.875244,162.200745 248.609299,164.113937 244.553070,166.389160 
	C239.182083,169.401855 234.134888,169.346771 229.019409,165.051392 
M260.796692,142.899063 
	C266.832001,145.370758 272.867310,147.842453 280.289032,150.881943 
	C273.260345,135.447510 277.948456,124.064255 291.374634,115.935699 
	C283.592346,113.949234 276.892517,112.239075 269.898499,109.932678 
	C266.807251,104.510841 263.716003,99.088997 260.727997,93.848289 
	C257.204132,99.477852 254.845566,106.595390 249.917328,110.183052 
	C244.922516,113.819176 237.388062,113.966698 231.107285,115.605324 
	C235.223602,120.599197 241.187897,125.062744 243.027725,130.839813 
	C244.900879,136.721481 242.713928,143.896194 242.303406,150.526413 
	C248.290909,147.876144 254.169525,145.274078 260.796692,142.899063 
z"/>
<path fill="#0B0903" opacity="1.000000" stroke="none" 
	d="
M446.904724,119.509918 
	C450.773834,127.380432 447.917023,132.083267 439.173828,132.088837 
	C405.528442,132.110245 371.882965,132.133743 338.238007,132.013474 
	C335.901520,132.005127 333.569275,130.829224 330.787659,129.736053 
	C329.940460,128.782867 329.540680,128.289902 329.140900,127.796928 
	C329.140900,127.796928 329.091278,127.930756 329.120392,127.512077 
	C329.131378,125.395927 329.113251,123.698456 329.095123,122.000984 
	C329.095123,122.000984 329.212128,121.871422 329.470886,121.600685 
	C329.899109,120.911392 330.068573,120.492836 330.238007,120.074280 
	C330.566986,120.077797 330.811279,119.935699 331.291687,119.347748 
	C331.846039,118.760849 332.079590,118.474197 332.313110,118.187546 
	C332.313110,118.187538 332.161957,118.175293 332.588531,118.160294 
	C335.470673,117.856842 337.925781,117.321472 340.381836,117.317299 
	C372.618134,117.262466 404.854584,117.265015 437.090881,117.316879 
	C439.720551,117.321106 442.349518,117.790550 444.978790,118.043831 
	C444.978790,118.043831 444.985168,117.992188 445.142059,118.268509 
	C445.834198,118.866531 446.369476,119.188225 446.904724,119.509918 
z"/>
<path fill="#090801" opacity="1.000000" stroke="none" 
	d="
M355.000244,87.031464 
	C383.489685,87.033119 411.479156,87.024361 439.468658,87.044838 
	C445.383118,87.049164 448.834686,89.822350 448.804565,94.403976 
	C448.774658,98.956764 445.289398,101.698524 439.407227,101.790024 
	C438.574432,101.802986 437.741211,101.789261 436.908203,101.789253 
	C410.917969,101.789017 384.927704,101.788864 358.937469,101.788940 
	C351.940094,101.788956 344.942291,101.838867 337.945526,101.775078 
	C332.069214,101.721512 328.809326,98.872009 328.971405,94.108147 
	C329.125793,89.568207 332.255402,87.086090 338.006561,87.041977 
	C343.504181,86.999809 349.002380,87.031975 355.000244,87.031464 
z"/>
<path fill="#0C0B03" opacity="1.000000" stroke="none" 
	d="
M448.010498,158.993195 
	C447.756927,159.238281 447.503387,159.483383 446.901001,160.075165 
	C446.016113,160.935242 445.480133,161.448624 444.944153,161.962006 
	C444.944153,161.962006 444.988708,162.004013 444.673920,161.987030 
	C443.994751,162.144669 443.630371,162.319305 443.265991,162.493927 
	C443.265991,162.493912 442.815399,162.383362 442.815399,162.383362 
	C442.815399,162.383362 442.364044,162.490662 441.724182,162.549866 
	C407.938416,162.590439 374.792450,162.595261 341.646729,162.515045 
	C338.507660,162.507446 335.369873,161.966431 332.231506,161.673065 
	C332.231506,161.673065 332.076721,161.895813 332.034973,161.546890 
	C331.380554,160.743454 330.767914,160.288940 330.155273,159.834412 
	C330.155273,159.834412 330.016541,159.986572 330.013672,159.542816 
	C329.672363,157.064728 329.333923,155.030396 328.995483,152.996063 
	C328.995483,152.996063 329.201508,152.719604 329.441620,152.392517 
	C329.956818,151.544510 330.231873,151.023560 330.506958,150.502625 
	C330.506958,150.502625 330.478790,150.408249 330.726196,150.312958 
	C331.221710,150.029633 331.361847,149.780746 331.393951,149.471054 
	C331.393951,149.471054 331.386169,149.386185 331.655884,149.254288 
	C332.036591,148.791946 332.147552,148.461502 332.258484,148.131042 
	C332.258484,148.131042 332.633545,148.152878 333.276672,148.222809 
	C336.240570,148.194122 338.561249,148.011719 340.882050,148.009796 
	C365.804474,147.989044 390.726898,148.017975 415.649261,147.983322 
	C422.782623,147.973404 429.915741,147.802032 437.048981,147.704681 
	C437.475739,147.762680 437.902466,147.820679 439.025818,147.912003 
	C442.128937,148.662811 444.535400,149.380295 446.941895,150.097778 
	C446.954041,150.422821 447.078949,150.696396 447.583374,151.344269 
	C448.165741,152.342529 448.481323,152.915009 448.796875,153.487488 
	C448.810699,153.835648 448.824493,154.183792 448.819092,155.090912 
	C448.709991,156.318573 448.620056,156.987274 448.530151,157.655960 
	C448.530151,157.655960 448.513245,157.769791 448.344055,157.886566 
	C448.120056,158.333282 448.065277,158.663239 448.010498,158.993195 
z"/>
<path fill="#030201" opacity="1.000000" stroke="none" 
	d="
M333.995422,70.969971 
	C326.845184,66.335495 326.979797,60.789230 335.136780,56.798683 
	C364.195679,56.712101 392.455017,56.733608 420.714325,56.705086 
	C427.186249,56.698551 433.657959,56.519695 440.493042,56.550270 
	C441.881287,56.710239 442.906342,56.740082 444.188416,56.994545 
	C445.241577,57.652767 446.037628,58.086380 446.833710,58.519989 
	C450.728058,66.386276 447.890411,71.151604 439.196289,71.157784 
	C404.787048,71.182228 370.377777,71.162079 335.261230,71.036507 
	C334.367737,70.933022 334.181580,70.951500 333.995422,70.969971 
z"/>
<path fill="#0D0A03" opacity="1.000000" stroke="none" 
	d="
M363.000000,193.083069 
	C354.357544,193.082443 346.214813,193.121857 338.072723,193.067902 
	C332.074402,193.028152 328.867737,190.350876 328.947144,185.617828 
	C329.023865,181.044128 332.031158,178.475479 337.853729,178.448608 
	C354.304474,178.372696 370.756012,178.368179 387.206665,178.449722 
	C392.908875,178.477982 396.080292,181.201904 396.125275,185.648621 
	C396.172272,190.294266 392.841034,193.032898 386.930267,193.068695 
	C379.120422,193.115967 371.310120,193.082062 363.000000,193.083069 
z"/>
<path fill="#FBE66F" opacity="1.000000" stroke="none" 
	d="
M446.850037,58.092663 
	C446.037628,58.086380 445.241577,57.652767 443.986328,56.781792 
	C442.394714,56.369663 441.262238,56.394905 440.129791,56.420147 
	C433.657959,56.519695 427.186249,56.698551 420.714325,56.705086 
	C392.455017,56.733608 364.195679,56.712101 335.473938,56.637566 
	C336.413788,56.043091 337.814941,55.066368 339.218475,55.062901 
	C373.429382,54.978325 407.640747,54.959709 441.851227,55.111107 
	C443.526642,55.118519 445.194794,56.776146 446.850037,58.092663 
z"/>
<path fill="#DECC67" opacity="1.000000" stroke="none" 
	d="
M436.917877,147.336700 
	C429.915741,147.802032 422.782623,147.973404 415.649261,147.983322 
	C390.726898,148.017975 365.804474,147.989044 340.882050,148.009796 
	C338.561249,148.011719 336.240570,148.194122 333.460388,148.183472 
	C334.279236,147.396973 335.555573,146.132690 336.836182,146.128372 
	C369.091919,146.019028 401.348175,146.033295 433.604248,146.080902 
	C434.665527,146.082458 435.725952,146.659775 436.917877,147.336700 
z"/>
<path fill="#F9EA76" opacity="1.000000" stroke="none" 
	d="
M444.900909,117.642685 
	C442.349518,117.790550 439.720551,117.321106 437.090881,117.316879 
	C404.854584,117.265015 372.618134,117.262466 340.381836,117.317299 
	C337.925781,117.321472 335.470673,117.856842 332.618469,118.229965 
	C333.362061,117.542198 334.500122,116.098618 335.642975,116.094795 
	C371.044250,115.976570 406.445984,115.988998 441.847534,116.052010 
	C442.840057,116.053787 443.831238,116.827682 444.900909,117.642685 
z"/>
<path fill="#DECC67" opacity="1.000000" stroke="none" 
	d="
M332.319214,162.069595 
	C335.369873,161.966431 338.507660,162.507446 341.646729,162.515045 
	C374.792450,162.595261 407.938416,162.590439 441.547058,162.699127 
	C440.325653,163.184326 438.642151,163.920746 436.957153,163.924194 
	C403.914398,163.991882 370.871460,163.998062 337.828827,163.909897 
	C336.020233,163.905075 334.214142,162.968811 332.319214,162.069595 
z"/>
<path fill="#ECDE6F" opacity="1.000000" stroke="none" 
	d="
M308.804565,118.514404 
	C308.146576,114.590393 307.872467,110.650894 307.482727,106.355927 
	C311.476196,108.859802 312.045197,112.764397 308.804565,118.514404 
z"/>
<path fill="#ECDE6F" opacity="1.000000" stroke="none" 
	d="
M294.896790,100.285141 
	C291.570099,100.196289 288.132629,99.764580 284.357422,99.136185 
	C287.608459,99.273766 291.197235,99.608025 294.896790,100.285141 
z"/>
<path fill="#ECDE6F" opacity="1.000000" stroke="none" 
	d="
M305.846436,103.845520 
	C303.115204,103.216820 300.389343,102.216019 297.340179,101.040382 
	C300.739502,99.100365 303.823883,99.497299 305.846436,103.845520 
z"/>
<path fill="#DECC67" opacity="1.000000" stroke="none" 
	d="
M446.928955,149.730179 
	C444.535400,149.380295 442.128937,148.662811 439.339783,147.824142 
	C442.443665,144.258606 444.677246,146.823120 446.928955,149.730179 
z"/>
<path fill="#DECC67" opacity="1.000000" stroke="none" 
	d="
M328.716858,153.264557 
	C329.333923,155.030396 329.672363,157.064728 330.092590,159.476715 
	C326.405090,158.623550 328.311707,155.833847 328.716858,153.264557 
z"/>
<path fill="#F9EA76" opacity="1.000000" stroke="none" 
	d="
M328.799713,122.233566 
	C329.113251,123.698456 329.131378,125.395927 329.191345,127.519516 
	C328.990234,126.119148 328.747253,124.292648 328.799713,122.233566 
z"/>
<path fill="#ECDE6F" opacity="1.000000" stroke="none" 
	d="
M281.922424,98.369186 
	C281.181396,98.443741 280.342407,98.179588 279.430420,97.566643 
	C280.179810,97.488731 281.002136,97.759605 281.922424,98.369186 
z"/>
<path fill="#ECDE6F" opacity="1.000000" stroke="none" 
	d="
M307.198486,120.866165 
	C307.204102,120.223518 307.580811,119.566635 308.182129,118.732742 
	C308.127655,119.321129 307.848572,120.086533 307.198486,120.866165 
z"/>
<path fill="#DECC67" opacity="1.000000" stroke="none" 
	d="
M448.850037,157.637527 
	C448.620056,156.987274 448.709991,156.318573 448.924713,155.333984 
	C449.089661,155.885071 449.129822,156.752090 448.850037,157.637527 
z"/>
<path fill="#DECC67" opacity="1.000000" stroke="none" 
	d="
M445.258240,161.962616 
	C445.480133,161.448624 446.016113,160.935242 446.819336,160.331223 
	C446.581818,160.814789 446.077087,161.389008 445.258240,161.962616 
z"/>
<path fill="#DECC67" opacity="1.000000" stroke="none" 
	d="
M330.150635,160.186920 
	C330.767914,160.288940 331.380554,160.743454 332.132324,161.452454 
	C331.562958,161.317780 330.854462,160.928604 330.150635,160.186920 
z"/>
<path fill="#DECC67" opacity="1.000000" stroke="none" 
	d="
M330.153656,150.500732 
	C330.231873,151.023560 329.956818,151.544510 329.429626,152.220551 
	C329.385132,151.750046 329.592743,151.124451 330.153656,150.500732 
z"/>
<path fill="#DECC67" opacity="1.000000" stroke="none" 
	d="
M448.850830,153.120728 
	C448.481323,152.915009 448.165741,152.342529 447.792236,151.441376 
	C448.124420,151.659790 448.514587,152.206879 448.850830,153.120728 
z"/>
<path fill="#F9EA76" opacity="1.000000" stroke="none" 
	d="
M329.139130,128.162552 
	C329.540680,128.289902 329.940460,128.782867 330.468323,129.575409 
	C330.110046,129.426056 329.623718,128.977127 329.139130,128.162552 
z"/>
<path fill="#F9EA76" opacity="1.000000" stroke="none" 
	d="
M446.809265,119.181221 
	C446.369476,119.188225 445.834198,118.866531 445.123077,118.286369 
	C445.536072,118.302773 446.124939,118.577652 446.809265,119.181221 
z"/>
<path fill="#DECC67" opacity="1.000000" stroke="none" 
	d="
M443.591370,162.588547 
	C443.630371,162.319305 443.994751,162.144669 444.667603,161.957092 
	C444.622955,162.190460 444.269867,162.436813 443.591370,162.588547 
z"/>
<path fill="#ECDE6F" opacity="1.000000" stroke="none" 
	d="
M301.073181,126.813599 
	C300.995514,126.586250 301.185150,126.283432 301.638245,125.900223 
	C301.714600,126.125931 301.527557,126.432030 301.073181,126.813599 
z"/>
<path fill="#BBB151" opacity="1.000000" stroke="none" 
	d="
M334.054260,71.154129 
	C334.181580,70.951500 334.367737,70.933022 334.795441,71.057510 
	C334.729004,71.246414 334.421051,71.292351 334.054260,71.154129 
z"/>
<path fill="#ECDE6F" opacity="1.000000" stroke="none" 
	d="
M306.810669,105.014084 
	C306.571930,105.091515 306.259857,104.882538 305.856232,104.400246 
	C306.088898,104.327179 306.413116,104.527428 306.810669,105.014084 
z"/>
<path fill="#F9EA76" opacity="1.000000" stroke="none" 
	d="
M332.022797,118.239639 
	C332.079590,118.474197 331.846039,118.760849 331.337585,119.131401 
	C331.285950,118.907448 331.509216,118.599594 332.022797,118.239639 
z"/>
<path fill="#F9EA76" opacity="1.000000" stroke="none" 
	d="
M329.928711,120.240204 
	C330.068573,120.492836 329.899109,120.911392 329.443115,121.517944 
	C329.310852,121.272659 329.465118,120.839386 329.928711,120.240204 
z"/>
<path fill="#ECDE6F" opacity="1.000000" stroke="none" 
	d="
M306.113647,121.840462 
	C306.028931,121.621964 306.205017,121.313507 306.637329,120.910248 
	C306.720490,121.127121 306.547424,121.438812 306.113647,121.840462 
z"/>
<path fill="#ECDE6F" opacity="1.000000" stroke="none" 
	d="
M305.104858,122.843506 
	C305.030304,122.624008 305.217438,122.321175 305.667114,121.935898 
	C305.741943,122.155678 305.554260,122.457916 305.104858,122.843506 
z"/>
<path fill="#ECDE6F" opacity="1.000000" stroke="none" 
	d="
M304.108154,123.839493 
	C304.031433,123.617462 304.216278,123.311249 304.664246,122.924606 
	C304.741516,123.147881 304.555603,123.451591 304.108154,123.839493 
z"/>
<path fill="#ECDE6F" opacity="1.000000" stroke="none" 
	d="
M303.098022,124.832687 
	C303.023499,124.610817 303.210693,124.307678 303.661804,123.926659 
	C303.737091,124.149666 303.548401,124.450539 303.098022,124.832687 
z"/>
<path fill="#ECDE6F" opacity="1.000000" stroke="none" 
	d="
M302.082642,125.822464 
	C302.009155,125.600159 302.201019,125.300995 302.653778,124.918793 
	C302.725769,125.139053 302.536896,125.442337 302.082642,125.822464 
z"/>
<path fill="#DECC67" opacity="1.000000" stroke="none" 
	d="
M448.242371,158.846466 
	C448.065277,158.663239 448.120056,158.333282 448.365662,157.835602 
	C448.529053,158.011826 448.501678,158.355774 448.242371,158.846466 
z"/>
<path fill="#ECDE6F" opacity="1.000000" stroke="none" 
	d="
M300.061279,127.800583 
	C299.983673,127.572998 300.176239,127.274635 300.629364,126.890663 
	C300.703766,127.113304 300.517578,127.421547 300.061279,127.800583 
z"/>
<path fill="#ECDE6F" opacity="1.000000" stroke="none" 
	d="
M299.061981,128.794739 
	C298.979645,128.565659 299.167206,128.265274 299.613342,127.877670 
	C299.691895,128.101440 299.511871,128.412445 299.061981,128.794739 
z"/>
<path fill="#ECDE6F" opacity="1.000000" stroke="none" 
	d="
M298.050537,129.774567 
	C297.971283,129.544357 298.162170,129.250809 298.610565,128.873901 
	C298.685608,129.097443 298.503143,129.404343 298.050537,129.774567 
z"/>
<path fill="#ECDE6F" opacity="1.000000" stroke="none" 
	d="
M297.020264,130.774445 
	C296.937958,130.540268 297.130554,130.244797 297.580994,129.864182 
	C297.657623,130.090424 297.476410,130.401779 297.020264,130.774445 
z"/>
<path fill="#ECDE6F" opacity="1.000000" stroke="none" 
	d="
M296.016113,131.762115 
	C295.928314,131.520264 296.120728,131.219025 296.574707,130.831146 
	C296.656281,131.063934 296.476288,131.383331 296.016113,131.762115 
z"/>
<path fill="#ECDE6F" opacity="1.000000" stroke="none" 
	d="
M295.024719,132.761139 
	C294.932892,132.520905 295.118927,132.217743 295.563690,131.825027 
	C295.649139,132.056381 295.475891,132.377274 295.024719,132.761139 
z"/>
<path fill="#ECDE6F" opacity="1.000000" stroke="none" 
	d="
M293.924225,133.790421 
	C293.848145,133.546524 294.066956,133.236633 294.561218,132.832520 
	C294.630859,133.067017 294.424988,133.395721 293.924225,133.790421 
z"/>
<path fill="#DECC67" opacity="1.000000" stroke="none" 
	d="
M331.987244,148.230103 
	C332.147552,148.461502 332.036591,148.791946 331.698486,149.254013 
	C331.552917,149.033478 331.634430,148.681305 331.987244,148.230103 
z"/>
<path fill="#DECC67" opacity="1.000000" stroke="none" 
	d="
M331.112000,149.450485 
	C331.361847,149.780746 331.221710,150.029633 330.775360,150.310486 
	C330.661438,150.078842 330.745728,149.754379 331.112000,149.450485 
z"/>
<path fill="#090405" opacity="1.000000" stroke="none" 
	d="
M60.431030,332.735657 
	C58.048786,330.463715 56.014782,328.310577 53.906212,326.233154 
	C39.685890,312.222839 41.639019,294.400848 58.780521,283.517883 
	C67.595253,280.167908 75.895187,280.273163 83.914291,285.268005 
	C84.781746,285.808319 86.708641,285.237579 87.861778,284.638641 
	C100.087318,278.288849 113.411682,281.090942 121.248657,291.771545 
	C128.758682,302.006531 127.328018,315.825592 117.619408,325.324402 
	C109.642601,333.128845 101.566345,340.833099 93.456718,348.499817 
	C87.459023,354.169922 83.097420,354.094025 77.038696,348.379791 
	C71.586945,343.238007 66.174545,338.054535 60.431030,332.735657 
M66.140877,296.719788 
	C58.944778,300.505707 56.788937,308.053986 61.971840,313.440002 
	C69.432426,321.192993 77.424690,328.434357 85.339867,336.037994 
	C87.460121,333.850525 89.290283,331.962341 91.733986,329.817139 
	C97.009239,324.771179 102.385193,319.825317 107.530319,314.649994 
	C112.297859,309.854401 112.467049,303.426239 108.244934,299.094849 
	C104.156631,294.900726 98.220833,294.912750 93.029419,299.125641 
	C86.726929,304.240204 83.974792,304.200562 77.356308,298.940643 
	C74.240456,296.464417 70.914505,294.884735 66.140877,296.719788 
z"/>
<path fill="#0E0405" opacity="1.000000" stroke="none" 
	d="
M166.064484,355.868286 
	C163.077179,355.837280 160.557220,356.000610 158.084396,355.731201 
	C154.104462,355.297577 151.584610,352.897827 151.324539,348.928192 
	C151.060410,344.896942 153.471725,342.382660 157.268402,341.374878 
	C158.682785,340.999390 160.240906,341.095306 161.733505,341.094879 
	C194.562668,341.085388 227.391815,341.089294 260.220978,341.106384 
	C261.881165,341.107269 263.603516,340.993103 265.189117,341.377380 
	C269.012146,342.303833 271.377167,344.715057 271.145203,348.847900 
	C270.917267,352.908630 268.493225,355.196167 264.534485,355.766327 
	C263.062592,355.978302 261.540405,355.860413 260.041168,355.860657 
	C228.878433,355.866028 197.715714,355.866760 166.064484,355.868286 
z"/>
<path fill="#0B0203" opacity="1.000000" stroke="none" 
	d="
M242.999954,294.984955 
	C215.881744,294.984985 189.263535,294.986755 162.645309,294.980865 
	C160.982925,294.980499 159.266953,295.174347 157.668869,294.837158 
	C153.851257,294.031708 151.316757,291.680176 151.337509,287.630066 
	C151.357925,283.648407 153.693176,281.179596 157.590607,280.334015 
	C158.551025,280.125671 159.577682,280.185120 160.573914,280.184875 
	C194.345764,280.177216 228.117615,280.177216 261.889465,280.176544 
	C262.388550,280.176544 262.889099,280.158783 263.386444,280.189972 
	C268.106384,280.485992 271.202484,283.395721 271.212708,287.534363 
	C271.222992,291.692291 268.136383,294.822845 263.462616,294.934052 
	C256.811768,295.092255 250.154480,294.981018 242.999954,294.984955 
z"/>
<path fill="#060101" opacity="1.000000" stroke="none" 
	d="
M163.149490,310.770416 
	C195.915939,310.766052 228.203506,310.758911 260.491089,310.767822 
	C262.150116,310.768250 263.867584,310.656433 265.456543,311.028931 
	C269.400421,311.953552 271.441498,314.619202 271.093079,318.664948 
	C270.767181,322.449707 268.525787,324.700897 264.675293,325.108673 
	C263.356995,325.248352 262.015381,325.185028 260.684418,325.185333 
	C227.731125,325.192261 194.777817,325.196320 161.824524,325.195251 
	C160.493973,325.195221 159.153214,325.234680 157.834793,325.092590 
	C153.964951,324.675690 151.704269,322.296051 151.415359,318.607117 
	C151.104172,314.633514 153.267410,311.914398 157.201965,311.035278 
	C158.956924,310.643127 160.843674,310.840881 163.149490,310.770416 
z"/>
<path fill="#090102" opacity="1.000000" stroke="none" 
	d="
M152.374466,375.385681 
	C155.009796,373.923035 157.435104,371.862518 159.895813,371.819366 
	C176.543823,371.527344 193.199600,371.606140 209.852249,371.689514 
	C215.433212,371.717499 218.714462,374.623413 218.711655,379.054047 
	C218.708923,383.358093 215.209366,386.284210 209.725708,386.299072 
	C193.239365,386.343750 176.752518,386.360565 160.266464,386.274231 
	C153.008499,386.236206 150.222946,382.465820 152.374466,375.385681 
z"/>
<path fill="#100405" opacity="1.000000" stroke="none" 
	d="
M175.992920,249.866440 
	C180.320953,249.885818 184.153214,249.830215 187.979935,249.950638 
	C192.044403,250.078552 194.614517,252.244843 195.041779,256.283173 
	C195.490082,260.520508 193.418915,263.989502 189.207748,264.168121 
	C178.590103,264.618530 167.930817,264.620056 157.311111,264.209412 
	C153.432693,264.059418 151.077225,260.737549 151.332855,256.801697 
	C151.600327,252.683838 154.196701,250.067780 158.510666,249.944794 
	C164.168137,249.783508 169.833023,249.882111 175.992920,249.866440 
z"/>
<path fill="#DCE8F7" opacity="1.000000" stroke="none" 
	d="
M270.192688,110.528915 
	C276.892517,112.239075 283.592346,113.949234 291.374634,115.935699 
	C277.948456,124.064255 273.260345,135.447510 280.289032,150.881943 
	C272.867310,147.842453 266.832001,145.370758 260.422180,142.424820 
	C259.153900,140.262482 258.562775,138.294662 257.309509,136.938889 
	C253.583191,132.907852 249.572281,129.141342 245.717743,125.227005 
	C241.093781,120.531326 241.772583,117.542412 248.259842,115.891777 
	C252.546036,114.801193 257.116577,114.861168 261.445709,113.894875 
	C264.461548,113.221718 267.283905,111.681694 270.192688,110.528915 
z"/>
<path fill="#AED3F0" opacity="1.000000" stroke="none" 
	d="
M270.045593,110.230797 
	C267.283905,111.681694 264.461548,113.221718 261.445709,113.894875 
	C257.116577,114.861168 252.546036,114.801193 248.259842,115.891777 
	C241.772583,117.542412 241.093781,120.531326 245.717743,125.227005 
	C249.572281,129.141342 253.583191,132.907852 257.309509,136.938889 
	C258.562775,138.294662 259.153900,140.262482 260.047913,142.311295 
	C254.169525,145.274078 248.290909,147.876144 242.303406,150.526413 
	C242.713928,143.896194 244.900879,136.721481 243.027725,130.839813 
	C241.187897,125.062744 235.223602,120.599197 231.107285,115.605324 
	C237.388062,113.966698 244.922516,113.819176 249.917328,110.183052 
	C254.845566,106.595390 257.204132,99.477852 260.727997,93.848289 
	C263.716003,99.088997 266.807251,104.510841 270.045593,110.230797 
z"/>
<path fill="#FDE45B" opacity="1.000000" stroke="none" 
	d="
M440.493042,56.550270 
	C441.262238,56.394905 442.394714,56.369663 443.729248,56.557175 
	C442.906342,56.740082 441.881287,56.710239 440.493042,56.550270 
z"/>
<path fill="#DDE8F8" opacity="1.000000" stroke="none" 
	d="
M66.871201,296.690125 
	C70.914505,294.884735 74.240456,296.464417 77.356308,298.940643 
	C83.974792,304.200562 86.726929,304.240204 93.029419,299.125641 
	C98.220833,294.912750 104.156631,294.900726 108.244934,299.094849 
	C112.467049,303.426239 112.297859,309.854401 107.530319,314.649994 
	C102.385193,319.825317 97.009239,324.771179 91.076508,329.894592 
	C85.362846,325.244110 80.430023,320.374786 75.217712,315.825714 
	C69.352600,310.706879 66.008865,304.659973 66.871201,296.690125 
z"/>
<path fill="#B0D5F2" opacity="1.000000" stroke="none" 
	d="
M66.506042,296.704956 
	C66.008865,304.659973 69.352600,310.706879 75.217712,315.825714 
	C80.430023,320.374786 85.362846,325.244110 90.769737,330.023102 
	C89.290283,331.962341 87.460121,333.850525 85.339867,336.037994 
	C77.424690,328.434357 69.432426,321.192993 61.971840,313.440002 
	C56.788937,308.053986 58.944778,300.505707 66.506042,296.704956 
z"/>
</svg>